<svg xmlns="http://www.w3.org/2000/svg" width="48" height="48" fill="none" viewBox="0 0 48 48"><path fill="#2161ab" d="M18.237.892Q28.25-1.605 34.821 2.888q6.57 4.492 9.427 15.95 2.865 11.488-.827 18.662-3.671 7.137-13.657 9.625-9.956 2.484-16.549-2.093-2.458-1.717-4.395-4.389c-.662-.91-.347-2.17.614-2.758l5.973-3.654a2.05 2.05 0 0 1 2.825.693l4.036 6.727q.817 1.374 2.244 1.99t2.822.146q1.42-.475 2.14-1.99l10.402-22.444q1-2.161.176-3.808-.805-1.68-3.077-1.995l-23.857-3.49q-2.495-.381-4.188.678-1.662 1.052-1.882 3.02-.194 1.96 1.23 4.58l3.984 6.64a2.05 2.05 0 0 1-.688 2.801L6.85 30.667c-1.131.69-2.611.141-2.948-1.14l-.15-.592q-2.857-11.457.807-18.502Q8.253 3.382 18.237.892"/></svg>