<svg width="94" height="24" fill="none" xmlns="http://www.w3.org/2000/svg"><path d="M30.81 4.062c2.278-.568 4.166-.34 5.661.682 1.496 1.022 2.569 2.837 3.219 5.445.652 2.615.558 4.74-.282 6.372-.836 1.625-2.39 2.72-4.663 3.286-2.266.565-4.15.327-5.65-.715a6.33 6.33 0 01-1.501-1.498c-.226-.31-.119-.741.21-.942l2.039-1.247a.7.7 0 01.964.237l1.378 2.296c.186.313.442.54.767.68s.646.156.963.05c.324-.109.567-.335.73-.68l3.552-7.663c.228-.492.248-.925.06-1.3-.183-.383-.533-.61-1.05-.681L29.06 7.192c-.567-.086-1.044-.01-1.43.232-.378.24-.592.583-.642 1.03-.044.447.096.968.42 1.564l1.36 2.268a.7.7 0 01-.235.956l-1.613.986a.67.67 0 01-1.006-.39 15.617 15.617 0 01-.052-.201c-.65-2.608-.558-4.714.276-6.317.84-1.605 2.398-2.691 4.67-3.258z" fill="#2161AB"/><g clip-path="url(#clip0_3_19695)"><path d="M21.538 3.885c.301 0 .546.244.546.545v15.206a.546.546 0 01-.546.546h-2.392a.546.546 0 01-.546-.546V11.16c0-.51-.643-.746-.977-.36a185.63 185.63 0 01-2.384 2.7 627.71 627.71 0 00-1.88 2.12.6.6 0 01-.885 0c-.384-.433-1.01-1.133-1.88-2.1a184.888 184.888 0 01-2.36-2.7c-.333-.39-.98-.156-.98.356v8.46a.546.546 0 01-.546.546H4.295a.546.546 0 01-.545-.546V4.43c0-.3.244-.545.545-.545h2.707c.16 0 .311.07.415.191l5.085 5.964a.545.545 0 00.83 0l5.105-5.964a.545.545 0 01.414-.191h2.687zm33.954.315a.545.545 0 01.495-.315h3.136c.399 0 .663.413.495.775l-7.051 15.206a.545.545 0 01-.495.316h-3.134a.546.546 0 01-.494-.316L41.374 4.66a.545.545 0 01.494-.775h3.156c.212 0 .405.123.495.315l4.492 9.662c.195.42.793.42.989 0L55.492 4.2zm19.172 12.478c.301 0 .546.244.546.545v2.413a.546.546 0 01-.546.546H62.168a.546.546 0 01-.546-.546V4.43c0-.3.244-.545.546-.545h2.412c.301 0 .546.244.546.545v11.702c0 .301.244.546.545.546h8.993zm10.028-12.56a.545.545 0 01.447-.233h3.19c.445 0 .703.504.442.865l-6.42 8.871a.546.546 0 00-.104.32v5.695a.546.546 0 01-.546.546h-2.636a.546.546 0 01-.546-.546v-5.695a.545.545 0 00-.103-.32L72.014 4.75a.545.545 0 01.442-.865h3.192c.178 0 .345.087.447.233l3.851 5.522a.545.545 0 00.895 0l3.85-5.522z" fill="#2F2F31"/></g><defs><clipPath id="clip0_3_19695"><path fill="#fff" transform="translate(3.75 3.498)" d="M0 0h86.182v16.909H0z"/></clipPath></defs></svg>