<svg width="21" height="11" viewBox="0 0 21 11" fill="none" xmlns="http://www.w3.org/2000/svg">
<path d="M10.0058 8.71042L1.27877 0.21842C1.20844 0.148504 1.12494 0.0932302 1.03311 0.0557956C0.941278 0.018361 0.842934 -0.000490235 0.743769 0.000333745C0.644604 0.00115772 0.546587 0.0216398 0.45539 0.0605945C0.364192 0.0995493 0.281626 0.156203 0.212469 0.227278C0.143311 0.298352 0.0889357 0.382437 0.052489 0.474665C0.0160422 0.566893 -0.00175224 0.665435 0.000135476 0.764585C0.00202319 0.863736 0.0235556 0.961528 0.0634865 1.0523C0.103417 1.14307 0.160954 1.22503 0.232767 1.29342L9.48277 10.2934C9.62278 10.4296 9.81042 10.5059 10.0058 10.5059C10.2011 10.5059 10.3888 10.4296 10.5288 10.2934L19.7788 1.29342C19.8506 1.22503 19.9081 1.14307 19.948 1.0523C19.988 0.961527 20.0095 0.863735 20.0114 0.764584C20.0133 0.665434 19.9955 0.566892 19.959 0.474664C19.9226 0.382436 19.8682 0.298351 19.7991 0.227277C19.7299 0.156202 19.6473 0.0995482 19.5561 0.0605935C19.4649 0.0216387 19.3669 0.00115668 19.2678 0.000332714C19.1686 -0.000491255 19.0703 0.01836 18.9784 0.0557946C18.8866 0.0932292 18.8031 0.148503 18.7328 0.218419L10.0058 8.71042Z" fill="#666D73"/>
</svg>
