<svg width="16" height="16" viewBox="0 0 16 16" fill="none" xmlns="http://www.w3.org/2000/svg">
<path fill-rule="evenodd" clip-rule="evenodd" d="M7.99987 16C9.44499 16.0001 10.8632 15.6087 12.1037 14.8675C13.3442 14.1262 14.3608 13.0626 15.0454 11.7899C15.73 10.5171 16.0571 9.08267 15.9918 7.63892C15.9266 6.19517 15.4715 4.79606 14.675 3.59022L8.31541 10.6569C8.01835 10.987 7.60849 11.194 7.16649 11.2371C6.72449 11.2802 6.28236 11.1563 5.92713 10.8898L3.02245 8.71111C2.83386 8.56966 2.70919 8.35909 2.67585 8.12571C2.64251 7.89233 2.70324 7.65526 2.84468 7.46667C2.98612 7.27807 3.19668 7.15339 3.43004 7.12005C3.66341 7.08671 3.90045 7.14744 4.08904 7.28889L6.99372 9.46756L13.523 2.21333C12.5772 1.31032 11.4243 0.652979 10.1655 0.298864C8.90668 -0.0552502 7.58024 -0.0953387 6.30233 0.182109C5.02442 0.459556 3.83401 1.04608 2.83532 1.89032C1.83664 2.73457 1.06013 3.81078 0.5738 5.02475C0.0874664 6.23871 -0.0938662 7.5534 0.0456795 8.8537C0.185225 10.154 0.641394 11.4003 1.37424 12.4834C2.10709 13.5665 3.09428 14.4534 4.24936 15.0665C5.40444 15.6795 6.6922 16.0001 7.99987 16Z" fill="#BDD0EA"/>
</svg>
