<svg width="24" height="24" viewBox="0 0 24 24" fill="none" xmlns="http://www.w3.org/2000/svg">
<path d="M22.005 8.31004C21.792 8.04072 21.5207 7.82319 21.2115 7.6738C20.9024 7.52442 20.5634 7.44705 20.22 7.44754H19.7992L20.025 6.17329C20.0427 6.07607 20.0409 5.97631 20.0197 5.87979C19.9986 5.78327 19.9585 5.6919 19.9018 5.61099C19.845 5.53007 19.7728 5.46121 19.6893 5.40839C19.6058 5.35557 19.5127 5.31985 19.4152 5.30329L13.794 4.32154C13.6971 4.30438 13.5978 4.30648 13.5018 4.32774C13.4057 4.34899 13.3148 4.38897 13.2342 4.44539C13.1536 4.50182 13.0849 4.57357 13.0321 4.65656C12.9792 4.73955 12.9433 4.83214 12.9263 4.92904L12.477 7.44754H11.7127L12.1875 4.80004C12.2207 4.60614 12.292 4.42074 12.3973 4.25454C12.5025 4.08834 12.6396 3.94461 12.8007 3.83166C12.9617 3.71871 13.1436 3.63876 13.3357 3.59643C13.5278 3.5541 13.7264 3.55023 13.92 3.58504L16.9125 4.11004L16.56 2.12254C16.5431 2.02537 16.5071 1.93251 16.4541 1.8493C16.4012 1.7661 16.3323 1.69419 16.2514 1.63772C16.1706 1.58126 16.0793 1.54135 15.983 1.52029C15.8866 1.49923 15.787 1.49745 15.69 1.51504L8.16 2.82754C7.9575 2.86504 7.785 2.97004 7.6725 3.13504C7.56 3.30004 7.515 3.50254 7.545 3.69754L8.20125 7.44754H6.705L6.06 4.65003C5.985 4.31254 5.685 4.07254 5.3325 4.07254H2.25C1.8375 4.07254 1.5 4.41004 1.5 4.82254C1.5 5.23503 1.8375 5.57254 2.25 5.57254H4.7325L7.0875 15.7725C7.20223 16.2762 7.48565 16.7256 7.89077 17.0462C8.2959 17.3667 8.79841 17.5392 9.315 17.535H18.9375C20.01 17.535 20.925 16.815 21.165 15.7725L22.44 10.23C22.5975 9.55504 22.44 8.85004 22.005 8.31004ZM17.6025 14.655H10.8675C10.455 14.655 10.1175 14.3175 10.1175 13.905C10.1175 13.485 10.455 13.155 10.8675 13.155H17.6025C18.0225 13.155 18.3525 13.485 18.3525 13.905C18.3525 14.3175 18.0225 14.655 17.6025 14.655ZM19.29 11.61H9.18C8.7675 11.61 8.43 11.2725 8.43 10.86C8.43 10.44 8.7675 10.11 9.18 10.11H19.29C19.7025 10.11 20.04 10.44 20.04 10.86C20.04 11.2725 19.7025 11.61 19.29 11.61ZM9.63375 18.7155C9.13154 18.7155 8.64981 18.9146 8.29413 19.2692C7.93845 19.6237 7.73784 20.1048 7.73625 20.607C7.73625 21.651 8.5875 22.4993 9.63375 22.4993C10.68 22.4993 11.5312 21.6503 11.5312 20.607C11.5297 20.1048 11.329 19.6237 10.9734 19.2692C10.6177 18.9146 10.136 18.7155 9.63375 18.7155ZM18.6173 18.7155C18.115 18.7153 17.6331 18.9144 17.2774 19.269C16.9217 19.6236 16.7211 20.1048 16.7197 20.607C16.7197 21.651 17.571 22.4993 18.6173 22.4993C19.6635 22.4993 20.5148 21.6503 20.5148 20.607C20.5136 20.1047 20.3131 19.6234 19.9573 19.2687C19.6015 18.9141 19.1196 18.7151 18.6173 18.7155Z" fill="#BDD0EA"/>
</svg>
