<svg width="24" height="24" viewBox="0 0 24 24" fill="none" xmlns="http://www.w3.org/2000/svg">
<path d="M22 8.16192V8.23492C22 9.09492 22 9.52592 21.793 9.87792C21.586 10.2299 21.209 10.4389 20.457 10.8579L19.664 11.2979C20.21 9.44992 20.393 7.46392 20.46 5.76592L20.47 5.54492L20.472 5.49292C21.123 5.71892 21.489 5.88792 21.717 6.20392C22 6.59692 22 7.11892 22 8.16192ZM2 8.16192V8.23492C2 9.09492 2 9.52592 2.207 9.87792C2.414 10.2299 2.791 10.4389 3.543 10.8579L4.337 11.2979C3.79 9.44992 3.607 7.46392 3.54 5.76592L3.53 5.54492L3.529 5.49292C2.877 5.71892 2.511 5.88792 2.283 6.20392C2 6.59692 2 7.11992 2 8.16192Z" fill="#BDD0EA"/>
<path fill-rule="evenodd" clip-rule="evenodd" d="M16.3774 2.34698C14.9305 2.10998 13.4665 1.99391 12.0004 1.99998C10.2174 1.99998 8.74737 2.15698 7.62337 2.34698C6.48437 2.53898 5.91537 2.63498 5.43937 3.22098C4.96437 3.80698 4.98937 4.43998 5.03937 5.70598C5.21237 10.054 6.15037 15.486 11.2504 15.966V19.5H9.82037C9.58928 19.5001 9.36537 19.5803 9.18671 19.7269C9.00805 19.8734 8.88567 20.0774 8.84037 20.304L8.65037 21.25H6.00037C5.80146 21.25 5.61069 21.329 5.47004 21.4697C5.32939 21.6103 5.25037 21.8011 5.25037 22C5.25037 22.1989 5.32939 22.3897 5.47004 22.5303C5.61069 22.671 5.80146 22.75 6.00037 22.75H18.0004C18.1993 22.75 18.39 22.671 18.5307 22.5303C18.6714 22.3897 18.7504 22.1989 18.7504 22C18.7504 21.8011 18.6714 21.6103 18.5307 21.4697C18.39 21.329 18.1993 21.25 18.0004 21.25H15.3504L15.1604 20.304C15.1151 20.0774 14.9927 19.8734 14.814 19.7269C14.6354 19.5803 14.4115 19.5001 14.1804 19.5H12.7504V15.966C17.8504 15.486 18.7894 10.055 18.9614 5.70598C19.0114 4.43998 19.0374 3.80598 18.5614 3.22098C18.0854 2.63498 17.5164 2.53898 16.3774 2.34698Z" fill="#BDD0EA"/>
</svg>
