<svg width="12" height="16" viewBox="0 0 12 16" fill="none" xmlns="http://www.w3.org/2000/svg">
<path d="M6.00099 6.77815e-08C2.6799 3.02757e-08 -0.000559969 2.68 -4.38906e-05 6C0.000577891 10 6.00348 16 6.00348 16C6.00348 16 12.0045 10 12.0039 6C12.0034 2.68 9.32208 1.05287e-07 6.00099 6.77815e-08ZM6.0013 2C7.06251 2 8.08033 2.42143 8.83084 3.17157C9.58134 3.92172 10.0031 4.93913 10.0032 6C10.0036 8.22 8.22327 10 6.00254 10C4.94133 10 3.92352 9.57857 3.17301 8.82843C2.4225 8.07828 2.00078 7.06087 2.00061 6C2.00045 4.93913 2.42185 3.92172 3.17213 3.17157C3.9224 2.42143 4.94009 2 6.0013 2Z" fill="#2161AB"/>
</svg>
