<svg width="21" height="21" viewBox="0 0 21 21" fill="none" xmlns="http://www.w3.org/2000/svg">
<path d="M20.505 6.80698C20.292 6.53767 20.0207 6.32014 19.7115 6.17075C19.4024 6.02136 19.0634 5.944 18.72 5.94448H18.2992L18.525 4.67023C18.5427 4.57301 18.5409 4.47326 18.5197 4.37674C18.4986 4.28022 18.4585 4.18885 18.4018 4.10793C18.345 4.02702 18.2728 3.95816 18.1893 3.90534C18.1058 3.85252 18.0127 3.8168 17.9152 3.80023L12.294 2.81848C12.1971 2.80133 12.0978 2.80343 12.0018 2.82469C11.9057 2.84594 11.8148 2.88592 11.7342 2.94234C11.6536 2.99876 11.5849 3.07052 11.5321 3.15351C11.4792 3.2365 11.4433 3.32909 11.4263 3.42598L10.977 5.94448H10.2127L10.6875 3.29698C10.7207 3.10309 10.792 2.91769 10.8973 2.75149C11.0025 2.58528 11.1396 2.44156 11.3007 2.32861C11.4617 2.21566 11.6436 2.13571 11.8357 2.09338C12.0278 2.05105 12.2264 2.04718 12.42 2.08198L15.4125 2.60698L15.06 0.619483C15.0431 0.522316 15.0071 0.429456 14.9541 0.346251C14.9012 0.263046 14.8323 0.19114 14.7514 0.134673C14.6706 0.0782067 14.5793 0.0382961 14.483 0.0172396C14.3866 -0.00381694 14.287 -0.00560327 14.19 0.0119835L6.66 1.32448C6.4575 1.36198 6.285 1.46698 6.1725 1.63198C6.06 1.79698 6.015 1.99948 6.045 2.19448L6.70125 5.94448H5.205L4.56 3.14698C4.485 2.80948 4.185 2.56948 3.8325 2.56948H0.75C0.3375 2.56948 0 2.90698 0 3.31948C0 3.73198 0.3375 4.06948 0.75 4.06948H3.2325L5.5875 14.2695C5.70223 14.7732 5.98565 15.2226 6.39077 15.5431C6.7959 15.8637 7.29841 16.0362 7.815 16.032H17.4375C18.51 16.032 19.425 15.312 19.665 14.2695L20.94 8.72698C21.0975 8.05198 20.94 7.34698 20.505 6.80698ZM16.1025 13.152H9.3675C8.955 13.152 8.6175 12.8145 8.6175 12.402C8.6175 11.982 8.955 11.652 9.3675 11.652H16.1025C16.5225 11.652 16.8525 11.982 16.8525 12.402C16.8525 12.8145 16.5225 13.152 16.1025 13.152ZM17.79 10.107H7.68C7.2675 10.107 6.93 9.76948 6.93 9.35698C6.93 8.93698 7.2675 8.60698 7.68 8.60698H17.79C18.2025 8.60698 18.54 8.93698 18.54 9.35698C18.54 9.76948 18.2025 10.107 17.79 10.107ZM8.13375 17.2125C7.63154 17.2125 7.14981 17.4116 6.79413 17.7661C6.43845 18.1207 6.23784 18.6018 6.23625 19.104C6.23625 20.148 7.0875 20.9962 8.13375 20.9962C9.18 20.9962 10.0312 20.1472 10.0312 19.104C10.0297 18.6018 9.82905 18.1207 9.47337 17.7661C9.11769 17.4116 8.63596 17.2125 8.13375 17.2125ZM17.1173 17.2125C16.615 17.2123 16.1331 17.4113 15.7774 17.7659C15.4217 18.1205 15.2211 18.6017 15.2197 19.104C15.2197 20.148 16.071 20.9962 17.1173 20.9962C18.1635 20.9962 19.0148 20.1472 19.0148 19.104C19.0136 18.6017 18.8131 18.1203 18.4573 17.7657C18.1015 17.411 17.6196 17.2121 17.1173 17.2125Z" fill="#BDD0EA"/>
</svg>
