<svg width="40" height="40" fill="none" xmlns="http://www.w3.org/2000/svg"><circle cx="20" cy="20" r="20" fill="#F0F5FF"/><path d="M28.4 28.28v-3c0-.84-.12-1.68-.6-2.52-.48-.84-1.08-1.56-1.92-2.04-.84-.6-2.64-.72-3.48-.72l-1.92 2.04.72 1.56v3.6L20 28.52l-1.2-1.32v-3.6l.84-1.56L17.6 20c-.96 0-2.76.12-3.6.72-.84.48-1.32 1.2-1.8 2.04-.48.84-.6 1.56-.6 2.52v3s3.12 1.32 8.4 1.32 8.4-1.32 8.4-1.32zM20 10.52c-2.28 0-3.6 2.16-3.24 4.56.36 2.4 1.56 4.08 3.24 4.08 1.68 0 2.88-1.68 3.24-4.08.36-2.52-.96-4.56-3.24-4.56z" fill="#BDD0EA"/></svg>