<svg width="40" height="40" viewBox="0 0 40 40" fill="none" xmlns="http://www.w3.org/2000/svg">
<circle cx="20" cy="20" r="20" fill="#F0F5FF"/>
<path fill-rule="evenodd" clip-rule="evenodd" d="M19.9999 28C21.445 28.0001 22.8632 27.6087 24.1037 26.8675C25.3442 26.1262 26.3608 25.0626 27.0454 23.7899C27.73 22.5171 28.0571 21.0827 27.9918 19.6389C27.9266 18.1952 27.4715 16.7961 26.675 15.5902L20.3154 22.6569C20.0184 22.987 19.6085 23.194 19.1665 23.2371C18.7245 23.2802 18.2824 23.1563 17.9271 22.8898L15.0224 20.7111C14.8339 20.5697 14.7092 20.3591 14.6759 20.1257C14.6425 19.8923 14.7032 19.6553 14.8447 19.4667C14.9861 19.2781 15.1967 19.1534 15.43 19.12C15.6634 19.0867 15.9005 19.1474 16.089 19.2889L18.9937 21.4676L25.523 14.2133C24.5772 13.3103 23.4243 12.653 22.1655 12.2989C20.9067 11.9447 19.5802 11.9047 18.3023 12.1821C17.0244 12.4596 15.834 13.0461 14.8353 13.8903C13.8366 14.7346 13.0601 15.8108 12.5738 17.0247C12.0875 18.2387 11.9061 19.5534 12.0457 20.8537C12.1852 22.154 12.6414 23.4003 13.3742 24.4834C14.1071 25.5665 15.0943 26.4534 16.2494 27.0665C17.4044 27.6795 18.6922 28.0001 19.9999 28Z" fill="#BDD0EA"/>
</svg>
