<svg width="40" height="40" fill="none" xmlns="http://www.w3.org/2000/svg"><circle cx="20" cy="20" r="20" fill="#F0F5FF"/><path d="M29 24.5c0 .38-.21.71-.53.88l-7.9 4.44c-.16.12-.36.18-.57.18-.21 0-.41-.06-.57-.18l-7.9-4.44a.99.99 0 01-.53-.88v-9c0-.38.21-.71.53-.88l7.9-4.44c.16-.12.36-.18.57-.18.21 0 .41.06.57.18l7.9 4.44c.32.17.53.5.53.88v9zM13 17v6h1.25v-2H15a2 2 0 000-4h-2zm1.25 3v-2h.5a1 1 0 010 2h-.5zm3.5-3v6H19v-2h.75l.66 2h1.32l-.79-2.39A2 2 0 0019.75 17h-2zM19 20v-2h.5a1 1 0 010 2H19zm6-3c-1.38 0-2.5 1.34-2.5 3s1.12 3 2.5 3 2.5-1.34 2.5-3-1.12-3-2.5-3zm0 1.25c.76 0 1.38.78 1.38 1.75s-.62 1.75-1.38 1.75c-.76 0-1.37-.78-1.37-1.75s.61-1.75 1.37-1.75z" fill="#BDD0EA"/></svg>