<svg width="156" height="170" fill="none" xmlns="http://www.w3.org/2000/svg"><path fill-rule="evenodd" clip-rule="evenodd" d="M45.379 143.493c12.846 8.703 28.865 10.544 48.058 5.523 19.246-5.034 32.339-14.491 39.277-28.371 6.977-13.948 7.57-31.994 1.778-54.136-5.779-22.087-15.069-37.4-27.872-45.938-12.803-8.538-28.855-10.283-48.155-5.234-19.246 5.035-32.36 14.41-39.342 28.124-6.927 13.7-7.502 31.593-1.724 53.68.15.575.303 1.144.458 1.71 1.017 3.707 5.325 5.252 8.581 3.209l13.608-8.536a5.938 5.938 0 001.901-8.144L30.171 66.259c-2.81-5.033-4.05-9.446-3.722-13.239.383-3.808 2.17-6.747 5.362-8.818 3.246-2.085 7.283-2.788 12.114-2.11l69.3 9.325c4.396.556 7.39 2.45 8.982 5.682 1.632 3.164 1.504 6.846-.384 11.047l-29.41 65.426c-1.356 2.944-3.403 4.891-6.14 5.843-2.685.937-5.413.828-8.186-.33-2.773-1.158-4.964-3.056-6.574-5.695l-11.927-19.368a5.938 5.938 0 00-8.211-1.916l-17.209 10.795c-2.765 1.735-3.636 5.4-1.687 8.02 3.81 5.118 8.11 9.309 12.9 12.572z" fill="#E6EEFF" fill-opacity=".6"/></svg>