<svg width="40" height="40" fill="none" xmlns="http://www.w3.org/2000/svg"><circle cx="20" cy="20" r="20" fill="#F0F5FF"/><path d="M30 16.162v.073c0 .86 0 1.291-.207 1.643-.207.352-.584.561-1.336.98l-.793.44c.546-1.848.729-3.834.796-5.532l.01-.221.002-.052c.651.226 1.017.395 1.245.711.283.393.283.915.283 1.958zm-20 0v.073c0 .86 0 1.291.207 1.643.207.352.584.561 1.336.98l.794.44c-.547-1.848-.73-3.834-.797-5.532l-.01-.221-.001-.052c-.652.226-1.018.395-1.246.711-.283.393-.283.916-.283 1.958z" fill="#BDD0EA"/><path fill-rule="evenodd" clip-rule="evenodd" d="M24.377 10.347A26.4 26.4 0 0020 10c-1.783 0-3.253.157-4.377.347-1.14.192-1.708.288-2.184.874-.475.586-.45 1.219-.4 2.485.173 4.348 1.11 9.78 6.21 10.26V27.5h-1.43a1 1 0 00-.98.804l-.19.946H14a.75.75 0 100 1.5h12a.75.75 0 100-1.5h-2.65l-.19-.946a1 1 0 00-.98-.804h-1.43v-3.534c5.1-.48 6.04-5.911 6.212-10.26.05-1.266.076-1.9-.4-2.485-.476-.586-1.045-.682-2.184-.874z" fill="#BDD0EA"/></svg>