<svg width="21" height="11" viewBox="0 0 21 11" fill="none" xmlns="http://www.w3.org/2000/svg">
<path d="M10.006 1.79544L18.733 10.2874C18.8033 10.3574 18.8868 10.4126 18.9786 10.4501C19.0704 10.4875 19.1688 10.5063 19.2679 10.5055C19.3671 10.5047 19.4651 10.4842 19.5563 10.4453C19.6475 10.4063 19.7301 10.3497 19.7992 10.2786C19.8684 10.2075 19.9228 10.1234 19.9592 10.0312C19.9957 9.93897 20.0135 9.84042 20.0116 9.74127C20.0097 9.64212 19.9882 9.54433 19.9482 9.45356C19.9083 9.36278 19.8508 9.28083 19.779 9.21244L10.529 0.21244C10.3889 0.0762179 10.2013 1.16988e-07 10.006 1.19318e-07C9.81061 1.21647e-07 9.62297 0.0762179 9.48295 0.21244L0.23295 9.21244C0.161137 9.28083 0.103601 9.36278 0.0636711 9.45356C0.0237408 9.54433 0.00220871 9.64212 0.000320435 9.74127C-0.00156784 9.84042 0.0162258 9.93897 0.0526733 10.0312C0.0891209 10.1234 0.143496 10.2075 0.212652 10.2786C0.281809 10.3497 0.364376 10.4063 0.455574 10.4453C0.546772 10.4842 0.644789 10.5047 0.743954 10.5055C0.843119 10.5063 0.941463 10.4875 1.03329 10.4501C1.12513 10.4126 1.20862 10.3574 1.27895 10.2874L10.006 1.79544Z" fill="#2161AB"/>
</svg>
