<svg width="14" height="14" viewBox="0 0 14 14" fill="none" xmlns="http://www.w3.org/2000/svg">
<path fill-rule="evenodd" clip-rule="evenodd" d="M0.21934 0.21934C0.359965 0.0788894 0.550589 0 0.74934 0C0.948091 0 1.13871 0.0788894 1.27934 0.21934L13.2793 12.2193C13.353 12.288 13.4121 12.3708 13.4531 12.4628C13.4941 12.5548 13.5162 12.6541 13.5179 12.7548C13.5197 12.8555 13.5012 12.9555 13.4635 13.0489C13.4257 13.1423 13.3696 13.2272 13.2984 13.2984C13.2272 13.3696 13.1423 13.4257 13.0489 13.4635C12.9555 13.5012 12.8555 13.5197 12.7548 13.5179C12.6541 13.5162 12.5548 13.4941 12.4628 13.4531C12.3708 13.4121 12.288 13.353 12.2193 13.2793L0.21934 1.27934C0.0788894 1.13871 0 0.948091 0 0.74934C0 0.550589 0.0788894 0.359965 0.21934 0.21934Z" fill="#7A90A3"/>
<path fill-rule="evenodd" clip-rule="evenodd" d="M13.2789 0.21934C13.4193 0.359965 13.4982 0.550589 13.4982 0.74934C13.4982 0.948091 13.4193 1.13871 13.2789 1.27934L1.27887 13.2793C1.1367 13.4118 0.948648 13.4839 0.754347 13.4805C0.560046 13.4771 0.374661 13.3984 0.237248 13.261C0.0998349 13.1235 0.0211232 12.9382 0.017695 12.7439C0.0142668 12.5496 0.0863897 12.3615 0.21887 12.2193L12.2189 0.21934C12.3595 0.0788894 12.5501 0 12.7489 0C12.9476 0 13.1382 0.0788894 13.2789 0.21934Z" fill="#7A90A3"/>
</svg>
