<svg width="24" height="24" viewBox="0 0 24 24" fill="none" xmlns="http://www.w3.org/2000/svg">
<path fill-rule="evenodd" clip-rule="evenodd" d="M5.66749 12.9271C4.35368 12.9271 3.28863 13.9922 3.28863 15.306C3.28863 16.6198 4.35368 17.6848 5.66749 17.6848C6.98131 17.6848 8.04635 16.6198 8.04635 15.306C8.04635 13.9922 6.98131 12.9271 5.66749 12.9271ZM13.0902 5.04184C13.3279 4.80287 13.7142 4.80179 13.9532 5.03945C14.1922 5.27711 14.1933 5.6635 13.9556 5.90246L11.9174 7.95986C11.6813 8.19723 11.2985 8.19981 11.0592 7.96693L10.0508 6.98401C9.80918 6.74903 9.80384 6.36264 10.0388 6.12104C10.2738 5.87945 10.6602 5.87411 10.9018 6.10909L11.4772 6.67L13.0902 5.04184ZM16.8628 9.37604C17.7556 9.06695 18.1646 7.80812 17.624 7.03323C17.3966 6.70726 17.3966 6.29439 17.624 5.96842C18.1646 5.19357 17.7556 3.9347 16.8628 3.62556C16.4872 3.49553 16.2445 3.16154 16.2369 2.76414C16.2189 1.81951 15.148 1.04143 14.244 1.31612C13.8637 1.43171 13.4711 1.30417 13.2313 0.987105C12.6615 0.233496 11.3378 0.233449 10.7679 0.987059C10.5282 1.30412 10.1355 1.43176 9.75523 1.31617C8.85124 1.04143 7.78034 1.81946 7.76229 2.76409C7.7547 3.1615 7.51207 3.49553 7.13642 3.62556C6.24359 3.93461 5.83451 5.19353 6.37512 5.96837C6.60256 6.29434 6.6026 6.70721 6.37516 7.03318C5.83451 7.80803 6.24354 9.06695 7.13637 9.37604C7.51198 9.50607 7.7547 9.84006 7.76229 10.2375C7.78034 11.1821 8.8512 11.9602 9.75518 11.6854C10.1355 11.5698 10.5281 11.6974 10.7679 12.0145C11.3378 12.7681 12.6615 12.7681 13.2313 12.0145C13.4711 11.6974 13.8637 11.5698 14.244 11.6854C15.148 11.9602 16.2189 11.1821 16.237 10.2375C16.2445 9.84006 16.4871 9.50607 16.8628 9.37604ZM11.9996 3.09067C10.1162 3.09067 8.5894 4.61748 8.5894 6.50082C8.5894 8.38417 10.1162 9.91098 11.9996 9.91098C13.8829 9.91098 15.4097 8.38417 15.4097 6.50082C15.4097 4.61743 13.8829 3.09067 11.9996 3.09067ZM7.27774 23.2232C7.46079 20.783 9.51467 18.8431 11.9996 18.8431C14.4845 18.8431 16.5384 20.783 16.7215 23.2232C16.7251 23.2685 16.7192 23.3142 16.7043 23.3572C16.6893 23.4002 16.6656 23.4396 16.6347 23.473C16.6037 23.5063 16.5662 23.5329 16.5244 23.551C16.4827 23.5691 16.4376 23.5784 16.3921 23.5782H7.60713C7.56161 23.5784 7.51655 23.5691 7.47479 23.551C7.43302 23.5329 7.39548 23.5063 7.36452 23.473C7.33356 23.4396 7.30986 23.4002 7.29492 23.3572C7.27999 23.3142 7.27414 23.2685 7.27774 23.2232ZM11.9996 13.4777C10.5862 13.4777 9.44037 14.6234 9.44037 16.0368C9.44037 17.4502 10.5861 18.596 11.9996 18.596C13.4129 18.596 14.5587 17.4502 14.5587 16.0368C14.5587 14.6234 13.413 13.4777 11.9996 13.4777ZM15.2581 19.1729C16.2796 19.9306 17.0333 21.035 17.3371 22.316H22.4146C22.4569 22.3162 22.4988 22.3076 22.5376 22.2908C22.5765 22.274 22.6114 22.2493 22.6401 22.2182C22.6689 22.1872 22.691 22.1506 22.7048 22.1106C22.7187 22.0706 22.7242 22.0282 22.7208 21.986C22.5506 19.7178 20.6415 17.9146 18.3316 17.9146C17.1388 17.9146 16.0529 18.3954 15.2581 19.1729ZM1.27831 21.986C1.27495 22.0282 1.28039 22.0706 1.29428 22.1106C1.30816 22.1506 1.3302 22.1872 1.35898 22.2183C1.38777 22.2493 1.42268 22.274 1.4615 22.2908C1.50033 22.3076 1.54222 22.3162 1.58454 22.316H6.66209C6.96588 21.035 7.71959 19.9306 8.74104 19.1729C7.94623 18.3954 6.86032 17.9146 5.66754 17.9146C3.35763 17.9146 1.44846 19.7178 1.27831 21.986ZM18.3316 12.9271C17.0178 12.9271 15.9528 13.9922 15.9528 15.306C15.9528 16.6198 17.0178 17.6848 18.3316 17.6848C19.6454 17.6848 20.7105 16.6198 20.7105 15.306C20.7105 13.9922 19.6454 12.9271 18.3316 12.9271Z" fill="#BDD0EA"/>
</svg>
