<svg width="24" height="24" viewBox="0 0 24 24" fill="none" xmlns="http://www.w3.org/2000/svg">
<path d="M18.75 6.00013H22.0575L18 1.94263V5.25013C18 5.44904 18.079 5.6398 18.2197 5.78046C18.3603 5.92111 18.5511 6.00013 18.75 6.00013Z" fill="#BDD0EA"/>
<path d="M18.75 7.5C18.1533 7.5 17.581 7.26295 17.159 6.84099C16.7371 6.41903 16.5 5.84674 16.5 5.25V1.5H8.25C7.65326 1.5 7.08097 1.73705 6.65901 2.15901C6.23705 2.58097 6 3.15326 6 3.75V6C7.15165 6.00272 8.27819 6.33682 9.24512 6.96241C10.212 7.58801 10.9785 8.47866 11.453 9.52803C11.9274 10.5774 12.0899 11.7412 11.9209 12.8804C11.7519 14.0195 11.2587 15.086 10.5 15.9525V21.75C10.5009 22.0061 10.4552 22.2603 10.365 22.5H20.25C20.8467 22.5 21.419 22.2629 21.841 21.841C22.2629 21.419 22.5 20.8467 22.5 20.25V7.5H18.75ZM11.25 6.75C11.25 6.55109 11.329 6.36032 11.4697 6.21967C11.6103 6.07902 11.8011 6 12 6H14.25C14.4489 6 14.6397 6.07902 14.7803 6.21967C14.921 6.36032 15 6.55109 15 6.75C15 6.94891 14.921 7.13968 14.7803 7.28033C14.6397 7.42098 14.4489 7.5 14.25 7.5H12C11.8011 7.5 11.6103 7.42098 11.4697 7.28033C11.329 7.13968 11.25 6.94891 11.25 6.75ZM18.75 18.75H12.75C12.5511 18.75 12.3603 18.671 12.2197 18.5303C12.079 18.3897 12 18.1989 12 18C12 17.8011 12.079 17.6103 12.2197 17.4697C12.3603 17.329 12.5511 17.25 12.75 17.25H18.75C18.9489 17.25 19.1397 17.329 19.2803 17.4697C19.421 17.6103 19.5 17.8011 19.5 18C19.5 18.1989 19.421 18.3897 19.2803 18.5303C19.1397 18.671 18.9489 18.75 18.75 18.75ZM18.75 15H14.25C14.0511 15 13.8603 14.921 13.7197 14.7803C13.579 14.6397 13.5 14.4489 13.5 14.25C13.5 14.0511 13.579 13.8603 13.7197 13.7197C13.8603 13.579 14.0511 13.5 14.25 13.5H18.75C18.9489 13.5 19.1397 13.579 19.2803 13.7197C19.421 13.8603 19.5 14.0511 19.5 14.25C19.5 14.4489 19.421 14.6397 19.2803 14.7803C19.1397 14.921 18.9489 15 18.75 15ZM18.75 11.25H14.25C14.0511 11.25 13.8603 11.171 13.7197 11.0303C13.579 10.8897 13.5 10.6989 13.5 10.5C13.5 10.3011 13.579 10.1103 13.7197 9.96967C13.8603 9.82902 14.0511 9.75 14.25 9.75H18.75C18.9489 9.75 19.1397 9.82902 19.2803 9.96967C19.421 10.1103 19.5 10.3011 19.5 10.5C19.5 10.6989 19.421 10.8897 19.2803 11.0303C19.1397 11.171 18.9489 11.25 18.75 11.25Z" fill="#BDD0EA"/>
<path d="M3 17.1899V21.7499C3.00074 21.898 3.04529 22.0425 3.12804 22.1653C3.21079 22.2881 3.32804 22.3837 3.465 22.4399C3.60158 22.4974 3.75212 22.5131 3.89761 22.485C4.0431 22.457 4.17703 22.3865 4.2825 22.2824L6 20.5574L7.7175 22.2824C7.78758 22.352 7.87069 22.4069 7.96207 22.4443C8.05345 22.4816 8.1513 22.5005 8.25 22.4999C8.34838 22.5025 8.44599 22.4819 8.535 22.4399C8.67196 22.3837 8.78921 22.2881 8.87196 22.1653C8.95471 22.0425 8.99926 21.898 9 21.7499V17.1899C8.08914 17.7202 7.05399 17.9996 6 17.9996C4.94601 17.9996 3.91086 17.7202 3 17.1899Z" fill="#BDD0EA"/>
<path d="M6 16.5C8.48528 16.5 10.5 14.4853 10.5 12C10.5 9.51472 8.48528 7.5 6 7.5C3.51472 7.5 1.5 9.51472 1.5 12C1.5 14.4853 3.51472 16.5 6 16.5Z" fill="#BDD0EA"/>
</svg>
