<svg width="24" height="24" viewBox="0 0 24 24" fill="none" xmlns="http://www.w3.org/2000/svg">
<path fill-rule="evenodd" clip-rule="evenodd" d="M11.9999 20C13.445 20.0001 14.8632 19.6087 16.1037 18.8675C17.3442 18.1262 18.3608 17.0626 19.0454 15.7899C19.73 14.5171 20.0571 13.0827 19.9918 11.6389C19.9266 10.1952 19.4715 8.79606 18.675 7.59022L12.3154 14.6569C12.0184 14.987 11.6085 15.194 11.1665 15.2371C10.7245 15.2802 10.2824 15.1563 9.92713 14.8898L7.02245 12.7111C6.83386 12.5697 6.70919 12.3591 6.67585 12.1257C6.64251 11.8923 6.70324 11.6553 6.84468 11.4667C6.98612 11.2781 7.19668 11.1534 7.43004 11.12C7.66341 11.0867 7.90045 11.1474 8.08904 11.2889L10.9937 13.4676L17.523 6.21333C16.5772 5.31032 15.4243 4.65298 14.1655 4.29886C12.9067 3.94475 11.5802 3.90466 10.3023 4.18211C9.02442 4.45956 7.83401 5.04608 6.83532 5.89032C5.83664 6.73457 5.06013 7.81078 4.5738 9.02475C4.08747 10.2387 3.90613 11.5534 4.04568 12.8537C4.18523 14.154 4.64139 15.4003 5.37424 16.4834C6.10709 17.5665 7.09428 18.4534 8.24936 19.0665C9.40444 19.6795 10.6922 20.0001 11.9999 20Z" fill="#BDD0EA"/>
</svg>
