<svg width="18" height="25" fill="none" xmlns="http://www.w3.org/2000/svg"><path d="M13.175 7.83a4.675 4.675 0 00-4.67 4.67 4.675 4.675 0 004.67 4.67 4.675 4.675 0 004.668-4.67 4.675 4.675 0 00-4.668-4.67zm0 1.465c.596 0 1.18.166 1.686.482l-4.409 4.41A3.185 3.185 0 019.97 12.5a3.208 3.208 0 013.205-3.205zm0 6.41a3.191 3.191 0 01-1.687-.482l4.41-4.41a3.208 3.208 0 01-2.723 4.892zM4.062 1.986h.115c.234.285.63.473 1.077.473h2.974c.448 0 .844-.188 1.077-.473h.115v4.96h1.465V1.254a.732.732 0 00-.732-.733h-.807C9.12.206 8.704 0 8.228 0H5.254c-.475 0-.891.206-1.118.52H3.33a.732.732 0 00-.733.733v5.693h1.465v-4.96z" fill="#BDD0EA"/><path d="M12.905 18.633a6.141 6.141 0 01-6.134-6.136c0-1.567.591-3 1.562-4.085h-5.74C1.055 8.412 0 9.665 0 11.204v9.753a2.795 2.795 0 002.591 2.785v.525a.733.733 0 101.465 0v-.517h5.37v.517a.733.733 0 101.466 0v-.525a2.795 2.795 0 002.59-2.785v-2.352a6.11 6.11 0 01-.577.027z" fill="#BDD0EA"/></svg>