<svg width="20" height="19" fill="none" xmlns="http://www.w3.org/2000/svg"><path d="M13.24 7.434a3.47 3.47 0 00-3.46-3.46 3.47 3.47 0 00-3.46 3.46 3.47 3.47 0 003.46 3.46 3.47 3.47 0 003.46-3.46zM8.512 8.702a.571.571 0 010-.819l.461-.46-.461-.462a.571.571 0 010-.82c.23-.23.588-.23.819 0l.46.462.462-.461c.23-.23.588-.23.82 0 .23.23.23.588 0 .819l-.462.461.461.461c.23.231.23.589 0 .82a.571.571 0 01-.819 0l-.461-.462-.461.461a.571.571 0 01-.82 0z" fill="#2161AB"/><path d="M2.86 18.967H16.7a2.883 2.883 0 002.884-2.884V8.01c0-.9-.427-1.765-1.154-2.307l-1.153-.865V4.55a2.883 2.883 0 00-2.883-2.883H12.87L11.591.64a2.849 2.849 0 00-3.598 0l-1.28 1.027H5.19A2.883 2.883 0 002.307 4.55v.288l-1.154.865A2.923 2.923 0 000 8.01v8.073a2.884 2.884 0 002.883 2.884H2.86zM16.7 16.66h-4.613a.571.571 0 01-.577-.577c0-.322.254-.576.577-.576h4.614c.322 0 .576.254.576.576a.571.571 0 01-.576.577zm0-3.46c.323 0 .577.254.577.577a.571.571 0 01-.576.576h-2.307a.571.571 0 01-.577-.576c0-.323.254-.577.577-.577H16.7zM3.438 4.55c0-.957.773-1.73 1.73-1.73h9.227c.957 0 1.73.773 1.73 1.73v4.832l-5.57 2.78a1.734 1.734 0 01-1.546 0l-5.571-2.78V4.55z" fill="#2161AB"/></svg>