<svg width="27" height="20" fill="none" xmlns="http://www.w3.org/2000/svg"><path d="M0 2.333A2.334 2.334 0 012.333 0h18a2.334 2.334 0 012.334 2.333v11.334A2.333 2.333 0 0120.333 16h-18A2.333 2.333 0 010 13.667V2.333zm4-.666V3a1 1 0 01-1 1H1.667v2H3a3 3 0 003-3V1.667H4zm7.333 9.666a3 3 0 100-6 3 3 0 000 6zM1.667 12H3a1 1 0 011 1v1.333h2V13a3 3 0 00-3-3H1.667v2zm17 1a1 1 0 011-1H21v-2h-1.333a3 3 0 00-3 3v1.333h2V13zm0-10V1.667h-2V3a3.001 3.001 0 003 3H21V4h-1.333a1 1 0 01-1-1zM3.2 18a4 4 0 003.466 2h13.666a6.333 6.333 0 006.334-6.333v-7a4 4 0 00-2-3.466v10.466A4.334 4.334 0 0120.333 18H3.201z" fill="#BDD0EA"/></svg>