<svg width="24" height="24" fill="none" xmlns="http://www.w3.org/2000/svg"><path d="M19.078 16.734a2.698 2.698 0 01-2.695-2.695 2.698 2.698 0 012.695-2.695 2.698 2.698 0 012.695 2.695 2.698 2.698 0 01-2.695 2.695zm-14.156 0a2.698 2.698 0 01-2.695-2.695 2.698 2.698 0 012.695-2.695 2.698 2.698 0 012.695 2.695 2.698 2.698 0 01-2.695 2.695zM16.687 1.875A2.318 2.318 0 0114.604.587l-.1-.198A.703.703 0 0013.876 0h-3.75a.703.703 0 00-.629.389l-.099.198a2.318 2.318 0 01-2.085 1.288.703.703 0 00-.703.703V6.59a7.23 7.23 0 001.44 4.347 7.229 7.229 0 003.749 2.627c.132.04.272.04.404 0a7.23 7.23 0 003.75-2.627A7.229 7.229 0 0017.39 6.59V2.578a.703.703 0 00-.703-.703zm-2.201 4.093L11.834 8.62a.701.701 0 01-.994 0L9.514 7.294a.703.703 0 01.995-.994l.828.828 2.155-2.154a.703.703 0 11.994.994zm7.467 10.993a4.088 4.088 0 01-2.875 1.18 4.088 4.088 0 01-2.879-1.183 4.927 4.927 0 00-1.037 1.008l.386.339a5.392 5.392 0 011.843 4.054V24h5.906a.703.703 0 00.703-.703v-2.344a4.918 4.918 0 00-2.047-3.992zm-19.906 0A4.919 4.919 0 000 20.953v2.344c0 .388.315.703.703.703H6.61v-1.64a5.39 5.39 0 011.843-4.055l.386-.339a4.926 4.926 0 00-1.037-1.009 4.088 4.088 0 01-2.88 1.184 4.088 4.088 0 01-2.874-1.18zm12.574 2.402a3.622 3.622 0 01-5.242 0 3.975 3.975 0 00-1.363 2.996V24h7.968v-1.64a3.975 3.975 0 00-1.363-2.997zM12 19.078a2.23 2.23 0 01-2.227-2.226A2.23 2.23 0 0112 14.625a2.23 2.23 0 012.227 2.227A2.23 2.23 0 0112 19.078z" fill="#2161AB"/></svg>