<svg width="20" height="20" fill="none" xmlns="http://www.w3.org/2000/svg"><path fill-rule="evenodd" clip-rule="evenodd" d="M0 10C0 4.477 4.477 0 10 0s10 4.477 10 10-4.477 10-10 10S0 15.523 0 10zm7-4a1.5 1.5 0 00-1.5 1.5v.01A1.5 1.5 0 007 9.01h.01a1.5 1.5 0 001.5-1.5V7.5A1.5 1.5 0 007.01 6H7zm6 0a1.5 1.5 0 00-1.5 1.5v.01a1.5 1.5 0 001.5 1.5h.01a1.5 1.5 0 001.5-1.5V7.5a1.5 1.5 0 00-1.5-1.5H13zm-5.966 8.866a.999.999 0 01-.364-1.367A5 5 0 0111 11a1 1 0 010 2 3 3 0 00-2.6 1.5 1 1 0 01-1.366.366z" fill="#BDD0EA"/></svg>