<svg width="40" height="40" fill="none" xmlns="http://www.w3.org/2000/svg"><circle cx="20" cy="20" r="20" fill="#F0F5FF"/><path d="M30.005 16.31a2.272 2.272 0 00-1.785-.863h-.42l.225-1.274a.746.746 0 00-.61-.87l-5.621-.982a.75.75 0 00-.868.608l-.449 2.518h-.764l.474-2.647a1.489 1.489 0 011.733-1.215l2.992.525-.352-1.988a.747.747 0 00-.87-.607l-7.53 1.312a.74.74 0 00-.488.308.789.789 0 00-.127.562l.656 3.75h-1.496l-.645-2.797a.74.74 0 00-.728-.578H10.25a.752.752 0 00-.75.75c0 .413.338.75.75.75h2.482l2.356 10.2a2.266 2.266 0 002.227 1.763h9.622c1.073 0 1.988-.72 2.228-1.763l1.275-5.542a2.24 2.24 0 00-.435-1.92zm-4.402 6.345h-6.736a.752.752 0 01-.75-.75c0-.42.338-.75.75-.75h6.735c.42 0 .75.33.75.75 0 .412-.33.75-.75.75zm1.687-3.045H17.18a.752.752 0 01-.75-.75c0-.42.337-.75.75-.75h10.11c.413 0 .75.33.75.75 0 .412-.337.75-.75.75zm-9.656 7.105a1.897 1.897 0 00-1.898 1.892 1.897 1.897 0 003.795 0 1.897 1.897 0 00-1.897-1.892zm8.983 0a1.897 1.897 0 00-1.897 1.892 1.897 1.897 0 003.795 0 1.896 1.896 0 00-1.898-1.892z" fill="#BDD0EA"/></svg>