<svg width="40" height="40" fill="none" xmlns="http://www.w3.org/2000/svg"><circle cx="20" cy="20" r="20" fill="#F0F5FF"/><path d="M26.75 14h3.308L26 9.943v3.307a.75.75 0 00.75.75z" fill="#BDD0EA"/><path d="M26.75 15.5a2.25 2.25 0 01-2.25-2.25V9.5h-8.25A2.25 2.25 0 0014 11.75V14a6 6 0 014.5 9.953v5.797c0 .256-.045.51-.135.75h9.885a2.25 2.25 0 002.25-2.25V15.5h-3.75zm-7.5-.75A.75.75 0 0120 14h2.25a.75.75 0 110 1.5H20a.75.75 0 01-.75-.75zm7.5 12h-6a.75.75 0 110-1.5h6a.75.75 0 110 1.5zm0-3.75h-4.5a.75.75 0 110-1.5h4.5a.75.75 0 110 1.5zm0-3.75h-4.5a.75.75 0 110-1.5h4.5a.75.75 0 110 1.5z" fill="#BDD0EA"/><path d="M11 25.19v4.56a.75.75 0 00.465.69.749.749 0 00.818-.158L14 28.557l1.717 1.725a.75.75 0 001.155-.117.75.75 0 00.128-.415v-4.56a5.963 5.963 0 01-6 0zm3-.69a4.5 4.5 0 100-9 4.5 4.5 0 000 9z" fill="#BDD0EA"/></svg>