<svg width="40" height="40" fill="none" xmlns="http://www.w3.org/2000/svg"><circle cx="20" cy="20" r="20" fill="#F0F5FF"/><path fill-rule="evenodd" clip-rule="evenodd" d="M13.668 20.927a2.379 2.379 0 100 4.758 2.379 2.379 0 000-4.758zm7.423-7.885a.61.61 0 01.865.86l-2.038 2.058a.61.61 0 01-.858.007l-1.009-.983a.61.61 0 11.851-.875l.576.561 1.613-1.628zm3.772 4.334c.893-.31 1.302-1.568.762-2.343a.916.916 0 010-1.065c.54-.774.131-2.033-.762-2.342a.916.916 0 01-.626-.862c-.018-.944-1.088-1.723-1.992-1.448a.916.916 0 01-1.013-.329c-.57-.754-1.894-.754-2.464 0a.916.916 0 01-1.012.33c-.904-.276-1.975.502-1.993 1.447a.916.916 0 01-.626.862c-.893.309-1.302 1.568-.761 2.342a.916.916 0 010 1.065c-.541.775-.132 2.034.76 2.343.377.13.62.464.627.861.018.945 1.089 1.723 1.993 1.448a.916.916 0 011.012.33c.57.753 1.894.753 2.464 0a.916.916 0 011.012-.33c.904.275 1.975-.503 1.994-1.447a.916.916 0 01.625-.862zM20 11.091a3.41 3.41 0 100 6.82 3.41 3.41 0 000-6.82zm-4.722 20.132c.183-2.44 2.237-4.38 4.722-4.38 2.485 0 4.539 1.94 4.722 4.38a.33.33 0 01-.33.355h-8.784a.329.329 0 01-.33-.355zM20 21.478a2.56 2.56 0 100 5.118 2.56 2.56 0 000-5.118zm3.259 5.695a5.501 5.501 0 012.079 3.143h5.077a.306.306 0 00.306-.33 4.416 4.416 0 00-4.389-4.071c-1.193 0-2.279.48-3.073 1.258zm-13.98 2.813a.306.306 0 00.306.33h5.078a5.501 5.501 0 012.078-3.143 4.386 4.386 0 00-3.073-1.258 4.416 4.416 0 00-4.39 4.071zm17.053-9.059a2.379 2.379 0 100 4.758 2.379 2.379 0 000-4.758z" fill="#BDD0EA"/></svg>