<svg width="40" height="40" fill="none" xmlns="http://www.w3.org/2000/svg"><circle cx="20" cy="20" r="20" fill="#F0F5FF"/><path d="M13.04 16.12a3.04 3.04 0 100-6.08 3.04 3.04 0 000 6.08zM26.92 30a3.04 3.04 0 100-6.082 3.04 3.04 0 000 6.082z" fill="#BDD0EA"/><path d="M26.12 14.242v9.236a3.581 3.581 0 011.51-.02v-9.216A4.2 4.2 0 0023.466 10a4.196 4.196 0 00-4.238 4.16v11.641a2.697 2.697 0 01-2.694 2.694h-.039a2.696 2.696 0 01-2.69-2.694V16.57c-.495.11-1.01.11-1.509.004v9.224a4.206 4.206 0 004.2 4.203h.038a4.21 4.21 0 004.203-4.203V14.242a2.694 2.694 0 012.659-2.725 2.694 2.694 0 012.725 2.659v.066z" fill="#BDD0EA"/></svg>