<svg width="40" height="40" fill="none" xmlns="http://www.w3.org/2000/svg"><circle cx="20" cy="20" r="20" fill="#F0F5FF"/><path d="M28.11 13.395l-7.47-3.32a.813.813 0 00-.68 0l-7.47 3.32a.82.82 0 00-.49.755v4.897a12.473 12.473 0 007.395 11.38l.565.248a.811.811 0 00.68 0l.565-.249A12.474 12.474 0 0028.6 19.047V14.15a.82.82 0 00-.49-.755zm-6.15 5.735a2.49 2.49 0 110 4.98h-.83v.83a.83.83 0 01-1.66 0v-.83h-2.49a.83.83 0 110-1.66h2.49v-1.66h-.83a2.49 2.49 0 010-4.98h.83v-.83a.83.83 0 111.66 0v.83h2.49a.83.83 0 110 1.66h-2.49v1.66h.83z" fill="#BDD0EA"/><path d="M22.79 21.62a.832.832 0 01-.83.83h-.83v-1.66h.83a.832.832 0 01.83.83zm-3.32-4.15v1.66h-.83a.83.83 0 010-1.66h.83z" fill="#BDD0EA"/></svg>