<svg width="40" height="40" fill="none" xmlns="http://www.w3.org/2000/svg"><circle cx="20" cy="20" r="20" fill="#F0F5FF"/><path d="M30.422 23.752L28.471 21.8l-4.038 4.037a4.895 4.895 0 01-2.608 1.367l2.573 2.572a.603.603 0 00.853 0l5.171-5.17a.603.603 0 000-.854zm-2.746-2.864c.68-.68.68-1.787 0-2.468l-.002-.002a1.745 1.745 0 00-.578-.384c.185-.47.224-1.263-.39-1.877l-.005-.005a1.743 1.743 0 00-.575-.38c.185-.47.225-1.263-.39-1.877v-.001a1.743 1.743 0 00-.58-.385c.186-.47.225-1.263-.39-1.877a1.747 1.747 0 00-2.469 0l-1.144 1.143.585.585a2.504 2.504 0 01-1.17 4.197 2.485 2.485 0 01-.66 1.17c-.327.327-.73.552-1.168.66a2.485 2.485 0 01-.66 1.168c-.328.328-.73.553-1.17.66a2.484 2.484 0 01-.66 1.17c-.472.472-1.1.732-1.768.732-.668 0-1.296-.26-1.768-.732l-.585-.585-1.952 1.952a.603.603 0 000 .853l5.17 5.171a.604.604 0 00.854 0l3.702-3.701h1.043a3.7 3.7 0 002.634-1.091l4.096-4.096z" fill="#BDD0EA"/><path d="M13.567 21.531a1.294 1.294 0 101.83-1.83 1.293 1.293 0 101.83-1.829 1.294 1.294 0 001.828-1.829 1.294 1.294 0 001.83-1.83l-2.58-2.579a1.293 1.293 0 10-1.829 1.83l.323.323a1.293 1.293 0 10-1.829 1.83l.646.646a1.294 1.294 0 00-1.829 1.829l.646.646a1.294 1.294 0 00-1.83 1.83l.964.963zm7.877-10.754a3.02 3.02 0 01.282-.247l-.353-.353a.603.603 0 00-.697-.113l-1.49.744 1.114 1.114 1.144-1.145z" fill="#BDD0EA"/></svg>