<svg xmlns="http://www.w3.org/2000/svg" width="94" height="24" fill="none"><path fill="#2161ab" d="M30.81 4.062q3.418-.852 5.661.682 2.244 1.533 3.219 5.445.978 3.923-.282 6.372-1.254 2.437-4.663 3.286-3.4.848-5.65-.715-.84-.585-1.501-1.498c-.226-.31-.119-.741.21-.942l2.039-1.247a.7.7 0 01.964.237l1.378 2.296q.28.47.767.68t.963.05q.486-.163.73-.68l3.552-7.663q.342-.738.06-1.3-.275-.575-1.05-.681L29.06 7.192q-.85-.13-1.43.232-.567.36-.642 1.03-.066.67.42 1.564l1.36 2.268a.7.7 0 01-.235.956l-1.613.986a.67.67 0 01-1.006-.39l-.052-.201q-.975-3.912.276-6.317 1.261-2.408 4.67-3.258"/><g clip-path="url(#a)"><path fill="#2f2f31" d="M21.538 3.885c.301 0 .546.244.546.545v15.206a.546.546 0 01-.546.546h-2.392a.546.546 0 01-.546-.546V11.16c0-.51-.643-.746-.977-.36a186 186 0 01-2.384 2.7 628 628 0 00-1.88 2.12.6.6 0 01-.885 0q-.576-.65-1.88-2.1-1.373-1.544-2.36-2.7c-.333-.39-.98-.156-.98.356v8.46a.546.546 0 01-.546.546H4.295a.546.546 0 01-.545-.546V4.43c0-.3.244-.545.545-.545h2.707c.16 0 .311.07.415.191l5.086 5.964a.545.545 0 00.829 0l5.105-5.964a.55.55 0 01.414-.191zm33.954.315a.55.55 0 01.495-.315h3.136c.399 0 .663.413.495.775l-7.051 15.206a.55.55 0 01-.495.316h-3.134a.55.55 0 01-.494-.316L41.374 4.66a.545.545 0 01.494-.775h3.156c.212 0 .405.123.495.315l4.492 9.662c.195.42.793.42.989 0zm19.172 12.478c.301 0 .546.244.546.545v2.413a.546.546 0 01-.546.546H62.168a.546.546 0 01-.546-.546V4.43c0-.3.244-.545.546-.545h2.412c.301 0 .546.244.546.545v11.702c0 .301.244.546.545.546zm10.028-12.56a.55.55 0 01.447-.233h3.19c.445 0 .703.504.442.865l-6.42 8.872a.55.55 0 00-.104.32v5.694a.546.546 0 01-.546.546h-2.636a.546.546 0 01-.546-.546v-5.695a.55.55 0 00-.103-.32L72.014 4.75a.545.545 0 01.442-.865h3.192c.178 0 .345.087.447.233l3.851 5.522a.545.545 0 00.895 0z"/></g><defs><clipPath id="a"><path fill="#fff" d="M3.75 3.498h86.182v16.909H3.75z"/></clipPath></defs></svg>