<svg width="680" height="284" viewBox="0 0 680 284" fill="none" xmlns="http://www.w3.org/2000/svg">
<g opacity="0.4">
<path d="M-35.5704 -63.7651C-27.2367 -68.5109 -19.6236 -69.6676 -12.6977 -67.3235C-5.76274 -64.9761 0.44217 -59.0662 5.89238 -49.4957C11.1849 -40.202 13.1726 -32.009 11.9372 -24.8933L11.8072 -24.2079C10.3296 -16.984 5.48135 -10.9992 -2.82711 -6.26771C-10.8529 -1.69733 -18.2439 -0.51385 -25.0322 -2.63995L-25.6876 -2.85555C-28.2928 -3.76585 -30.7921 -5.16575 -33.1858 -7.05907C-34.2238 -7.88027 -34.2904 -9.42957 -33.3569 -10.4342L-26.6541 -17.6463C-25.7184 -18.6533 -24.1413 -18.7045 -23.1421 -17.7606L-15.129 -10.19C-13.9848 -9.09994 -12.6429 -8.4471 -11.1131 -8.24134C-9.6732 -8.04773 -8.35961 -8.30863 -7.19055 -9.02992L-6.95897 -9.17978C-5.69475 -10.0381 -4.92761 -11.309 -4.64629 -12.9512L-4.64605 -12.9547L0.916203 -47.2755C1.28621 -49.5617 0.876478 -51.439 -0.39021 -52.8316C-1.65096 -54.266 -3.4362 -54.7972 -5.659 -54.4938L-5.65815 -54.4943L-39.2708 -50.1657L-39.27 -50.1662C-41.6861 -49.8692 -43.5873 -49.0015 -44.9261 -47.5295L-44.9273 -47.5277C-46.2442 -46.0664 -46.7477 -44.3431 -46.4297 -42.3927L-46.4285 -42.3866C-46.0869 -40.4588 -44.8938 -38.4783 -42.9179 -36.445L-42.9118 -36.4383L-42.9054 -36.433L-34.9937 -28.9575C-34.0061 -28.0244 -33.9552 -26.4694 -34.8801 -25.4743L-40.181 -19.7708C-41.2761 -18.5923 -43.1605 -18.7652 -43.9567 -20.1256C-44.0994 -20.3695 -44.2417 -20.6162 -44.3833 -20.8649C-49.8334 -30.4353 -51.7631 -38.7811 -50.2669 -45.9299L-50.2655 -45.9296C-48.7479 -53.0822 -43.8805 -59.0326 -35.5704 -63.7651Z" stroke="#2161AB" stroke-width="0.806956"/>
<path d="M-14.2638 15.752C-5.93001 11.0061 1.68301 9.84949 8.60891 12.1936C15.5439 14.541 21.7488 20.4509 27.199 30.0214C32.4915 39.3151 34.4793 47.5081 33.2439 54.6238L33.1139 55.3091C31.6363 62.5331 26.788 68.5179 18.4795 73.2494C10.4538 77.8198 3.0627 79.0032 -3.72551 76.8771L-4.38098 76.6615C-6.98614 75.7512 -9.48545 74.3513 -11.8791 72.458C-12.9172 71.6368 -12.9838 70.0875 -12.0503 69.0829L-5.34747 61.8708C-4.41175 60.8637 -2.83463 60.8126 -1.83544 61.7565L6.17763 69.3271C7.32182 70.4171 8.6637 71.07 10.1935 71.2757C11.6334 71.4694 12.947 71.2085 14.1161 70.4872L14.3477 70.3373C15.6119 69.479 16.379 68.2081 16.6603 66.5659L16.6606 66.5624L22.2228 32.2416C22.5929 29.9554 22.1831 28.0781 20.9164 26.6855C19.6557 25.2511 17.8704 24.7199 15.6476 25.0233L15.6485 25.0228L-17.9642 29.3514L-17.9633 29.3509C-20.3795 29.6479 -22.2807 30.5156 -23.6194 31.9875L-23.6206 31.9894C-24.9376 33.4507 -25.441 35.174 -25.123 37.1244L-25.1218 37.1305C-24.7802 39.0583 -23.5872 41.0387 -21.6112 43.0721L-21.6052 43.0788L-21.5988 43.0841L-13.687 50.5596C-12.6995 51.4927 -12.6486 53.0477 -13.5735 54.0428L-18.8743 59.7462C-19.9695 60.9248 -21.8538 60.7519 -22.6501 59.3915C-22.7928 59.1476 -22.9351 58.9009 -23.0767 58.6522C-28.5268 49.0818 -30.4565 40.736 -28.9602 33.5872L-28.9589 33.5875C-27.4412 26.4349 -22.5739 20.4845 -14.2638 15.752Z" stroke="#2161AB" stroke-width="0.806956"/>
<path d="M58.9896 -3.87638C67.3234 -8.62228 74.9364 -9.77893 81.8623 -7.43485C88.7973 -5.08745 95.0022 0.822498 100.452 10.393C105.745 19.6867 107.733 27.8797 106.497 34.9953L106.367 35.6807C104.89 42.9047 100.041 48.8895 91.7329 53.621C83.7072 58.1913 76.3161 59.3748 69.5279 57.2487L68.8724 57.0331C66.2673 56.1228 63.768 54.7229 61.3743 52.8296C60.3362 52.0084 60.2696 50.4591 61.2031 49.4545L67.9059 42.2424C68.8417 41.2353 70.4188 41.1842 71.418 42.1281L79.4311 49.6986C80.5752 50.7887 81.9171 51.4416 83.447 51.6473C84.8869 51.8409 86.2004 51.58 87.3695 50.8588L87.6011 50.7089C88.8653 49.8506 89.6324 48.5797 89.9138 46.9375L89.914 46.934L95.4763 12.6132C95.8463 10.327 95.4365 8.44968 94.1698 7.05709C92.9091 5.62268 91.1239 5.09149 88.9011 5.39484L88.9019 5.39436L55.2892 9.723L55.2901 9.72251C52.8739 10.0194 50.9727 10.8872 49.634 12.3591L49.6328 12.3609C48.3159 13.8223 47.8124 15.5455 48.1304 17.496L48.1316 17.5021C48.4732 19.4299 49.6663 21.4103 51.6422 23.4437L51.6482 23.4504L51.6547 23.4557L59.5664 30.9311C60.5539 31.8643 60.6048 33.4193 59.6799 34.4143L54.3791 40.1178C53.2839 41.2963 51.3996 41.1235 50.6033 39.7631C50.4606 39.5192 50.3183 39.2725 50.1767 39.0238C44.7266 29.4534 42.7969 21.1075 44.2932 13.9587L44.2945 13.9591C45.8122 6.80644 50.6795 0.856084 58.9896 -3.87638Z" stroke="#2161AB" stroke-width="0.806956"/>
<path d="M132.244 -23.5043C140.577 -28.2502 148.19 -29.4069 155.116 -27.0628C162.051 -24.7154 168.256 -18.8054 173.706 -9.23493C178.999 0.0587306 180.987 8.25179 179.751 15.3674L179.621 16.0528C178.144 23.2768 173.295 29.2616 164.987 33.993C156.961 38.5634 149.57 39.7469 142.782 37.6208L142.126 37.4052C139.521 36.4949 137.022 35.095 134.628 33.2017C133.59 32.3805 133.524 30.8312 134.457 29.8266L141.16 22.6144C142.096 21.6074 143.673 21.5562 144.672 22.5002L152.685 30.0707C153.829 31.1608 155.171 31.8136 156.701 32.0194C158.141 32.213 159.454 31.9521 160.623 31.2308L160.855 31.081C162.119 30.2227 162.886 28.9517 163.168 27.3095L163.168 27.306L168.73 -7.01472C169.1 -9.30096 168.69 -11.1783 167.424 -12.5708C166.163 -14.0052 164.378 -14.5364 162.155 -14.2331L162.156 -14.2336L128.543 -9.90493L128.544 -9.90542C126.128 -9.60849 124.227 -8.74077 122.888 -7.2688L122.887 -7.26699C121.57 -5.80567 121.066 -4.08238 121.384 -2.13193L121.385 -2.12587C121.727 -0.198059 122.92 1.7824 124.896 3.81577L124.902 3.82245L124.909 3.82778L132.82 11.3032C133.808 12.2364 133.859 13.7914 132.934 14.7864L127.633 20.4899C126.538 21.6684 124.654 21.4955 123.857 20.1351C123.715 19.8912 123.572 19.6445 123.431 19.3959C117.981 9.82542 116.051 1.4796 117.547 -5.66919L117.548 -5.66882C119.066 -12.8215 123.933 -18.7718 132.244 -23.5043Z" stroke="#2161AB" stroke-width="0.806956"/>
<path d="M205.497 -43.1327C213.831 -47.8786 221.444 -49.0353 228.37 -46.6912C235.305 -44.3438 241.51 -38.4338 246.96 -28.8633C252.252 -19.5697 254.24 -11.3766 253.005 -4.26101L252.875 -3.57562C251.397 3.64833 246.549 9.63315 238.24 14.3646C230.215 18.935 222.823 20.1185 216.035 17.9924L215.38 17.7768C212.775 16.8665 210.275 15.4666 207.882 13.5733C206.844 12.7521 206.777 11.2028 207.71 10.1981L214.413 2.98601C215.349 1.97898 216.926 1.92782 217.925 2.87175L225.938 10.4423C227.083 11.5324 228.424 12.1852 229.954 12.391C231.394 12.5846 232.708 12.3237 233.877 11.6024L234.108 11.4525C235.373 10.5943 236.14 9.32331 236.421 7.68113L236.421 7.67762L241.984 -26.6431C242.354 -28.9294 241.944 -30.8067 240.677 -32.1993C239.416 -33.6337 237.631 -34.1649 235.408 -33.8615L235.409 -33.862L201.797 -29.5334L201.797 -29.5338C199.381 -29.2369 197.48 -28.3692 196.141 -26.8972L196.14 -26.8954C194.823 -25.4341 194.32 -23.7108 194.638 -21.7603L194.639 -21.7543C194.981 -19.8265 196.174 -17.846 198.15 -15.8126L198.156 -15.806L198.162 -15.8006L206.074 -8.3252C207.061 -7.39205 207.112 -5.83707 206.187 -4.842L200.886 0.861482C199.791 2.03999 197.907 1.8671 197.111 0.506707C196.968 0.262805 196.826 0.0161131 196.684 -0.232559C191.234 -9.803 189.304 -18.1488 190.801 -25.2976L190.802 -25.2972C192.32 -32.4499 197.187 -38.4003 205.497 -43.1327Z" stroke="#2161AB" stroke-width="0.806956"/>
<path d="M278.75 -62.7612C287.084 -67.507 294.697 -68.6637 301.623 -66.3196C308.558 -63.9722 314.763 -58.0623 320.213 -48.4918C325.506 -39.1981 327.493 -31.005 326.258 -23.8894L326.128 -23.204C324.65 -15.9801 319.802 -9.99527 311.494 -5.2638C303.468 -0.693426 296.077 0.490056 289.289 -1.63604L288.633 -1.85164C286.028 -2.76195 283.529 -4.16184 281.135 -6.05517C280.097 -6.87636 280.03 -8.42566 280.964 -9.43028L287.667 -16.6424C288.602 -17.6494 290.18 -17.7006 291.179 -16.7567L299.192 -9.18612C300.336 -8.09604 301.678 -7.4432 303.208 -7.23744C304.648 -7.04383 305.961 -7.30473 307.13 -8.02601L307.362 -8.17587C308.626 -9.03416 309.393 -10.3051 309.675 -11.9473L309.675 -11.9508L315.237 -46.2716C315.607 -48.5578 315.197 -50.4351 313.931 -51.8277C312.67 -53.2621 310.885 -53.7933 308.662 -53.4899L308.663 -53.4904L275.05 -49.1618L275.051 -49.1623C272.635 -48.8653 270.733 -47.9976 269.395 -46.5256L269.394 -46.5238C268.077 -45.0625 267.573 -43.3392 267.891 -41.3888L267.892 -41.3827C268.234 -39.4549 269.427 -37.4744 271.403 -35.4411L271.409 -35.4344L271.415 -35.4291L279.327 -27.9536C280.315 -27.0205 280.366 -25.4655 279.441 -24.4704L274.14 -18.7669C273.045 -17.5884 271.16 -17.7613 270.364 -19.1217C270.221 -19.3656 270.079 -19.6123 269.937 -19.861C264.487 -29.4314 262.558 -37.7772 264.054 -44.926L264.055 -44.9257C265.573 -52.0783 270.44 -58.0287 278.75 -62.7612Z" stroke="#2161AB" stroke-width="0.806956"/>
<path d="M7.04234 95.2691C15.3761 90.5232 22.9892 89.3666 29.9151 91.7107C36.85 94.0581 43.055 99.968 48.5052 109.539C53.7977 118.832 55.7854 127.025 54.55 134.141L54.42 134.826C52.9424 142.05 48.0941 148.035 39.7857 152.766C31.7599 157.337 24.3689 158.52 17.5806 156.394L16.9252 156.179C14.32 155.268 11.8207 153.868 9.42701 151.975C8.38898 151.154 8.32238 149.605 9.25587 148.6L15.9587 141.388C16.8944 140.381 18.4715 140.33 19.4707 141.274L27.4838 148.844C28.628 149.934 29.9698 150.587 31.4997 150.793C32.9396 150.986 34.2532 150.726 35.4222 150.004L35.6538 149.854C36.918 148.996 37.6852 147.725 37.9665 146.083L37.9667 146.079L43.529 111.759C43.899 109.472 43.4893 107.595 42.2226 106.203C40.9618 104.768 39.1766 104.237 36.9538 104.54L36.9546 104.54L3.34196 108.869L3.34281 108.868C0.926649 109.165 -0.974531 110.033 -2.31326 111.505L-2.31448 111.506C-3.63141 112.968 -4.13489 114.691 -3.81688 116.642L-3.81568 116.648C-3.47409 118.575 -2.281 120.556 -0.305066 122.589L-0.29902 122.596L-0.292608 122.601L7.6191 130.077C8.60665 131.01 8.65757 132.565 7.73268 133.56L2.43184 139.263C1.33668 140.442 -0.54766 140.269 -1.34392 138.909C-1.48663 138.665 -1.62892 138.418 -1.77053 138.169C-7.22063 128.599 -9.15033 120.253 -7.65409 113.104L-7.65275 113.105C-6.13509 105.952 -1.26772 100.002 7.04234 95.2691Z" stroke="#2161AB" stroke-width="0.806956"/>
<path d="M80.2963 75.6407C88.63 70.8948 96.2431 69.7382 103.169 72.0822C110.104 74.4296 116.309 80.3396 121.759 89.9101C127.052 99.2038 129.039 107.397 127.804 114.512L127.674 115.198C126.196 122.422 121.348 128.407 113.04 133.138C105.014 137.708 97.6228 138.892 90.8345 136.766L90.1791 136.55C87.5739 135.64 85.0746 134.24 82.6809 132.347C81.6429 131.525 81.5763 129.976 82.5098 128.972L89.2126 121.759C90.1483 120.752 91.7254 120.701 92.7246 121.645L100.738 129.216C101.882 130.306 103.224 130.959 104.754 131.164C106.193 131.358 107.507 131.097 108.676 130.376L108.908 130.226C110.172 129.368 110.939 128.097 111.22 126.455L111.221 126.451L116.783 92.1303C117.153 89.8441 116.743 87.9668 115.476 86.5742C114.216 85.1398 112.431 84.6086 110.208 84.9119L110.209 84.9114L76.5959 89.2401L76.5967 89.2396C74.1806 89.5365 72.2794 90.4042 70.9406 91.8762L70.9394 91.878C69.6225 93.3393 69.119 95.0626 69.437 97.0131L69.4382 97.0191C69.7798 98.947 70.9729 100.927 72.9488 102.961L72.9549 102.967L72.9613 102.973L80.873 110.448C81.8606 111.381 81.9115 112.936 80.9866 113.931L75.6857 119.635C74.5906 120.813 72.7062 120.641 71.91 119.28C71.7673 119.036 71.625 118.79 71.4834 118.541C66.0333 108.97 64.1036 100.625 65.5998 93.4758L65.6012 93.4762C67.1188 86.3235 71.9862 80.3732 80.2963 75.6407Z" stroke="#2161AB" stroke-width="0.806956"/>
<path d="M153.55 56.0128C161.883 51.2669 169.496 50.1102 176.422 52.4543C183.357 54.8017 189.562 60.7117 195.012 70.2822C200.305 79.5758 202.293 87.7689 201.057 94.8845L200.927 95.5699C199.45 102.794 194.601 108.779 186.293 113.51C178.267 118.08 170.876 119.264 164.088 117.138L163.432 116.922C160.827 116.012 158.328 114.612 155.934 112.719C154.896 111.898 154.83 110.348 155.763 109.344L162.466 102.132C163.402 101.124 164.979 101.073 165.978 102.017L173.991 109.588C175.135 110.678 176.477 111.331 178.007 111.536C179.447 111.73 180.761 111.469 181.93 110.748L182.161 110.598C183.425 109.74 184.193 108.469 184.474 106.827L184.474 106.823L190.036 72.5024C190.406 70.2161 189.997 68.3388 188.73 66.9462C187.469 65.5118 185.684 64.9807 183.461 65.284L183.462 65.2835L149.849 69.6122L149.85 69.6117C147.434 69.9086 145.533 70.7763 144.194 72.2483L144.193 72.2501C142.876 73.7114 142.372 75.4347 142.69 77.3852L142.692 77.3912C143.033 79.319 144.226 81.2995 146.202 83.3329L146.208 83.3395L146.215 83.3449L154.126 90.8203C155.114 91.7535 155.165 93.3084 154.24 94.3035L148.939 100.007C147.844 101.185 145.96 101.013 145.163 99.6522C145.021 99.4083 144.878 99.1616 144.737 98.9129C139.287 89.3425 137.357 80.9967 138.853 73.8479L138.855 73.8483C140.372 66.6956 145.24 60.7452 153.55 56.0128Z" stroke="#2161AB" stroke-width="0.806956"/>
<path d="M226.804 36.3844C235.137 31.6385 242.75 30.4818 249.676 32.8259C256.611 35.1733 262.816 41.0832 268.266 50.6537C273.559 59.9474 275.547 68.1405 274.311 75.2561L274.181 75.9415C272.704 83.1654 267.855 89.1502 259.547 93.8817C251.521 98.4521 244.13 99.6356 237.342 97.5095L236.686 97.2939C234.081 96.3836 231.582 94.9837 229.188 93.0903C228.15 92.2691 228.084 90.7198 229.017 89.7152L235.72 82.5031C236.656 81.4961 238.233 81.4449 239.232 82.3888L247.245 89.9594C248.389 91.0495 249.731 91.7023 251.261 91.9081C252.701 92.1017 254.014 91.8408 255.183 91.1195L255.415 90.9696C256.679 90.1113 257.446 88.8404 257.728 87.1982L257.728 87.1947L263.29 52.874C263.66 50.5877 263.251 48.7104 261.984 47.3178C260.723 45.8834 258.938 45.3522 256.715 45.6556L256.716 45.6551L223.103 49.9837L223.104 49.9833C220.688 50.2802 218.787 51.1479 217.448 52.6199L217.447 52.6217C216.13 54.083 215.626 55.8063 215.944 57.7567L215.946 57.7628C216.287 59.6906 217.48 61.6711 219.456 63.7044L219.462 63.7111L219.469 63.7165L227.38 71.1919C228.368 72.125 228.419 73.68 227.494 74.6751L222.193 80.3786C221.098 81.5571 219.214 81.3842 218.417 80.0238C218.275 79.7799 218.132 79.5332 217.991 79.2845C212.541 69.7141 210.611 61.3683 212.107 54.2195L212.108 54.2199C213.626 47.0672 218.494 41.1168 226.804 36.3844Z" stroke="#2161AB" stroke-width="0.806956"/>
<path d="M300.057 16.7559C308.391 12.01 316.004 10.8534 322.93 13.1975C329.865 15.5449 336.07 21.4548 341.52 31.0253C346.812 40.319 348.8 48.512 347.565 55.6277L347.435 56.313C345.957 63.537 341.109 69.5218 332.8 74.2533C324.775 78.8237 317.384 80.0071 310.595 77.8811L309.94 77.6654C307.335 76.7551 304.835 75.3553 302.442 73.4619C301.404 72.6407 301.337 71.0914 302.271 70.0868L308.973 62.8747C309.909 61.8677 311.486 61.8165 312.485 62.7604L320.498 70.331C321.643 71.4211 322.984 72.0739 324.514 72.2797C325.954 72.4733 327.268 72.2124 328.437 71.4911L328.668 71.3412C329.933 70.4829 330.7 69.212 330.981 67.5698L330.981 67.5663L336.544 33.2455C336.914 30.9593 336.504 29.082 335.237 27.6894C333.976 26.255 332.191 25.7238 329.968 26.0272L329.969 26.0267L296.357 30.3553L296.357 30.3548C293.941 30.6518 292.04 31.5195 290.701 32.9914L290.7 32.9933C289.383 34.4546 288.88 36.1779 289.198 38.1283L289.199 38.1344C289.541 40.0622 290.734 42.0426 292.71 44.076L292.716 44.0827L292.722 44.088L300.634 51.5635C301.621 52.4966 301.672 54.0516 300.747 55.0467L295.446 60.7502C294.351 61.9287 292.467 61.7558 291.671 60.3954C291.528 60.1515 291.386 59.9048 291.244 59.6561C285.794 50.0857 283.864 41.7399 285.361 34.5911L285.362 34.5914C286.88 27.4388 291.747 21.4884 300.057 16.7559Z" stroke="#2161AB" stroke-width="0.806956"/>
<path d="M373.31 -2.87248C381.644 -7.61837 389.257 -8.77502 396.183 -6.43094C403.118 -4.08354 409.323 1.8264 414.773 11.3969C420.066 20.6906 422.053 28.8836 420.818 35.9992L420.688 36.6846C419.21 43.9086 414.362 49.8934 406.054 54.6249C398.028 59.1952 390.637 60.3787 383.849 58.2526L383.193 58.037C380.588 57.1267 378.089 55.7268 375.695 53.8335C374.657 53.0123 374.59 51.463 375.524 50.4584L382.227 43.2463C383.162 42.2392 384.74 42.1881 385.739 43.132L393.752 50.7026C394.896 51.7926 396.238 52.4455 397.768 52.6512C399.208 52.8448 400.521 52.5839 401.69 51.8627L401.922 51.7128C403.186 50.8545 403.953 49.5836 404.235 47.9414L404.235 47.9379L409.797 13.6171C410.167 11.3309 409.757 9.45358 408.491 8.061C407.23 6.62659 405.445 6.0954 403.222 6.39875L403.223 6.39826L369.61 10.7269L369.611 10.7264C367.195 11.0233 365.294 11.8911 363.955 13.363L363.954 13.3648C362.637 14.8262 362.133 16.5495 362.451 18.4999L362.452 18.506C362.794 20.4338 363.987 22.4142 365.963 24.4476L365.969 24.4543L365.975 24.4596L373.887 31.9351C374.875 32.8682 374.926 34.4232 374.001 35.4182L368.7 41.1217C367.605 42.3002 365.72 42.1274 364.924 40.767C364.781 40.5231 364.639 40.2764 364.498 40.0277C359.047 30.4573 357.118 22.1114 358.614 14.9626L358.615 14.963C360.133 7.81035 365 1.85999 373.31 -2.87248Z" stroke="#2161AB" stroke-width="0.806956"/>
<path d="M446.564 -22.5004C454.898 -27.2463 462.511 -28.403 469.437 -26.0589C476.372 -23.7115 482.577 -17.8015 488.027 -8.23102C493.32 1.06264 495.307 9.2557 494.072 16.3713L493.942 17.0567C492.464 24.2807 487.616 30.2655 479.308 34.9969C471.282 39.5673 463.891 40.7508 457.103 38.6247L456.447 38.4091C453.842 37.4988 451.343 36.0989 448.949 34.2056C447.911 33.3844 447.844 31.8351 448.778 30.8305L455.481 23.6183C456.416 22.6113 457.993 22.5601 458.993 23.5041L467.006 31.0746C468.15 32.1647 469.492 32.8175 471.022 33.0233C472.462 33.2169 473.775 32.956 474.944 32.2347L475.176 32.0849C476.44 31.2266 477.207 29.9556 477.488 28.3135L477.489 28.3099L483.051 -6.01081C483.421 -8.29706 483.011 -10.1743 481.745 -11.5669C480.484 -13.0013 478.699 -13.5325 476.476 -13.2292L476.477 -13.2297L442.864 -8.90103L442.865 -8.90151C440.449 -8.60458 438.547 -7.73687 437.209 -6.2649L437.207 -6.26308C435.891 -4.80177 435.387 -3.07848 435.705 -1.12802L435.706 -1.12197C436.048 0.805848 437.241 2.7863 439.217 4.81968L439.223 4.82635L439.229 4.83169L447.141 12.3071C448.129 13.2403 448.18 14.7953 447.255 15.7903L441.954 21.4938C440.859 22.6723 438.974 22.4994 438.178 21.139C438.035 20.8951 437.893 20.6484 437.751 20.3998C432.301 10.8293 430.372 2.48351 431.868 -4.66528L431.869 -4.66492C433.387 -11.8176 438.254 -17.7679 446.564 -22.5004Z" stroke="#2161AB" stroke-width="0.806956"/>
<path d="M519.818 -42.1288C528.152 -46.8747 535.765 -48.0314 542.69 -45.6873C549.625 -43.3399 555.83 -37.4299 561.281 -27.8594C566.573 -18.5658 568.561 -10.3727 567.325 -3.25711L567.195 -2.57172C565.718 4.65224 560.87 10.6371 552.561 15.3685C544.535 19.9389 537.144 21.1224 530.356 18.9963L529.701 18.7807C527.095 17.8704 524.596 16.4705 522.202 14.5772C521.164 13.756 521.098 12.2067 522.031 11.202L528.734 3.98991C529.67 2.98289 531.247 2.93173 532.246 3.87566L540.259 11.4462C541.403 12.5363 542.745 13.1891 544.275 13.3949C545.715 13.5885 547.029 13.3276 548.198 12.6063L548.429 12.4565C549.693 11.5982 550.461 10.3272 550.742 8.68504L550.742 8.68152L556.304 -25.6392C556.674 -27.9255 556.265 -29.8028 554.998 -31.1954C553.737 -32.6298 551.952 -33.1609 549.729 -32.8576L549.73 -32.8581L516.117 -28.5294L516.118 -28.5299C513.702 -28.233 511.801 -27.3653 510.462 -25.8933L510.461 -25.8915C509.144 -24.4302 508.64 -22.7069 508.959 -20.7564L508.96 -20.7504C509.301 -18.8226 510.494 -16.8421 512.47 -14.8087L512.476 -14.8021L512.483 -14.7967L520.394 -7.3213C521.382 -6.38815 521.433 -4.83316 520.508 -3.8381L515.207 1.86539C514.112 3.04389 512.228 2.87101 511.431 1.51061C511.289 1.26671 511.146 1.02002 511.005 0.771347C505.555 -8.79909 503.625 -17.1449 505.121 -24.2937L505.123 -24.2933C506.64 -31.446 511.508 -37.3964 519.818 -42.1288Z" stroke="#2161AB" stroke-width="0.806956"/>
<path d="M593.071 -61.7568C601.405 -66.5026 609.018 -67.6593 615.944 -65.3152C622.879 -62.9678 629.084 -57.0579 634.534 -47.4874C639.826 -38.1937 641.814 -30.0007 640.579 -22.885L640.449 -22.1996C638.971 -14.9757 634.123 -8.99087 625.814 -4.25941C617.789 0.310968 610.398 1.49445 603.609 -0.631645L602.954 -0.847249C600.349 -1.75755 597.85 -3.15744 595.456 -5.05077C594.418 -5.87197 594.351 -7.42127 595.285 -8.42589L601.987 -15.638C602.923 -16.645 604.5 -16.6962 605.5 -15.7523L613.513 -8.18173C614.657 -7.09164 615.999 -6.4388 617.529 -6.23304C618.968 -6.03943 620.282 -6.30033 621.451 -7.02162L621.683 -7.17147C622.947 -8.02977 623.714 -9.30072 623.995 -10.9429L623.996 -10.9464L629.558 -45.2672C629.928 -47.5534 629.518 -49.4307 628.251 -50.8233C626.991 -52.2577 625.205 -52.7889 622.983 -52.4855L622.983 -52.486L589.371 -48.1574L589.372 -48.1579C586.955 -47.8609 585.054 -46.9932 583.716 -45.5212L583.714 -45.5194C582.397 -44.0581 581.894 -42.3348 582.212 -40.3844L582.213 -40.3783C582.555 -38.4505 583.748 -36.47 585.724 -34.4367L585.73 -34.43L585.736 -34.4247L593.648 -26.9492C594.635 -26.0161 594.686 -24.4611 593.761 -23.466L588.461 -17.7625C587.365 -16.584 585.481 -16.7569 584.685 -18.1173C584.542 -18.3612 584.4 -18.6079 584.258 -18.8566C578.808 -28.427 576.878 -36.7728 578.375 -43.9216L578.376 -43.9213C579.894 -51.0739 584.761 -57.0243 593.071 -61.7568Z" stroke="#2161AB" stroke-width="0.806956"/>
<path d="M-44.9044 194.414C-36.5706 189.668 -28.9576 188.512 -22.0317 190.856C-15.0967 193.203 -8.89181 199.113 -3.44161 208.684C1.85091 217.977 3.83865 226.17 2.60324 233.286L2.47323 233.971C0.995649 241.195 -3.85264 247.18 -12.1611 251.911C-20.1868 256.482 -27.5779 257.665 -34.3661 255.539L-35.0216 255.324C-37.6268 254.413 -40.1261 253.013 -42.5198 251.12C-43.5578 250.299 -43.6244 248.75 -42.6909 247.745L-35.9881 240.533C-35.0524 239.526 -33.4753 239.475 -32.4761 240.419L-24.463 247.989C-23.3188 249.079 -21.9769 249.732 -20.4471 249.938C-19.0072 250.131 -17.6936 249.871 -16.5245 249.149L-16.293 248.999C-15.0287 248.141 -14.2616 246.87 -13.9803 245.228L-13.98 245.224L-8.41778 210.904C-8.04777 208.617 -8.45751 206.74 -9.72419 205.348C-10.9849 203.913 -12.7702 203.382 -14.993 203.685L-14.9921 203.685L-48.6048 208.014L-48.604 208.013C-51.0201 208.31 -52.9213 209.178 -54.26 210.65L-54.2613 210.651C-55.5782 212.113 -56.0817 213.836 -55.7637 215.787L-55.7625 215.793C-55.4209 217.72 -54.2278 219.701 -52.2518 221.734L-52.2458 221.741L-52.2394 221.746L-44.3277 229.222C-43.3401 230.155 -43.2892 231.71 -44.2141 232.705L-49.5149 238.408C-50.6101 239.587 -52.4944 239.414 -53.2907 238.054C-53.4334 237.81 -53.5757 237.563 -53.7173 237.314C-59.1674 227.744 -61.0971 219.398 -59.6009 212.249L-59.5995 212.25C-58.0819 205.097 -53.2145 199.147 -44.9044 194.414Z" stroke="#2161AB" stroke-width="0.806956"/>
<path d="M28.349 174.786C36.6828 170.04 44.2958 168.884 51.2217 171.228C58.1567 173.575 64.3616 179.485 69.8118 189.056C75.1043 198.349 77.0921 206.542 75.8567 213.658L75.7266 214.343C74.2491 221.567 69.4008 227.552 61.0923 232.284C53.0666 236.854 45.6755 238.037 38.8873 235.911L38.2318 235.696C35.6267 234.785 33.1273 233.386 30.7337 231.492C29.6956 230.671 29.629 229.122 30.5625 228.117L37.2653 220.905C38.201 219.898 39.7782 219.847 40.7773 220.791L48.7904 228.361C49.9346 229.451 51.2765 230.104 52.8063 230.31C54.2462 230.504 55.5598 230.243 56.7289 229.521L56.9605 229.371C58.2247 228.513 58.9918 227.242 59.2731 225.6L59.2734 225.597L64.8356 191.276C65.2056 188.99 64.7959 187.112 63.5292 185.72C62.2685 184.285 60.4832 183.754 58.2604 184.057L58.2613 184.057L24.6486 188.386L24.6494 188.385C22.2333 188.682 20.3321 189.55 18.9934 191.022L18.9922 191.024C17.6752 192.485 17.1717 194.208 17.4898 196.159L17.491 196.165C17.8326 198.092 19.0256 200.073 21.0016 202.106L21.0076 202.113L21.014 202.118L28.9257 209.594C29.9133 210.527 29.9642 212.082 29.0393 213.077L23.7385 218.78C22.6433 219.959 20.759 219.786 19.9627 218.426C19.82 218.182 19.6777 217.935 19.5361 217.686C14.086 208.116 12.1563 199.77 13.6526 192.621L13.6539 192.622C15.1716 185.469 20.0389 179.519 28.349 174.786Z" stroke="#2161AB" stroke-width="0.806956"/>
<path d="M101.602 155.158C109.936 150.412 117.549 149.255 124.475 151.599C131.41 153.947 137.615 159.857 143.065 169.427C148.358 178.721 150.345 186.914 149.11 194.03L148.98 194.715C147.502 201.939 142.654 207.924 134.346 212.655C126.32 217.226 118.929 218.409 112.141 216.283L111.485 216.067C108.88 215.157 106.381 213.757 103.987 211.864C102.949 211.043 102.882 209.493 103.816 208.489L110.519 201.277C111.454 200.27 113.032 200.218 114.031 201.162L122.044 208.733C123.188 209.823 124.53 210.476 126.06 210.682C127.5 210.875 128.813 210.614 129.982 209.893L130.214 209.743C131.478 208.885 132.245 207.614 132.527 205.972L132.527 205.968L138.089 171.647C138.459 169.361 138.049 167.484 136.783 166.091C135.522 164.657 133.737 164.126 131.514 164.429L131.515 164.429L97.902 168.757L97.9029 168.757C95.4867 169.054 93.5855 169.921 92.2468 171.393L92.2456 171.395C90.9286 172.856 90.4252 174.58 90.7432 176.53L90.7444 176.536C91.086 178.464 92.2791 180.445 94.255 182.478L94.261 182.485L94.2675 182.49L102.179 189.965C103.167 190.898 103.218 192.453 102.293 193.449L96.9919 199.152C95.8967 200.331 94.0124 200.158 93.2161 198.797C93.0734 198.553 92.9311 198.307 92.7895 198.058C87.3394 188.488 85.4097 180.142 86.906 172.993L86.9073 172.993C88.425 165.841 93.2923 159.89 101.602 155.158Z" stroke="#2161AB" stroke-width="0.806956"/>
<path d="M174.856 135.529C183.19 130.783 190.803 129.627 197.729 131.971C204.664 134.318 210.869 140.228 216.319 149.799C221.612 159.092 223.599 167.285 222.364 174.401L222.234 175.086C220.756 182.31 215.908 188.295 207.6 193.027C199.574 197.597 192.183 198.781 185.395 196.654L184.739 196.439C182.134 195.529 179.635 194.129 177.241 192.235C176.203 191.414 176.136 189.865 177.07 188.86L183.773 181.648C184.708 180.641 186.285 180.59 187.285 181.534L195.298 189.104C196.442 190.194 197.784 190.847 199.314 191.053C200.754 191.247 202.067 190.986 203.236 190.265L203.468 190.115C204.732 189.256 205.499 187.985 205.78 186.343L205.781 186.34L211.343 152.019C211.713 149.733 211.303 147.855 210.037 146.463C208.776 145.028 206.991 144.497 204.768 144.801L204.769 144.8L171.156 149.129L171.157 149.128C168.741 149.425 166.839 150.293 165.501 151.765L165.499 151.767C164.183 153.228 163.679 154.951 163.997 156.902L163.998 156.908C164.34 158.836 165.533 160.816 167.509 162.849L167.515 162.856L167.521 162.861L175.433 170.337C176.421 171.27 176.472 172.825 175.547 173.82L170.246 179.524C169.151 180.702 167.266 180.529 166.47 179.169C166.327 178.925 166.185 178.678 166.043 178.43C160.593 168.859 158.664 160.513 160.16 153.365L160.161 153.365C161.679 146.212 166.546 140.262 174.856 135.529Z" stroke="#2161AB" stroke-width="0.806956"/>
<path d="M248.11 115.901C256.444 111.156 264.057 109.999 270.983 112.343C277.918 114.69 284.123 120.6 289.573 130.171C294.866 139.464 296.853 147.658 295.618 154.773L295.488 155.459C294.01 162.683 289.162 168.667 280.854 173.399C272.828 177.969 265.437 179.153 258.649 177.027L257.993 176.811C255.388 175.901 252.889 174.501 250.495 172.607C249.457 171.786 249.39 170.237 250.324 169.232L257.027 162.02C257.962 161.013 259.539 160.962 260.539 161.906L268.552 169.476C269.696 170.567 271.038 171.219 272.568 171.425C274.007 171.619 275.321 171.358 276.49 170.637L276.722 170.487C277.986 169.628 278.753 168.357 279.034 166.715L279.035 166.712L284.597 132.391C284.967 130.105 284.557 128.228 283.29 126.835C282.03 125.401 280.244 124.869 278.022 125.173L278.023 125.172L244.41 129.501L244.411 129.5C241.995 129.797 240.093 130.665 238.755 132.137L238.753 132.139C237.436 133.6 236.933 135.323 237.251 137.274L237.252 137.28C237.594 139.208 238.787 141.188 240.763 143.222L240.769 143.228L240.775 143.234L248.687 150.709C249.675 151.642 249.725 153.197 248.801 154.192L243.5 159.896C242.405 161.074 240.52 160.901 239.724 159.541C239.581 159.297 239.439 159.05 239.297 158.802C233.847 149.231 231.918 140.885 233.414 133.737L233.415 133.737C234.933 126.584 239.8 120.634 248.11 115.901Z" stroke="#2161AB" stroke-width="0.806956"/>
<path d="M321.364 96.273C329.697 91.5271 337.31 90.3705 344.236 92.7146C351.171 95.062 357.376 100.972 362.826 110.542C368.119 119.836 370.107 128.029 368.871 135.145L368.741 135.83C367.264 143.054 362.415 149.039 354.107 153.77C346.081 158.341 338.69 159.524 331.902 157.398L331.246 157.183C328.641 156.272 326.142 154.872 323.748 152.979C322.71 152.158 322.644 150.609 323.577 149.604L330.28 142.392C331.216 141.385 332.793 141.334 333.792 142.278L341.805 149.848C342.949 150.938 344.291 151.591 345.821 151.797C347.261 151.99 348.574 151.729 349.744 151.008L349.975 150.858C351.239 150 352.006 148.729 352.288 147.087L352.288 147.083L357.85 112.763C358.22 110.476 357.811 108.599 356.544 107.207C355.283 105.772 353.498 105.241 351.275 105.544L351.276 105.544L317.663 109.872L317.664 109.872C315.248 110.169 313.347 111.037 312.008 112.509L312.007 112.51C310.69 113.972 310.186 115.695 310.504 117.645L310.506 117.651C310.847 119.579 312.04 121.56 314.016 123.593L314.022 123.6L314.029 123.605L321.94 131.081C322.928 132.014 322.979 133.569 322.054 134.564L316.753 140.267C315.658 141.446 313.774 141.273 312.977 139.912C312.835 139.669 312.692 139.422 312.551 139.173C307.101 129.603 305.171 121.257 306.667 114.108L306.669 114.109C308.186 106.956 313.054 101.005 321.364 96.273Z" stroke="#2161AB" stroke-width="0.806956"/>
<path d="M394.617 76.6451C402.951 71.8992 410.564 70.7426 417.49 73.0866C424.425 75.434 430.63 81.344 436.08 90.9145C441.372 100.208 443.36 108.401 442.125 115.517L441.995 116.202C440.517 123.426 435.669 129.411 427.36 134.142C419.335 138.713 411.944 139.896 405.155 137.77L404.5 137.555C401.895 136.644 399.395 135.244 397.002 133.351C395.964 132.53 395.897 130.981 396.831 129.976L403.533 122.764C404.469 121.757 406.046 121.706 407.045 122.65L415.058 130.22C416.203 131.31 417.545 131.963 419.074 132.169C420.514 132.362 421.828 132.102 422.997 131.38L423.229 131.23C424.493 130.372 425.26 129.101 425.541 127.459L425.541 127.455L431.104 93.1347C431.474 90.8485 431.064 88.9712 429.797 87.5786C428.537 86.1442 426.751 85.613 424.528 85.9163L424.529 85.9158L390.917 90.2445L390.918 90.244C388.501 90.5409 386.6 91.4086 385.261 92.8806L385.26 92.8824C383.943 94.3437 383.44 96.067 383.758 98.0175L383.759 98.0235C384.101 99.9514 385.294 101.932 387.27 103.965L387.276 103.972L387.282 103.977L395.194 111.453C396.181 112.386 396.232 113.941 395.307 114.936L390.007 120.639C388.911 121.818 387.027 121.645 386.231 120.285C386.088 120.041 385.946 119.794 385.804 119.545C380.354 109.975 378.424 101.629 379.921 94.4802L379.922 94.4806C381.44 87.3279 386.307 81.3776 394.617 76.6451Z" stroke="#2161AB" stroke-width="0.806956"/>
<path d="M467.87 57.0167C476.204 52.2708 483.817 51.1141 490.743 53.4582C497.678 55.8056 503.883 61.7156 509.333 71.2861C514.626 80.5797 516.614 88.7728 515.378 95.8884L515.248 96.5738C513.771 103.798 508.922 109.783 500.614 114.514C492.588 119.084 485.197 120.268 478.409 118.142L477.753 117.926C475.148 117.016 472.649 115.616 470.255 113.723C469.217 112.901 469.151 111.352 470.084 110.348L476.787 103.135C477.723 102.128 479.3 102.077 480.299 103.021L488.312 110.592C489.456 111.682 490.798 112.335 492.328 112.54C493.768 112.734 495.081 112.473 496.25 111.752L496.482 111.602C497.746 110.744 498.513 109.473 498.795 107.831L498.795 107.827L504.357 73.5063C504.727 71.22 504.317 69.3427 503.051 67.9502C501.79 66.5157 500.005 65.9846 497.782 66.2879L497.783 66.2874L464.17 70.6161L464.171 70.6156C461.755 70.9125 459.854 71.7802 458.515 73.2522L458.514 73.254C457.197 74.7153 456.693 76.4386 457.011 78.3891L457.012 78.3951C457.354 80.3229 458.547 82.3034 460.523 84.3368L460.529 84.3434L460.536 84.3488L468.447 91.8242C469.435 92.7574 469.486 94.3123 468.561 95.3074L463.26 101.011C462.165 102.189 460.28 102.017 459.484 100.656C459.341 100.412 459.199 100.166 459.058 99.9169C453.607 90.3464 451.678 82.0006 453.174 74.8518L453.175 74.8522C454.693 67.6995 459.56 61.7492 467.87 57.0167Z" stroke="#2161AB" stroke-width="0.806956"/>
<path d="M541.124 37.3883C549.458 32.6424 557.071 31.4857 563.997 33.8298C570.932 36.1772 577.137 42.0871 582.587 51.6576C587.88 60.9513 589.867 69.1444 588.632 76.26L588.502 76.9454C587.024 84.1693 582.176 90.1541 573.868 94.8856C565.842 99.456 558.451 100.639 551.663 98.5134L551.007 98.2978C548.402 97.3875 545.903 95.9876 543.509 94.0942C542.471 93.273 542.404 91.7237 543.338 90.7191L550.041 83.507C550.976 82.5 552.554 82.4488 553.553 83.3927L561.566 90.9633C562.71 92.0534 564.052 92.7062 565.582 92.912C567.022 93.1056 568.335 92.8447 569.504 92.1234L569.736 91.9735C571 91.1153 571.767 89.8443 572.049 88.2021L572.049 88.1986L577.611 53.8779C577.981 51.5916 577.571 49.7143 576.305 48.3217C575.044 46.8873 573.259 46.3561 571.036 46.6595L571.037 46.659L537.424 50.9876L537.425 50.9872C535.009 51.2841 533.108 52.1518 531.769 53.6238L531.768 53.6256C530.451 55.0869 529.947 56.8102 530.265 58.7606L530.266 58.7667C530.608 60.6945 531.801 62.675 533.777 64.7084L533.783 64.715L533.789 64.7204L541.701 72.1958C542.689 73.1289 542.74 74.6839 541.815 75.679L536.514 81.3825C535.419 82.561 533.534 82.3881 532.738 81.0277C532.595 80.7838 532.453 80.5371 532.311 80.2884C526.861 70.718 524.932 62.3722 526.428 55.2234L526.429 55.2238C527.947 48.0711 532.814 42.1207 541.124 37.3883Z" stroke="#2161AB" stroke-width="0.806956"/>
<path d="M614.378 17.7603C622.712 13.0144 630.325 11.8578 637.251 14.2019C644.185 16.5493 650.39 22.4592 655.841 32.0297C661.133 41.3234 663.121 49.5164 661.885 56.6321L661.755 57.3174C660.278 64.5414 655.43 70.5262 647.121 75.2577C639.095 79.8281 631.704 81.0115 624.916 78.8854L624.261 78.6698C621.655 77.7595 619.156 76.3596 616.762 74.4663C615.724 73.6451 615.658 72.0958 616.591 71.0912L623.294 63.8791C624.23 62.872 625.807 62.8209 626.806 63.7648L634.819 71.3354C635.963 72.4254 637.305 73.0783 638.835 73.284C640.275 73.4777 641.589 73.2168 642.758 72.4955L642.989 72.3456C644.253 71.4873 645.021 70.2164 645.302 68.5742L645.302 68.5707L650.864 34.2499C651.234 31.9637 650.825 30.0864 649.558 28.6938C648.297 27.2594 646.512 26.7282 644.289 27.0316L644.29 27.0311L610.677 31.3597L610.678 31.3592C608.262 31.6562 606.361 32.5239 605.022 33.9958L605.021 33.9977C603.704 35.459 603.201 37.1823 603.519 39.1327L603.52 39.1388C603.861 41.0666 605.054 43.047 607.03 45.0804L607.036 45.0871L607.043 45.0924L614.955 52.5679C615.942 53.501 615.993 55.056 615.068 56.0511L609.767 61.7545C608.672 62.9331 606.788 62.7602 605.992 61.3998C605.849 61.1559 605.707 60.9092 605.565 60.6605C600.115 51.0901 598.185 42.7443 599.681 35.5955L599.683 35.5958C601.2 28.4432 606.068 22.4928 614.378 17.7603Z" stroke="#2161AB" stroke-width="0.806956"/>
<path d="M687.632 -1.86808C695.965 -6.61398 703.579 -7.77063 710.504 -5.42655C717.439 -3.07915 723.644 2.8308 729.095 12.4013C734.387 21.695 736.375 29.888 735.139 37.0036L735.009 37.689C733.532 44.913 728.683 50.8978 720.375 55.6293C712.349 60.1996 704.958 61.3831 698.17 59.257L697.515 59.0414C694.909 58.1311 692.41 56.7312 690.016 54.8379C688.978 54.0167 688.912 52.4674 689.845 51.4628L696.548 44.2507C697.484 43.2436 699.061 43.1925 700.06 44.1364L708.073 51.7069C709.217 52.797 710.559 53.4499 712.089 53.6556C713.529 53.8492 714.843 53.5883 716.012 52.8671L716.243 52.7172C717.507 51.8589 718.275 50.588 718.556 48.9458L718.556 48.9423L724.118 14.6215C724.488 12.3353 724.079 10.458 722.812 9.06539C721.551 7.63098 719.766 7.09979 717.543 7.40314L717.544 7.40266L683.931 11.7313L683.932 11.7308C681.516 12.0277 679.615 12.8955 678.276 14.3674L678.275 14.3692C676.958 15.8306 676.454 17.5538 676.772 19.5043L676.774 19.5104C677.115 21.4382 678.308 23.4186 680.284 25.452L680.29 25.4587L680.297 25.464L688.208 32.9394C689.196 33.8726 689.247 35.4276 688.322 36.4226L683.021 42.1261C681.926 43.3046 680.042 43.1318 679.245 41.7714C679.103 41.5275 678.96 41.2808 678.819 41.0321C673.369 31.4617 671.439 23.1158 672.935 15.967L672.937 15.9674C674.454 8.81474 679.322 2.86439 687.632 -1.86808Z" stroke="#2161AB" stroke-width="0.806956"/>
<path d="M-23.5978 273.931C-15.264 269.185 -7.65097 268.029 -0.725073 270.373C6.20991 272.72 12.4148 278.63 17.865 288.201C23.1575 297.494 25.1453 305.687 23.9099 312.803L23.7799 313.488C22.3023 320.712 17.454 326.697 9.14555 331.429C1.1198 335.999 -6.27128 337.182 -13.0595 335.056L-13.715 334.841C-16.3201 333.93 -18.8194 332.531 -21.2131 330.637C-22.2512 329.816 -22.3178 328.267 -21.3843 327.262L-14.6815 320.05C-13.7457 319.043 -12.1686 318.992 -11.1694 319.936L-3.15635 327.506C-2.01216 328.596 -0.670287 329.249 0.859557 329.455C2.29946 329.649 3.61305 329.388 4.78211 328.666L5.01369 328.517C6.2779 327.658 7.04505 326.387 7.32636 324.745L7.32661 324.742L12.8889 290.421C13.2589 288.135 12.8491 286.257 11.5824 284.865C10.3217 283.43 8.53646 282.899 6.31366 283.202L6.3145 283.202L-27.2982 287.531L-27.2973 287.53C-29.7135 287.827 -31.6147 288.695 -32.9534 290.167L-32.9546 290.169C-34.2715 291.63 -34.775 293.353 -34.457 295.304L-34.4558 295.31C-34.1142 297.237 -32.9211 299.218 -30.9452 301.251L-30.9392 301.258L-30.9327 301.263L-23.021 308.739C-22.0335 309.672 -21.9826 311.227 -22.9075 312.222L-28.2083 317.925C-29.3035 319.104 -31.1878 318.931 -31.9841 317.571C-32.1268 317.327 -32.2691 317.08 -32.4107 316.831C-37.8608 307.261 -39.7905 298.915 -38.2942 291.766L-38.2929 291.767C-36.7752 284.614 -31.9079 278.664 -23.5978 273.931Z" stroke="#2161AB" stroke-width="0.806956"/>
<path d="M49.6556 254.303C57.9894 249.557 65.6024 248.4 72.5283 250.744C79.4633 253.092 85.6682 259.002 91.1185 268.572C96.411 277.866 98.3987 286.059 97.1633 293.175L97.0333 293.86C95.5557 301.084 90.7074 307.069 82.399 311.8C74.3732 316.371 66.9821 317.554 60.1939 315.428L59.5385 315.212C56.9333 314.302 54.434 312.902 52.0403 311.009C51.0023 310.188 50.9357 308.638 51.8691 307.634L58.572 300.422C59.5077 299.415 61.0848 299.363 62.084 300.307L70.0971 307.878C71.2413 308.968 72.5831 309.621 74.113 309.827C75.5529 310.02 76.8665 309.759 78.0355 309.038L78.2671 308.888C79.5313 308.03 80.2985 306.759 80.5798 305.117L80.58 305.113L86.1423 270.792C86.5123 268.506 86.1026 266.629 84.8359 265.236C83.5751 263.802 81.7899 263.271 79.5671 263.574L79.5679 263.574L45.9552 267.902L45.9561 267.902C43.5399 268.199 41.6388 269.066 40.3 270.538L40.2988 270.54C38.9819 272.001 38.4784 273.725 38.7964 275.675L38.7976 275.681C39.1392 277.609 40.3323 279.59 42.3082 281.623L42.3143 281.63L42.3207 281.635L50.2324 289.11C51.2199 290.043 51.2709 291.598 50.346 292.594L45.0451 298.297C43.95 299.476 42.0656 299.303 41.2694 297.942C41.1266 297.698 40.9844 297.452 40.8427 297.203C35.3927 287.633 33.463 279.287 34.9592 272.138L34.9605 272.138C36.4782 264.986 41.3456 259.035 49.6556 254.303Z" stroke="#2161AB" stroke-width="0.806956"/>
<path d="M122.909 234.675C131.243 229.929 138.856 228.772 145.782 231.116C152.717 233.464 158.922 239.374 164.372 248.944C169.664 258.238 171.652 266.431 170.417 273.547L170.287 274.232C168.809 281.456 163.961 287.441 155.652 292.172C147.627 296.743 140.236 297.926 133.447 295.8L132.792 295.584C130.187 294.674 127.687 293.274 125.294 291.381C124.256 290.56 124.189 289.01 125.123 288.006L131.825 280.794C132.761 279.787 134.338 279.735 135.337 280.679L143.35 288.25C144.495 289.34 145.837 289.993 147.366 290.199C148.806 290.392 150.12 290.131 151.289 289.41L151.521 289.26C152.785 288.402 153.552 287.131 153.833 285.489L153.833 285.485L159.396 251.164C159.766 248.878 159.356 247.001 158.089 245.608C156.829 244.174 155.043 243.643 152.82 243.946L152.821 243.946L119.209 248.274L119.21 248.274C116.793 248.571 114.892 249.438 113.553 250.91L113.552 250.912C112.235 252.374 111.732 254.097 112.05 256.047L112.051 256.053C112.393 257.981 113.586 259.962 115.562 261.995L115.568 262.002L115.574 262.007L123.486 269.482C124.473 270.416 124.524 271.971 123.599 272.966L118.299 278.669C117.203 279.848 115.319 279.675 114.523 278.314C114.38 278.07 114.238 277.824 114.096 277.575C108.646 268.005 106.716 259.659 108.213 252.51L108.214 252.51C109.732 245.358 114.599 239.407 122.909 234.675Z" stroke="#2161AB" stroke-width="0.806956"/>
<path d="M196.163 215.046C204.497 210.301 212.11 209.144 219.036 211.488C225.971 213.835 232.176 219.745 237.626 229.316C242.918 238.61 244.906 246.803 243.671 253.918L243.541 254.604C242.063 261.828 237.215 267.812 228.906 272.544C220.881 277.114 213.489 278.298 206.701 276.172L206.046 275.956C203.441 275.046 200.941 273.646 198.548 271.752C197.51 270.931 197.443 269.382 198.376 268.377L205.079 261.165C206.015 260.158 207.592 260.107 208.591 261.051L216.604 268.621C217.749 269.712 219.09 270.364 220.62 270.57C222.06 270.764 223.374 270.503 224.543 269.782L224.774 269.632C226.039 268.773 226.806 267.503 227.087 265.86L227.087 265.857L232.65 231.536C233.02 229.25 232.61 227.373 231.343 225.98C230.082 224.546 228.297 224.014 226.074 224.318L226.075 224.317L192.463 228.646L192.463 228.645C190.047 228.942 188.146 229.81 186.807 231.282L186.806 231.284C185.489 232.745 184.986 234.468 185.304 236.419L185.305 236.425C185.647 238.353 186.84 240.333 188.816 242.367L188.822 242.373L188.828 242.379L196.74 249.854C197.727 250.787 197.778 252.342 196.853 253.337L191.552 259.041C190.457 260.219 188.573 260.046 187.777 258.686C187.634 258.442 187.492 258.195 187.35 257.947C181.9 248.376 179.97 240.03 181.467 232.882L181.468 232.882C182.986 225.729 187.853 219.779 196.163 215.046Z" stroke="#2161AB" stroke-width="0.806956"/>
<path d="M269.416 195.418C277.75 190.672 285.363 189.516 292.289 191.86C299.224 194.207 305.429 200.117 310.879 209.687C316.172 218.981 318.159 227.174 316.924 234.29L316.794 234.975C315.316 242.199 310.468 248.184 302.16 252.915C294.134 257.486 286.743 258.669 279.955 256.543L279.299 256.328C276.694 255.417 274.195 254.017 271.801 252.124C270.763 251.303 270.696 249.754 271.63 248.749L278.333 241.537C279.268 240.53 280.846 240.479 281.845 241.423L289.858 248.993C291.002 250.083 292.344 250.736 293.874 250.942C295.314 251.135 296.627 250.874 297.796 250.153L298.028 250.003C299.292 249.145 300.059 247.874 300.341 246.232L300.341 246.228L305.903 211.908C306.273 209.621 305.863 207.744 304.597 206.352C303.336 204.917 301.551 204.386 299.328 204.689L299.329 204.689L265.716 209.017L265.717 209.017C263.301 209.314 261.399 210.182 260.061 211.654L260.06 211.655C258.743 213.117 258.239 214.84 258.557 216.79L258.558 216.796C258.9 218.724 260.093 220.705 262.069 222.738L262.075 222.745L262.081 222.75L269.993 230.226C270.981 231.159 271.032 232.714 270.107 233.709L264.806 239.412C263.711 240.591 261.826 240.418 261.03 239.057C260.887 238.814 260.745 238.567 260.603 238.318C255.153 228.748 253.224 220.402 254.72 213.253L254.721 213.254C256.239 206.101 261.106 200.151 269.416 195.418Z" stroke="#2161AB" stroke-width="0.806956"/>
<path d="M342.67 175.79C351.004 171.044 358.617 169.888 365.543 172.232C372.477 174.579 378.682 180.489 384.133 190.06C389.425 199.353 391.413 207.546 390.177 214.662L390.047 215.347C388.57 222.571 383.722 228.556 375.413 233.287C367.387 237.858 359.996 239.041 353.208 236.915L352.553 236.7C349.947 235.789 347.448 234.389 345.054 232.496C344.016 231.675 343.95 230.126 344.883 229.121L351.586 221.909C352.522 220.902 354.099 220.851 355.098 221.795L363.111 229.365C364.255 230.455 365.597 231.108 367.127 231.314C368.567 231.507 369.881 231.247 371.05 230.525L371.281 230.375C372.545 229.517 373.313 228.246 373.594 226.604L373.594 226.6L379.156 192.28C379.526 189.993 379.117 188.116 377.85 186.724C376.589 185.289 374.804 184.758 372.581 185.061L372.582 185.061L338.969 189.389L338.97 189.389C336.554 189.686 334.653 190.554 333.314 192.026L333.313 192.027C331.996 193.489 331.493 195.212 331.811 197.163L331.812 197.169C332.153 199.096 333.346 201.077 335.322 203.11L335.328 203.117L335.335 203.122L343.247 210.598C344.234 211.531 344.285 213.086 343.36 214.081L338.059 219.784C336.964 220.963 335.08 220.79 334.284 219.43C334.141 219.186 333.999 218.939 333.857 218.69C328.407 209.12 326.477 200.774 327.973 193.625L327.975 193.626C329.492 186.473 334.36 180.523 342.67 175.79Z" stroke="#2161AB" stroke-width="0.806956"/>
<path d="M415.924 156.162C424.257 151.416 431.871 150.259 438.796 152.603C445.731 154.951 451.936 160.861 457.387 170.431C462.679 179.725 464.667 187.918 463.431 195.033L463.301 195.719C461.824 202.943 456.975 208.928 448.667 213.659C440.641 218.229 433.25 219.413 426.462 217.287L425.807 217.071C423.201 216.161 420.702 214.761 418.308 212.868C417.27 212.046 417.204 210.497 418.137 209.493L424.84 202.28C425.776 201.273 427.353 201.222 428.352 202.166L436.365 209.737C437.509 210.827 438.851 211.48 440.381 211.685C441.821 211.879 443.135 211.618 444.304 210.897L444.535 210.747C445.799 209.889 446.567 208.618 446.848 206.976L446.848 206.972L452.41 172.651C452.78 170.365 452.371 168.488 451.104 167.095C449.843 165.661 448.058 165.13 445.835 165.433L445.836 165.432L412.223 169.761L412.224 169.761C409.808 170.058 407.907 170.925 406.568 172.397L406.567 172.399C405.25 173.86 404.746 175.584 405.064 177.534L405.066 177.54C405.407 179.468 406.6 181.448 408.576 183.482L408.582 183.488L408.589 183.494L416.5 190.969C417.488 191.902 417.539 193.457 416.614 194.452L411.313 200.156C410.218 201.334 408.334 201.162 407.537 199.801C407.395 199.557 407.252 199.311 407.111 199.062C401.661 189.491 399.731 181.146 401.227 173.997L401.229 173.997C402.746 166.845 407.614 160.894 415.924 156.162Z" stroke="#2161AB" stroke-width="0.806956"/>
<path d="M489.178 136.534C497.511 131.788 505.124 130.631 512.05 132.975C518.985 135.323 525.19 141.233 530.64 150.803C535.933 160.097 537.921 168.29 536.685 175.405L536.555 176.091C535.078 183.315 530.229 189.3 521.921 194.031C513.895 198.601 506.504 199.785 499.716 197.659L499.06 197.443C496.455 196.533 493.956 195.133 491.562 193.24C490.524 192.419 490.458 190.869 491.391 189.865L498.094 182.653C499.03 181.645 500.607 181.594 501.606 182.538L509.619 190.109C510.763 191.199 512.105 191.852 513.635 192.057C515.075 192.251 516.388 191.99 517.558 191.269L517.789 191.119C519.053 190.261 519.82 188.99 520.102 187.348L520.102 187.344L525.664 153.023C526.034 150.737 525.625 148.86 524.358 147.467C523.097 146.033 521.312 145.502 519.089 145.805L519.09 145.805L485.477 150.133L485.478 150.133C483.062 150.43 481.161 151.297 479.822 152.769L479.821 152.771C478.504 154.232 478 155.956 478.318 157.906L478.32 157.912C478.661 159.84 479.854 161.82 481.83 163.854L481.836 163.861L481.843 163.866L489.754 171.341C490.742 172.274 490.793 173.829 489.868 174.824L484.567 180.528C483.472 181.706 481.588 181.534 480.791 180.173C480.649 179.929 480.506 179.683 480.365 179.434C474.915 169.864 472.985 161.518 474.481 154.369L474.482 154.369C476 147.217 480.868 141.266 489.178 136.534Z" stroke="#2161AB" stroke-width="0.806956"/>
<path d="M562.431 116.905C570.765 112.159 578.378 111.003 585.304 113.347C592.239 115.694 598.444 121.604 603.894 131.175C609.186 140.468 611.174 148.661 609.939 155.777L609.809 156.462C608.331 163.686 603.483 169.671 595.174 174.403C587.149 178.973 579.758 180.157 572.969 178.03L572.314 177.815C569.709 176.905 567.209 175.505 564.816 173.611C563.778 172.79 563.711 171.241 564.645 170.236L571.347 163.024C572.283 162.017 573.86 161.966 574.859 162.91L582.872 170.48C584.017 171.57 585.359 172.223 586.888 172.429C588.328 172.623 589.642 172.362 590.811 171.64L591.042 171.491C592.307 170.632 593.074 169.361 593.355 167.719L593.355 167.716L598.918 133.395C599.288 131.109 598.878 129.231 597.611 127.839C596.351 126.404 594.565 125.873 592.342 126.177L592.343 126.176L558.731 130.505L558.731 130.504C556.315 130.801 554.414 131.669 553.075 133.141L553.074 133.143C551.757 134.604 551.254 136.327 551.572 138.278L551.573 138.284C551.915 140.212 553.108 142.192 555.084 144.225L555.09 144.232L555.096 144.237L563.008 151.713C563.995 152.646 564.046 154.201 563.121 155.196L557.821 160.9C556.725 162.078 554.841 161.905 554.045 160.545C553.902 160.301 553.76 160.054 553.618 159.806C548.168 150.235 546.238 141.889 547.735 134.74L547.736 134.741C549.254 127.588 554.121 121.638 562.431 116.905Z" stroke="#2161AB" stroke-width="0.806956"/>
<path d="M635.684 97.2769C644.018 92.531 651.631 91.3744 658.557 93.7185C665.492 96.0659 671.697 101.976 677.147 111.546C682.44 120.84 684.428 129.033 683.192 136.149L683.062 136.834C681.585 144.058 676.736 150.043 668.428 154.774C660.402 159.345 653.011 160.528 646.223 158.402L645.567 158.186C642.962 157.276 640.463 155.876 638.069 153.983C637.031 153.162 636.964 151.612 637.898 150.608L644.601 143.396C645.536 142.389 647.114 142.337 648.113 143.281L656.126 150.852C657.27 151.942 658.612 152.595 660.142 152.801C661.582 152.994 662.895 152.733 664.064 152.012L664.296 151.862C665.56 151.004 666.327 149.733 666.609 148.091L666.609 148.087L672.171 113.767C672.541 111.48 672.131 109.603 670.865 108.21C669.604 106.776 667.819 106.245 665.596 106.548L665.597 106.548L631.984 110.876L631.985 110.876C629.569 111.173 627.668 112.04 626.329 113.512L626.328 113.514C625.011 114.976 624.507 116.699 624.825 118.649L624.826 118.655C625.168 120.583 626.361 122.564 628.337 124.597L628.343 124.604L628.349 124.609L636.261 132.084C637.249 133.018 637.3 134.573 636.375 135.568L631.074 141.271C629.979 142.45 628.094 142.277 627.298 140.916C627.155 140.672 627.013 140.426 626.872 140.177C621.421 130.607 619.492 122.261 620.988 115.112L620.989 115.112C622.507 107.96 627.374 102.009 635.684 97.2769Z" stroke="#2161AB" stroke-width="0.806956"/>
<path d="M217.469 294.564C225.803 289.818 233.416 288.661 240.342 291.005C247.277 293.352 253.482 299.262 258.932 308.833C264.224 318.127 266.212 326.32 264.977 333.435L264.847 334.121C263.369 341.345 258.521 347.329 250.212 352.061C242.187 356.631 234.796 357.815 228.007 355.689L227.352 355.473C224.747 354.563 222.247 353.163 219.854 351.27C218.816 350.448 218.749 348.899 219.683 347.894L226.385 340.682C227.321 339.675 228.898 339.624 229.897 340.568L237.911 348.139C239.055 349.229 240.397 349.882 241.926 350.087C243.366 350.281 244.68 350.02 245.849 349.299L246.081 349.149C247.345 348.291 248.112 347.02 248.393 345.377L248.394 345.374L253.956 311.053C254.326 308.767 253.916 306.89 252.649 305.497C251.389 304.063 249.603 303.531 247.381 303.835L247.381 303.834L213.769 308.163L213.77 308.162C211.353 308.459 209.452 309.327 208.113 310.799L208.112 310.801C206.795 312.262 206.292 313.985 206.61 315.936L206.611 315.942C206.953 317.87 208.146 319.85 210.122 321.884L210.128 321.89L210.134 321.896L218.046 329.371C219.033 330.304 219.084 331.859 218.159 332.854L212.859 338.558C211.763 339.736 209.879 339.563 209.083 338.203C208.94 337.959 208.798 337.712 208.656 337.464C203.206 327.893 201.276 319.547 202.773 312.399L202.774 312.399C204.292 305.246 209.159 299.296 217.469 294.564Z" stroke="#2161AB" stroke-width="0.806956"/>
<path d="M290.723 274.935C299.057 270.189 306.67 269.033 313.596 271.377C320.531 273.724 326.736 279.634 332.186 289.205C337.478 298.498 339.466 306.691 338.231 313.807L338.101 314.492C336.623 321.716 331.775 327.701 323.466 332.432C315.441 337.003 308.05 338.186 301.261 336.06L300.606 335.845C298.001 334.934 295.501 333.534 293.108 331.641C292.07 330.82 292.003 329.271 292.937 328.266L299.639 321.054C300.575 320.047 302.152 319.996 303.151 320.94L311.164 328.51C312.309 329.6 313.651 330.253 315.18 330.459C316.62 330.652 317.934 330.392 319.103 329.67L319.334 329.52C320.599 328.662 321.366 327.391 321.647 325.749L321.647 325.745L327.21 291.425C327.58 289.138 327.17 287.261 325.903 285.869C324.642 284.434 322.857 283.903 320.634 284.206L320.635 284.206L287.023 288.535L287.023 288.534C284.607 288.831 282.706 289.699 281.367 291.171L281.366 291.172C280.049 292.634 279.546 294.357 279.864 296.308L279.865 296.314C280.207 298.241 281.4 300.222 283.376 302.255L283.382 302.262L283.388 302.267L291.3 309.743C292.287 310.676 292.338 312.231 291.413 313.226L286.113 318.929C285.017 320.108 283.133 319.935 282.337 318.575C282.194 318.331 282.052 318.084 281.91 317.835C276.46 308.265 274.53 299.919 276.027 292.77L276.028 292.771C277.546 285.618 282.413 279.668 290.723 274.935Z" stroke="#2161AB" stroke-width="0.806956"/>
<path d="M363.976 255.307C372.31 250.561 379.923 249.405 386.849 251.749C393.784 254.096 399.989 260.006 405.439 269.577C410.732 278.87 412.72 287.063 411.484 294.179L411.354 294.864C409.877 302.088 405.028 308.073 396.72 312.805C388.694 317.375 381.303 318.558 374.515 316.432L373.859 316.217C371.254 315.306 368.755 313.907 366.361 312.013C365.323 311.192 365.256 309.643 366.19 308.638L372.893 301.426C373.828 300.419 375.406 300.368 376.405 301.312L384.418 308.882C385.562 309.972 386.904 310.625 388.434 310.831C389.874 311.025 391.187 310.764 392.356 310.042L392.588 309.892C393.852 309.034 394.619 307.763 394.901 306.121L394.901 306.118L400.463 271.797C400.833 269.511 400.423 267.633 399.157 266.241C397.896 264.806 396.111 264.275 393.888 264.578L393.889 264.578L360.276 268.907L360.277 268.906C357.861 269.203 355.96 270.071 354.621 271.543L354.62 271.545C353.303 273.006 352.799 274.729 353.117 276.68L353.118 276.686C353.46 278.613 354.653 280.594 356.629 282.627L356.635 282.634L356.641 282.639L364.553 290.115C365.541 291.048 365.592 292.603 364.667 293.598L359.366 299.301C358.271 300.48 356.386 300.307 355.59 298.947C355.447 298.703 355.305 298.456 355.164 298.207C349.713 288.637 347.784 280.291 349.28 273.142L349.281 273.143C350.799 265.99 355.666 260.04 363.976 255.307Z" stroke="#2161AB" stroke-width="0.806956"/>
<path d="M437.23 235.679C445.564 230.933 453.177 229.776 460.103 232.12C467.038 234.468 473.243 240.378 478.693 249.948C483.986 259.242 485.973 267.435 484.738 274.551L484.608 275.236C483.13 282.46 478.282 288.445 469.974 293.176C461.948 297.747 454.557 298.93 447.769 296.804L447.113 296.588C444.508 295.678 442.009 294.278 439.615 292.385C438.577 291.564 438.51 290.014 439.444 289.01L446.147 281.798C447.082 280.791 448.66 280.739 449.659 281.683L457.672 289.254C458.816 290.344 460.158 290.997 461.688 291.203C463.128 291.396 464.441 291.135 465.61 290.414L465.842 290.264C467.106 289.406 467.873 288.135 468.154 286.493L468.155 286.489L473.717 252.168C474.087 249.882 473.677 248.005 472.411 246.612C471.15 245.178 469.365 244.647 467.142 244.95L467.143 244.95L433.53 249.278L433.531 249.278C431.115 249.575 429.213 250.442 427.875 251.914L427.874 251.916C426.557 253.377 426.053 255.101 426.371 257.051L426.372 257.057C426.714 258.985 427.907 260.966 429.883 262.999L429.889 263.006L429.895 263.011L437.807 270.486C438.795 271.419 438.846 272.974 437.921 273.97L432.62 279.673C431.525 280.852 429.64 280.679 428.844 279.318C428.701 279.074 428.559 278.828 428.417 278.579C422.967 269.009 421.038 260.663 422.534 253.514L422.535 253.514C424.053 246.362 428.92 240.411 437.23 235.679Z" stroke="#2161AB" stroke-width="0.806956"/>
<path d="M510.484 216.051C518.818 211.305 526.431 210.148 533.356 212.492C540.291 214.84 546.496 220.75 551.947 230.32C557.239 239.614 559.227 247.807 557.991 254.923L557.861 255.608C556.384 262.832 551.536 268.817 543.227 273.548C535.201 278.119 527.81 279.302 521.022 277.176L520.367 276.96C517.761 276.05 515.262 274.65 512.868 272.757C511.83 271.936 511.764 270.386 512.697 269.382L519.4 262.17C520.336 261.163 521.913 261.111 522.912 262.055L530.925 269.626C532.069 270.716 533.411 271.369 534.941 271.575C536.381 271.768 537.695 271.507 538.864 270.786L539.095 270.636C540.359 269.778 541.127 268.507 541.408 266.865L541.408 266.861L546.97 232.54C547.34 230.254 546.931 228.377 545.664 226.984C544.403 225.55 542.618 225.019 540.395 225.322L540.396 225.322L506.783 229.65L506.784 229.65C504.368 229.947 502.467 230.814 501.128 232.286L501.127 232.288C499.81 233.75 499.307 235.473 499.625 237.423L499.626 237.429C499.967 239.357 501.16 241.338 503.136 243.371L503.142 243.378L503.149 243.383L511.061 250.858C512.048 251.792 512.099 253.347 511.174 254.342L505.873 260.045C504.778 261.224 502.894 261.051 502.097 259.69C501.955 259.446 501.812 259.2 501.671 258.951C496.221 249.381 494.291 241.035 495.787 233.886L495.789 233.886C497.306 226.734 502.174 220.783 510.484 216.051Z" stroke="#2161AB" stroke-width="0.806956"/>
<path d="M583.737 196.422C592.071 191.677 599.684 190.52 606.61 192.864C613.545 195.211 619.75 201.121 625.2 210.692C630.493 219.985 632.48 228.179 631.245 235.294L631.115 235.98C629.637 243.204 624.789 249.188 616.481 253.92C608.455 258.49 601.064 259.674 594.275 257.548L593.62 257.332C591.015 256.422 588.516 255.022 586.122 253.128C585.084 252.307 585.017 250.758 585.951 249.753L592.654 242.541C593.589 241.534 595.166 241.483 596.166 242.427L604.179 249.997C605.323 251.088 606.665 251.74 608.195 251.946C609.634 252.14 610.948 251.879 612.117 251.158L612.349 251.008C613.613 250.149 614.38 248.878 614.661 247.236L614.662 247.233L620.224 212.912C620.594 210.626 620.184 208.749 618.917 207.356C617.657 205.922 615.871 205.39 613.649 205.694L613.649 205.693L580.037 210.022L580.038 210.021C577.621 210.318 575.72 211.186 574.382 212.658L574.38 212.66C573.063 214.121 572.56 215.844 572.878 217.795L572.879 217.801C573.221 219.729 574.414 221.709 576.39 223.743L576.396 223.749L576.402 223.755L584.314 231.23C585.301 232.163 585.352 233.718 584.428 234.713L579.127 240.417C578.032 241.595 576.147 241.422 575.351 240.062C575.208 239.818 575.066 239.571 574.924 239.323C569.474 229.752 567.544 221.406 569.041 214.258L569.042 214.258C570.56 207.105 575.427 201.155 583.737 196.422Z" stroke="#2161AB" stroke-width="0.806956"/>
<path d="M656.991 176.794C665.325 172.048 672.938 170.891 679.864 173.236C686.799 175.583 693.004 181.493 698.454 191.063C703.746 200.357 705.734 208.55 704.499 215.666L704.369 216.351C702.891 223.575 698.043 229.56 689.734 234.291C681.709 238.862 674.318 240.045 667.529 237.919L666.874 237.704C664.269 236.793 661.769 235.393 659.376 233.5C658.338 232.679 658.271 231.13 659.205 230.125L665.907 222.913C666.843 221.906 668.42 221.855 669.419 222.799L677.433 230.369C678.577 231.459 679.919 232.112 681.448 232.318C682.888 232.511 684.202 232.25 685.371 231.529L685.603 231.379C686.867 230.521 687.634 229.25 687.915 227.608L687.915 227.604L693.478 193.284C693.848 190.997 693.438 189.12 692.171 187.727C690.911 186.293 689.125 185.762 686.903 186.065L686.903 186.065L653.291 190.393L653.292 190.393C650.875 190.69 648.974 191.558 647.635 193.03L647.634 193.031C646.317 194.493 645.814 196.216 646.132 198.166L646.133 198.172C646.475 200.1 647.668 202.081 649.644 204.114L649.65 204.121L649.656 204.126L657.568 211.602C658.555 212.535 658.606 214.09 657.681 215.085L652.381 220.788C651.285 221.967 649.401 221.794 648.605 220.433C648.462 220.19 648.32 219.943 648.178 219.694C642.728 210.124 640.798 201.778 642.295 194.629L642.296 194.63C643.814 187.477 648.681 181.526 656.991 176.794Z" stroke="#2161AB" stroke-width="0.806956"/>
<path d="M531.79 295.567C540.124 290.822 547.737 289.665 554.663 292.009C561.598 294.356 567.803 300.266 573.253 309.837C578.546 319.131 580.533 327.324 579.298 334.439L579.168 335.125C577.69 342.349 572.842 348.333 564.534 353.065C556.508 357.635 549.117 358.819 542.329 356.693L541.673 356.477C539.068 355.567 536.569 354.167 534.175 352.273C533.137 351.452 533.07 349.903 534.004 348.898L540.707 341.686C541.642 340.679 543.22 340.628 544.219 341.572L552.232 349.142C553.376 350.233 554.718 350.885 556.248 351.091C557.688 351.285 559.001 351.024 560.17 350.303L560.402 350.153C561.666 349.294 562.433 348.024 562.715 346.381L562.715 346.378L568.277 312.057C568.647 309.771 568.237 307.894 566.971 306.501C565.71 305.067 563.925 304.535 561.702 304.839L561.703 304.838L528.09 309.167L528.091 309.166C525.675 309.463 523.774 310.331 522.435 311.803L522.434 311.805C521.117 313.266 520.613 314.989 520.931 316.94L520.932 316.946C521.274 318.874 522.467 320.854 524.443 322.888L524.449 322.894L524.455 322.9L532.367 330.375C533.355 331.308 533.406 332.863 532.481 333.858L527.18 339.562C526.085 340.74 524.2 340.567 523.404 339.207C523.261 338.963 523.119 338.716 522.978 338.468C517.527 328.897 515.598 320.551 517.094 313.403L517.095 313.403C518.613 306.25 523.48 300.3 531.79 295.567Z" stroke="#2161AB" stroke-width="0.806956"/>
<path d="M605.044 275.94C613.378 271.194 620.991 270.037 627.917 272.381C634.852 274.728 641.056 280.638 646.507 290.209C651.799 299.503 653.787 307.696 652.551 314.811L652.421 315.497C650.944 322.721 646.096 328.705 637.787 333.437C629.761 338.007 622.37 339.191 615.582 337.065L614.927 336.849C612.321 335.939 609.822 334.539 607.428 332.646C606.39 331.824 606.324 330.275 607.257 329.27L613.96 322.058C614.896 321.051 616.473 321 617.472 321.944L625.485 329.515C626.629 330.605 627.971 331.257 629.501 331.463C630.941 331.657 632.255 331.396 633.424 330.675L633.655 330.525C634.92 329.667 635.687 328.396 635.968 326.753L635.968 326.75L641.53 292.429C641.9 290.143 641.491 288.266 640.224 286.873C638.963 285.439 637.178 284.907 634.955 285.211L634.956 285.21L601.343 289.539L601.344 289.538C598.928 289.835 597.027 290.703 595.688 292.175L595.687 292.177C594.37 293.638 593.867 295.361 594.185 297.312L594.186 297.318C594.527 299.246 595.72 301.226 597.696 303.26L597.702 303.266L597.709 303.272L605.621 310.747C606.608 311.68 606.659 313.235 605.734 314.23L600.433 319.934C599.338 321.112 597.454 320.939 596.658 319.579C596.515 319.335 596.373 319.088 596.231 318.84C590.781 309.269 588.851 300.923 590.347 293.775L590.349 293.775C591.866 286.622 596.734 280.672 605.044 275.94Z" stroke="#2161AB" stroke-width="0.806956"/>
<path d="M678.298 256.311C686.632 251.565 694.245 250.409 701.17 252.753C708.105 255.1 714.31 261.01 719.761 270.581C725.053 279.874 727.041 288.067 725.805 295.183L725.675 295.868C724.198 303.092 719.35 309.077 711.041 313.808C703.015 318.379 695.624 319.562 688.836 317.436L688.181 317.221C685.575 316.31 683.076 314.91 680.682 313.017C679.644 312.196 679.578 310.647 680.511 309.642L687.214 302.43C688.15 301.423 689.727 301.372 690.726 302.316L698.739 309.886C699.883 310.976 701.225 311.629 702.755 311.835C704.195 312.028 705.509 311.768 706.678 311.046L706.909 310.896C708.173 310.038 708.941 308.767 709.222 307.125L709.222 307.121L714.784 272.801C715.154 270.514 714.745 268.637 713.478 267.245C712.217 265.81 710.432 265.279 708.209 265.582L708.21 265.582L674.597 269.91L674.598 269.91C672.182 270.207 670.281 271.075 668.942 272.547L668.941 272.548C667.624 274.01 667.12 275.733 667.438 277.683L667.44 277.69C667.781 279.617 668.974 281.598 670.95 283.631L670.956 283.638L670.963 283.643L678.874 291.119C679.862 292.052 679.913 293.607 678.988 294.602L673.687 300.305C672.592 301.484 670.708 301.311 669.911 299.951C669.769 299.707 669.626 299.46 669.485 299.211C664.035 289.641 662.105 281.295 663.601 274.146L663.603 274.147C665.12 266.994 669.988 261.044 678.298 256.311Z" stroke="#2161AB" stroke-width="0.806956"/>
</g>
</svg>
