<svg width="680" height="284" fill="none" xmlns="http://www.w3.org/2000/svg"><path d="M-35.57-63.765c8.333-4.746 15.946-5.903 22.872-3.558 6.935 2.347 13.14 8.257 18.59 17.827 5.293 9.294 7.28 17.487 6.045 24.603l-.13.685C10.33-16.984 5.481-10.999-2.827-6.268c-8.026 4.57-15.417 5.754-22.205 3.628l-.656-.216c-2.605-.91-5.104-2.31-7.498-4.203-1.038-.821-1.104-2.37-.17-3.375l6.702-7.212a2.475 2.475 0 013.512-.115l8.013 7.571c1.144 1.09 2.486 1.743 4.016 1.949 1.44.193 2.753-.068 3.922-.789l.232-.15c1.264-.858 2.031-2.129 2.313-3.771v-.004l5.562-34.32c.37-2.287-.04-4.164-1.306-5.557-1.261-1.434-3.046-1.965-5.269-1.662h0l-33.612 4.328h.001c-2.416.297-4.317 1.164-5.656 2.636l-.001.002c-1.317 1.462-1.82 3.185-1.503 5.135l.002.006c.341 1.928 1.534 3.909 3.51 5.942l.006.007.007.005 7.911 7.476a2.475 2.475 0 01.114 3.483l-5.301 5.703c-1.095 1.179-2.98 1.006-3.776-.355-.142-.243-.285-.49-.426-.739-5.45-9.57-7.38-17.916-5.884-25.065h.002c1.517-7.152 6.385-13.103 14.695-17.835zm21.306 79.517C-5.93 11.006 1.683 9.849 8.61 12.194c6.935 2.347 13.14 8.257 18.59 17.827 5.293 9.294 7.28 17.487 6.045 24.603l-.13.685c-1.478 7.224-6.326 13.209-14.634 17.94-8.026 4.57-15.417 5.754-22.206 3.628l-.655-.215c-2.605-.91-5.104-2.31-7.498-4.204-1.038-.821-1.105-2.37-.171-3.375l6.703-7.212a2.474 2.474 0 013.512-.114l8.013 7.57c1.144 1.09 2.486 1.743 4.016 1.949 1.44.193 2.753-.067 3.922-.789l.232-.15c1.264-.858 2.031-2.129 2.312-3.771v-.004l5.563-34.32c.37-2.287-.04-4.164-1.307-5.556-1.26-1.435-3.046-1.966-5.268-1.663h0l-33.612 4.328h0c-2.416.297-4.317 1.165-5.655 2.637l-.002.001c-1.317 1.462-1.82 3.185-1.502 5.135l.001.006c.342 1.928 1.535 3.909 3.51 5.942l.007.007.006.005 7.912 7.476a2.475 2.475 0 01.114 3.483l-5.301 5.703c-1.096 1.179-2.98 1.006-3.776-.355-.143-.243-.285-.49-.427-.739-5.45-9.57-7.38-17.916-5.883-25.065h.001c1.518-7.152 6.385-13.103 14.695-17.835zM58.99-3.876c8.333-4.746 15.946-5.903 22.872-3.559 6.935 2.348 13.14 8.257 18.59 17.828 5.293 9.294 7.281 17.487 6.045 24.602l-.13.686c-1.477 7.224-6.326 13.209-14.634 17.94-8.026 4.57-15.417 5.754-22.205 3.628l-.656-.216c-2.605-.91-5.104-2.31-7.498-4.203-1.038-.822-1.104-2.37-.17-3.375l6.702-7.213a2.475 2.475 0 013.512-.114l8.013 7.57c1.144 1.09 2.486 1.744 4.016 1.95 1.44.193 2.753-.068 3.922-.79l.232-.15c1.264-.857 2.031-2.128 2.313-3.77v-.004l5.562-34.32c.37-2.287-.04-4.164-1.306-5.557-1.26-1.434-3.046-1.966-5.269-1.662h0L55.29 9.722h.001c-2.416.296-4.317 1.164-5.656 2.636l-.001.002c-1.317 1.461-1.82 3.184-1.503 5.135l.002.006c.341 1.928 1.534 3.908 3.51 5.942l.006.006.007.006 7.911 7.475a2.475 2.475 0 01.114 3.483l-5.3 5.704c-1.096 1.178-2.98 1.005-3.777-.355-.142-.244-.285-.49-.426-.74-5.45-9.57-7.38-17.916-5.884-25.064h.002C45.812 6.806 50.678.856 58.99-3.876zm73.254-19.628c8.333-4.746 15.946-5.903 22.872-3.559 6.935 2.348 13.14 8.258 18.59 17.828 5.293 9.294 7.281 17.487 6.045 24.602l-.13.686c-1.477 7.224-6.326 13.209-14.634 17.94-8.026 4.57-15.417 5.754-22.205 3.628l-.656-.216c-2.605-.91-5.104-2.31-7.498-4.203-1.038-.822-1.104-2.37-.171-3.375l6.703-7.213a2.474 2.474 0 013.512-.114l8.013 7.57c1.144 1.09 2.486 1.744 4.016 1.95 1.44.193 2.753-.068 3.922-.79l.232-.149c1.264-.858 2.031-2.13 2.313-3.771v-.004l5.562-34.32c.37-2.287-.04-4.164-1.306-5.557-1.261-1.434-3.046-1.965-5.269-1.662h.001l-33.613 4.328h.001c-2.416.297-4.317 1.164-5.656 2.636l-.001.002c-1.317 1.461-1.821 3.185-1.503 5.135l.001.006c.342 1.928 1.535 3.908 3.511 5.942l.006.006.007.006 7.911 7.475a2.474 2.474 0 01.114 3.483l-5.301 5.704c-1.095 1.178-2.979 1.006-3.776-.355a75.51 75.51 0 01-.426-.74c-5.45-9.57-7.38-17.915-5.884-25.064h.001c1.518-7.153 6.385-13.103 14.696-17.835zm73.253-19.629c8.334-4.746 15.947-5.902 22.873-3.558 6.935 2.347 13.14 8.257 18.59 17.828 5.292 9.293 7.28 17.486 6.045 24.602l-.13.685c-1.478 7.224-6.326 13.21-14.635 17.94-8.025 4.571-15.417 5.755-22.205 3.628l-.655-.215c-2.605-.91-5.105-2.31-7.498-4.204-1.038-.82-1.105-2.37-.172-3.375l6.703-7.212a2.474 2.474 0 013.512-.114l8.013 7.57c1.145 1.09 2.486 1.743 4.016 1.949 1.44.194 2.754-.067 3.923-.789l.231-.15c1.265-.858 2.032-2.129 2.313-3.77v-.004l5.563-34.321c.37-2.286-.04-4.164-1.307-5.556-1.261-1.435-3.046-1.966-5.269-1.663h.001l-33.612 4.329h0c-2.416.296-4.317 1.164-5.656 2.636l-.001.002c-1.317 1.46-1.82 3.184-1.502 5.135l.001.006c.342 1.928 1.535 3.908 3.511 5.941l.006.007.006.005 7.912 7.476a2.475 2.475 0 01.113 3.483L200.886.861c-1.095 1.179-2.979 1.006-3.775-.354-.143-.244-.285-.49-.427-.74-5.45-9.57-7.38-17.916-5.883-25.065h.001c1.518-7.152 6.385-13.102 14.695-17.835zm73.253-19.628c8.334-4.746 15.947-5.903 22.873-3.559 6.935 2.348 13.14 8.258 18.59 17.828 5.293 9.294 7.28 17.487 6.045 24.603l-.13.685c-1.478 7.224-6.326 13.209-14.634 17.94-8.026 4.57-15.417 5.754-22.205 3.628l-.656-.216c-2.605-.91-5.104-2.31-7.498-4.203-1.038-.821-1.105-2.37-.171-3.375l6.703-7.212a2.475 2.475 0 013.512-.115l8.013 7.57c1.144 1.091 2.486 1.744 4.016 1.95 1.44.193 2.753-.068 3.922-.789l.232-.15c1.264-.858 2.031-2.13 2.313-3.771v-.004l5.562-34.32c.37-2.287-.04-4.164-1.306-5.557-1.261-1.434-3.046-1.965-5.269-1.662h.001l-33.613 4.328h.001c-2.416.297-4.318 1.164-5.656 2.636l-.001.002c-1.317 1.462-1.821 3.185-1.503 5.135l.001.006c.342 1.928 1.535 3.909 3.511 5.942l.006.007.006.005 7.912 7.475a2.474 2.474 0 01.114 3.484l-5.301 5.703c-1.095 1.179-2.98 1.006-3.776-.355a72.11 72.11 0 01-.427-.739c-5.45-9.57-7.379-17.916-5.883-25.065h.001c1.518-7.152 6.385-13.103 14.695-17.835zM7.042 95.27c8.334-4.747 15.947-5.903 22.873-3.56 6.935 2.348 13.14 8.258 18.59 17.829 5.293 9.293 7.28 17.486 6.045 24.602l-.13.685c-1.478 7.224-6.326 13.209-14.634 17.94-8.026 4.571-15.417 5.754-22.205 3.628l-.656-.215c-2.605-.911-5.104-2.311-7.498-4.204-1.038-.821-1.105-2.37-.171-3.375l6.703-7.212a2.474 2.474 0 013.512-.114l8.013 7.57c1.144 1.09 2.486 1.743 4.016 1.949 1.44.193 2.753-.067 3.922-.789l.232-.15c1.264-.858 2.031-2.129 2.313-3.771v-.004l5.562-34.32c.37-2.287-.04-4.164-1.306-5.556-1.261-1.435-3.046-1.966-5.27-1.663h.002l-33.613 4.329v-.001c-2.415.297-4.317 1.165-5.655 2.637l-.001.001c-1.317 1.462-1.82 3.185-1.503 5.136l.001.006c.342 1.927 1.535 3.908 3.51 5.941l.007.007.006.005 7.912 7.476a2.474 2.474 0 01.114 3.483l-5.301 5.703c-1.095 1.179-2.98 1.006-3.776-.354a70.488 70.488 0 01-.427-.74c-5.45-9.57-7.38-17.916-5.883-25.065l.001.001c1.518-7.153 6.385-13.103 14.695-17.836zm73.254-19.63c8.334-4.745 15.947-5.902 22.873-3.558 6.935 2.348 13.14 8.258 18.59 17.828 5.293 9.294 7.28 17.487 6.045 24.602l-.13.686c-1.478 7.224-6.326 13.209-14.634 17.94-8.026 4.57-15.417 5.754-22.206 3.628l-.655-.216c-2.605-.91-5.104-2.31-7.498-4.203-1.038-.822-1.105-2.371-.171-3.375l6.703-7.213a2.474 2.474 0 013.512-.114l8.013 7.571c1.144 1.09 2.486 1.743 4.016 1.948 1.439.194 2.753-.067 3.922-.788l.232-.15c1.264-.858 2.031-2.129 2.312-3.771l.001-.004 5.562-34.32c.37-2.287-.04-4.164-1.307-5.557-1.26-1.434-3.045-1.965-5.268-1.662h.001L76.596 89.24h0c-2.415.297-4.317 1.164-5.655 2.636l-.002.002c-1.316 1.461-1.82 3.185-1.502 5.135l.001.006c.342 1.928 1.535 3.908 3.51 5.942l.007.006.006.006 7.912 7.475a2.474 2.474 0 01.114 3.483l-5.301 5.704c-1.095 1.178-2.98 1.006-3.776-.355a70.3 70.3 0 01-.427-.739c-5.45-9.571-7.38-17.916-5.883-25.065h.001c1.518-7.153 6.385-13.103 14.695-17.835zm73.254-19.627c8.333-4.746 15.946-5.903 22.872-3.559 6.935 2.348 13.14 8.258 18.59 17.828 5.293 9.294 7.281 17.487 6.045 24.603l-.13.685c-1.477 7.224-6.326 13.209-14.634 17.94-8.026 4.57-15.417 5.754-22.205 3.628l-.656-.216c-2.605-.91-5.104-2.31-7.498-4.203-1.038-.821-1.104-2.371-.171-3.375l6.703-7.212a2.474 2.474 0 013.512-.115l8.013 7.571c1.144 1.09 2.486 1.743 4.016 1.948 1.44.194 2.754-.067 3.923-.788l.231-.15c1.264-.858 2.032-2.129 2.313-3.771v-.004l5.562-34.32c.37-2.287-.039-4.164-1.306-5.557-1.261-1.434-3.046-1.965-5.269-1.662h.001l-33.613 4.328h.001c-2.416.297-4.317 1.164-5.656 2.636l-.001.002c-1.317 1.461-1.821 3.185-1.503 5.135l.002.006c.341 1.928 1.534 3.908 3.51 5.942l.006.007.007.005 7.911 7.475a2.474 2.474 0 01.114 3.484l-5.301 5.703c-1.095 1.178-2.979 1.006-3.776-.355-.142-.244-.285-.49-.426-.74-5.45-9.57-7.38-17.915-5.884-25.064h.002c1.517-7.152 6.385-13.103 14.695-17.835zm73.254-19.629c8.333-4.745 15.946-5.902 22.872-3.558 6.935 2.347 13.14 8.257 18.59 17.828 5.293 9.293 7.281 17.486 6.045 24.602l-.13.686c-1.477 7.223-6.326 13.208-14.634 17.94-8.026 4.57-15.417 5.754-22.205 3.627l-.656-.215c-2.605-.91-5.104-2.31-7.498-4.204-1.038-.82-1.104-2.37-.171-3.375l6.703-7.212a2.475 2.475 0 013.512-.114l8.013 7.57c1.144 1.09 2.486 1.743 4.016 1.95 1.44.193 2.753-.068 3.922-.79l.232-.15c1.264-.858 2.031-2.129 2.313-3.77v-.004l5.562-34.321c.37-2.286-.039-4.164-1.306-5.556-1.261-1.435-3.046-1.966-5.269-1.662h.001l-33.613 4.328h.001c-2.416.296-4.317 1.164-5.656 2.636l-.001.002c-1.317 1.461-1.821 3.184-1.503 5.135l.002.006c.341 1.928 1.534 3.908 3.51 5.941l.006.007.007.006 7.911 7.475a2.474 2.474 0 01.114 3.483l-5.301 5.704c-1.095 1.178-2.979 1.005-3.776-.355-.142-.244-.285-.49-.426-.74-5.45-9.57-7.38-17.916-5.884-25.065h.001c1.518-7.152 6.386-13.102 14.696-17.835zm73.253-19.628c8.334-4.746 15.947-5.903 22.873-3.559 6.935 2.348 13.14 8.258 18.59 17.828 5.292 9.294 7.28 17.487 6.045 24.603l-.13.685c-1.478 7.224-6.326 13.209-14.635 17.94-8.025 4.57-15.416 5.754-22.205 3.628l-.655-.216c-2.605-.91-5.105-2.31-7.498-4.203-1.038-.821-1.105-2.37-.171-3.375l6.702-7.212a2.475 2.475 0 013.512-.115l8.013 7.571c1.145 1.09 2.486 1.743 4.016 1.949 1.44.193 2.754-.068 3.923-.789l.231-.15c1.265-.858 2.032-2.129 2.313-3.771v-.004l5.563-34.32c.37-2.287-.04-4.164-1.307-5.557-1.261-1.434-3.046-1.965-5.269-1.662h.001l-33.612 4.328h0c-2.416.297-4.317 1.165-5.656 2.636l-.001.002c-1.317 1.462-1.82 3.185-1.502 5.135l.001.006c.342 1.928 1.535 3.909 3.511 5.942l.006.007.006.005 7.912 7.475a2.475 2.475 0 01.113 3.484l-5.301 5.703c-1.095 1.179-2.979 1.006-3.775-.355a72.11 72.11 0 01-.427-.739c-5.45-9.57-7.38-17.916-5.883-25.065h.001c1.518-7.152 6.385-13.103 14.695-17.835zM373.31-2.872c8.334-4.746 15.947-5.903 22.873-3.559 6.935 2.347 13.14 8.257 18.59 17.828 5.293 9.294 7.28 17.487 6.045 24.602l-.13.686c-1.478 7.224-6.326 13.208-14.634 17.94-8.026 4.57-15.417 5.754-22.205 3.628l-.656-.216c-2.605-.91-5.104-2.31-7.498-4.203-1.038-.822-1.105-2.371-.171-3.376l6.703-7.212a2.474 2.474 0 013.512-.114l8.013 7.57c1.144 1.09 2.486 1.744 4.016 1.95 1.44.193 2.753-.068 3.922-.79l.232-.15c1.264-.858 2.031-2.128 2.313-3.77v-.004l5.562-34.32c.37-2.287-.04-4.164-1.306-5.557-1.261-1.434-3.046-1.966-5.269-1.662h.001l-33.613 4.328h.001c-2.416.296-4.317 1.164-5.656 2.636l-.001.002c-1.317 1.461-1.821 3.184-1.503 5.135l.001.006c.342 1.928 1.535 3.908 3.511 5.942l.006.006.006.006 7.912 7.475a2.474 2.474 0 01.114 3.483l-5.301 5.704c-1.095 1.178-2.98 1.005-3.776-.355a58.77 58.77 0 01-.426-.74c-5.451-9.57-7.38-17.916-5.884-25.064h.001C360.133 7.81 365 1.86 373.31-2.872zM446.564-22.5c8.334-4.746 15.947-5.903 22.873-3.559 6.935 2.348 13.14 8.258 18.59 17.828 5.293 9.294 7.28 17.487 6.045 24.602l-.13.686c-1.478 7.224-6.326 13.209-14.634 17.94-8.026 4.57-15.417 5.754-22.205 3.628l-.656-.216c-2.605-.91-5.104-2.31-7.498-4.203-1.038-.822-1.105-2.37-.171-3.376l6.703-7.212a2.474 2.474 0 013.512-.114l8.013 7.57c1.144 1.09 2.486 1.744 4.016 1.95 1.44.193 2.753-.068 3.922-.79l.232-.15c1.264-.857 2.031-2.128 2.312-3.77l.001-.004 5.562-34.32c.37-2.287-.04-4.164-1.306-5.557-1.261-1.434-3.046-1.966-5.269-1.662h.001l-33.613 4.328h.001c-2.416.296-4.318 1.164-5.656 2.636l-.002.002c-1.316 1.461-1.82 3.185-1.502 5.135l.001.006c.342 1.928 1.535 3.908 3.511 5.942l.006.006.006.006 7.912 7.475a2.474 2.474 0 01.114 3.483l-5.301 5.704c-1.095 1.178-2.98 1.005-3.776-.355-.143-.244-.285-.49-.427-.74-5.45-9.57-7.379-17.915-5.883-25.064h.001c1.518-7.153 6.385-13.103 14.695-17.835zm73.254-19.629c8.334-4.746 15.947-5.902 22.872-3.558 6.935 2.347 13.14 8.257 18.591 17.828 5.292 9.293 7.28 17.486 6.044 24.602l-.13.685c-1.477 7.224-6.325 13.21-14.634 17.94-8.026 4.57-15.417 5.754-22.205 3.628l-.655-.215c-2.606-.91-5.105-2.31-7.499-4.204-1.038-.821-1.104-2.37-.171-3.375l6.703-7.212a2.474 2.474 0 013.512-.114l8.013 7.57c1.144 1.09 2.486 1.743 4.016 1.949 1.44.194 2.754-.067 3.923-.789l.231-.15c1.264-.858 2.032-2.129 2.313-3.771v-.003l5.562-34.321c.37-2.287-.039-4.164-1.306-5.556-1.261-1.435-3.046-1.966-5.269-1.663h.001l-33.613 4.329h.001c-2.416.296-4.317 1.164-5.656 2.636l-.001.002c-1.317 1.46-1.821 3.184-1.502 5.135l.001.006c.341 1.927 1.534 3.908 3.51 5.941l.006.007.007.005 7.911 7.476a2.474 2.474 0 01.114 3.483l-5.301 5.703c-1.095 1.179-2.979 1.006-3.776-.354a72.303 72.303 0 01-.426-.74c-5.45-9.57-7.38-17.916-5.884-25.065h.002c1.517-7.152 6.385-13.102 14.695-17.835zm73.253-19.628c8.334-4.746 15.947-5.902 22.873-3.558 6.935 2.347 13.14 8.257 18.59 17.828 5.292 9.293 7.28 17.486 6.045 24.602l-.13.685c-1.478 7.224-6.326 13.21-14.635 17.94-8.025 4.571-15.416 5.754-22.205 3.628l-.655-.215c-2.605-.91-5.104-2.31-7.498-4.204-1.038-.821-1.105-2.37-.171-3.375l6.702-7.212a2.476 2.476 0 013.513-.114l8.013 7.57c1.144 1.09 2.486 1.743 4.016 1.949 1.439.194 2.753-.067 3.922-.789l.232-.15c1.264-.858 2.031-2.129 2.312-3.77l.001-.004 5.562-34.321c.37-2.286-.04-4.164-1.307-5.556-1.26-1.435-3.046-1.966-5.268-1.663h0l-33.612 4.329h.001c-2.417.296-4.318 1.164-5.656 2.636l-.002.002c-1.317 1.46-1.82 3.184-1.502 5.135l.001.006c.342 1.928 1.535 3.908 3.511 5.941l.006.007.006.005 7.912 7.476a2.475 2.475 0 01.113 3.483l-5.3 5.704c-1.096 1.178-2.98 1.005-3.776-.355-.143-.244-.285-.49-.427-.74-5.45-9.57-7.38-17.916-5.883-25.065h.001c1.518-7.152 6.385-13.102 14.695-17.835zM-44.904 194.414c8.333-4.746 15.946-5.902 22.872-3.558 6.935 2.347 13.14 8.257 18.59 17.828 5.293 9.293 7.28 17.486 6.045 24.602l-.13.685c-1.477 7.224-6.326 13.209-14.634 17.94-8.026 4.571-15.417 5.754-22.205 3.628l-.656-.215c-2.605-.911-5.104-2.311-7.498-4.204-1.038-.821-1.104-2.37-.17-3.375l6.702-7.212a2.474 2.474 0 013.512-.114l8.013 7.57c1.144 1.09 2.486 1.743 4.016 1.949 1.44.193 2.753-.067 3.922-.789l.232-.15c1.264-.858 2.031-2.129 2.313-3.771v-.004l5.562-34.32c.37-2.287-.04-4.164-1.306-5.556-1.26-1.435-3.046-1.966-5.269-1.663h0l-33.612 4.329.001-.001c-2.416.297-4.317 1.165-5.656 2.637l-.001.001c-1.317 1.462-1.82 3.185-1.503 5.136l.002.006c.341 1.927 1.534 3.908 3.51 5.941l.006.007.007.005 7.911 7.476a2.474 2.474 0 01.114 3.483l-5.3 5.703c-1.096 1.179-2.98 1.006-3.777-.354a70.488 70.488 0 01-.426-.74c-5.45-9.57-7.38-17.916-5.884-25.065l.002.001c1.517-7.153 6.384-13.103 14.695-17.836zm73.253-19.628c8.334-4.746 15.947-5.902 22.873-3.558 6.935 2.347 13.14 8.257 18.59 17.828 5.292 9.293 7.28 17.486 6.045 24.602l-.13.685c-1.478 7.224-6.326 13.209-14.635 17.941-8.025 4.57-15.416 5.753-22.205 3.627l-.655-.215c-2.605-.911-5.105-2.31-7.498-4.204-1.038-.821-1.105-2.37-.172-3.375l6.703-7.212a2.474 2.474 0 013.512-.114l8.013 7.57c1.145 1.09 2.486 1.743 4.016 1.949 1.44.194 2.754-.067 3.923-.789l.232-.15c1.264-.858 2.03-2.129 2.312-3.771v-.003l5.563-34.321c.37-2.286-.04-4.164-1.307-5.556-1.26-1.435-3.046-1.966-5.269-1.663h.001l-33.612 4.329v-.001c-2.416.297-4.317 1.165-5.656 2.637v.002c-1.318 1.461-1.821 3.184-1.503 5.135l.001.006c.342 1.927 1.535 3.908 3.51 5.941l.007.007.006.005 7.912 7.476a2.474 2.474 0 01.113 3.483l-5.3 5.703c-1.096 1.179-2.98 1.006-3.776-.354a70.488 70.488 0 01-.427-.74c-5.45-9.57-7.38-17.916-5.883-25.065v.001c1.519-7.153 6.386-13.103 14.696-17.836zm73.253-19.628c8.334-4.746 15.947-5.903 22.873-3.559 6.935 2.348 13.14 8.258 18.59 17.828 5.293 9.294 7.28 17.487 6.045 24.603l-.13.685c-1.478 7.224-6.326 13.209-14.634 17.94-8.026 4.571-15.417 5.754-22.205 3.628l-.656-.216c-2.605-.91-5.104-2.31-7.498-4.203-1.038-.821-1.105-2.371-.171-3.375l6.703-7.212a2.474 2.474 0 013.512-.115l8.013 7.571c1.144 1.09 2.486 1.743 4.016 1.949 1.44.193 2.753-.068 3.922-.789l.232-.15c1.264-.858 2.031-2.129 2.313-3.771v-.004l5.562-34.321c.37-2.286-.04-4.163-1.306-5.556-1.261-1.434-3.046-1.965-5.269-1.662h.001l-33.613 4.328h0c-2.415.297-4.317 1.164-5.655 2.636l-.001.002c-1.317 1.461-1.82 3.185-1.503 5.135l.001.006c.342 1.928 1.535 3.909 3.511 5.942l.006.007.007.005 7.911 7.475a2.475 2.475 0 01.114 3.484l-5.301 5.703c-1.095 1.179-2.98 1.006-3.776-.355a70.3 70.3 0 01-.426-.739c-5.45-9.57-7.38-17.916-5.884-25.065h.001c1.518-7.152 6.385-13.103 14.695-17.835zm73.254-19.629c8.334-4.746 15.947-5.902 22.873-3.558 6.935 2.347 13.14 8.257 18.59 17.828 5.293 9.293 7.28 17.486 6.045 24.602l-.13.685c-1.478 7.224-6.326 13.209-14.634 17.941-8.026 4.57-15.417 5.754-22.205 3.627l-.656-.215c-2.605-.91-5.104-2.31-7.498-4.204-1.038-.821-1.105-2.37-.171-3.375l6.703-7.212a2.474 2.474 0 013.512-.114l8.013 7.57c1.144 1.09 2.486 1.743 4.016 1.949 1.44.194 2.753-.067 3.922-.788l.232-.15c1.264-.859 2.031-2.13 2.312-3.772l.001-.003 5.562-34.321c.37-2.286-.04-4.164-1.306-5.556-1.261-1.435-3.046-1.966-5.269-1.662l.001-.001-33.613 4.329.001-.001c-2.416.297-4.318 1.165-5.656 2.637l-.002.002c-1.316 1.461-1.82 3.184-1.502 5.135l.001.006c.342 1.928 1.535 3.908 3.511 5.941l.006.007.006.005 7.912 7.476a2.474 2.474 0 01.114 3.483l-5.301 5.704c-1.095 1.178-2.98 1.005-3.776-.355a84.692 84.692 0 01-.427-.739c-5.45-9.571-7.379-17.917-5.883-25.065h.001c1.518-7.153 6.385-13.103 14.695-17.836zm73.254-19.628c8.334-4.745 15.947-5.902 22.873-3.558 6.935 2.347 13.14 8.257 18.59 17.828 5.293 9.293 7.28 17.487 6.045 24.602l-.13.686c-1.478 7.224-6.326 13.208-14.634 17.94-8.026 4.57-15.417 5.754-22.205 3.628l-.656-.216c-2.605-.91-5.104-2.31-7.498-4.204-1.038-.821-1.105-2.37-.171-3.375l6.703-7.212a2.474 2.474 0 013.512-.114l8.013 7.57c1.144 1.091 2.486 1.743 4.016 1.949 1.439.194 2.753-.067 3.922-.788l.232-.15c1.264-.859 2.031-2.13 2.312-3.772l.001-.003 5.562-34.321c.37-2.286-.04-4.163-1.307-5.556-1.26-1.434-3.046-1.966-5.268-1.662l.001-.001-33.613 4.329.001-.001c-2.416.297-4.318 1.165-5.656 2.637l-.002.002c-1.317 1.461-1.82 3.184-1.502 5.135l.001.006c.342 1.928 1.535 3.908 3.511 5.942l.006.006.006.006 7.912 7.475a2.475 2.475 0 01.114 3.483l-5.301 5.704c-1.095 1.178-2.98 1.005-3.776-.355a84.692 84.692 0 01-.427-.739c-5.45-9.571-7.379-17.917-5.883-25.065h.001c1.518-7.153 6.385-13.103 14.695-17.836zm73.254-19.628c8.333-4.746 15.946-5.902 22.872-3.558 6.935 2.347 13.14 8.257 18.59 17.827 5.293 9.294 7.281 17.487 6.045 24.603l-.13.685c-1.477 7.224-6.326 13.209-14.634 17.94-8.026 4.571-15.417 5.754-22.205 3.628l-.656-.215c-2.605-.911-5.104-2.311-7.498-4.204-1.038-.821-1.104-2.37-.171-3.375l6.703-7.212a2.474 2.474 0 013.512-.114l8.013 7.57c1.144 1.09 2.486 1.743 4.016 1.949 1.44.193 2.753-.068 3.923-.789l.231-.15c1.264-.858 2.031-2.129 2.313-3.771v-.004l5.562-34.32c.37-2.287-.039-4.164-1.306-5.556-1.261-1.435-3.046-1.966-5.269-1.663h.001l-33.613 4.328h.001c-2.416.297-4.317 1.165-5.656 2.637l-.001.001c-1.317 1.462-1.821 3.185-1.503 5.135l.002.006c.341 1.928 1.534 3.909 3.51 5.942l.006.007.007.005 7.911 7.476a2.474 2.474 0 01.114 3.483l-5.301 5.703c-1.095 1.179-2.979 1.006-3.776-.355-.142-.243-.285-.49-.426-.739-5.45-9.57-7.38-17.916-5.884-25.065l.002.001c1.517-7.153 6.385-13.104 14.695-17.836zm73.253-19.628c8.334-4.746 15.947-5.902 22.873-3.558 6.935 2.347 13.14 8.257 18.59 17.828 5.292 9.293 7.28 17.486 6.045 24.602l-.13.685c-1.478 7.224-6.326 13.209-14.635 17.94-8.025 4.571-15.416 5.754-22.205 3.628l-.655-.215c-2.605-.911-5.105-2.311-7.498-4.204-1.038-.821-1.105-2.37-.171-3.375l6.702-7.212a2.474 2.474 0 013.512-.114l8.013 7.57c1.145 1.09 2.487 1.743 4.016 1.949 1.44.193 2.754-.067 3.923-.789l.232-.15c1.264-.858 2.031-2.129 2.312-3.771v-.004l5.563-34.32c.37-2.287-.04-4.164-1.307-5.556-1.26-1.435-3.046-1.966-5.269-1.663h.001l-33.612 4.329.001-.001c-2.417.297-4.318 1.165-5.657 2.637l-.001.001c-1.317 1.462-1.82 3.185-1.502 5.135l.001.007c.342 1.927 1.535 3.908 3.511 5.941l.006.007.006.005 7.912 7.476a2.475 2.475 0 01.113 3.483l-5.3 5.703c-1.096 1.179-2.98 1.006-3.776-.354a72.304 72.304 0 01-.427-.74c-5.45-9.57-7.38-17.916-5.883-25.065h.001c1.518-7.152 6.385-13.102 14.695-17.835zm73.253-19.628c8.334-4.746 15.947-5.903 22.873-3.559 6.935 2.348 13.14 8.258 18.59 17.828 5.293 9.294 7.281 17.487 6.045 24.602l-.13.686c-1.477 7.224-6.326 13.209-14.634 17.94-8.026 4.57-15.417 5.754-22.205 3.628l-.656-.216c-2.605-.91-5.104-2.31-7.498-4.203-1.038-.822-1.104-2.371-.171-3.375l6.703-7.213a2.474 2.474 0 013.512-.114l8.013 7.571c1.144 1.09 2.486 1.743 4.016 1.948 1.44.194 2.753-.067 3.922-.788l.232-.15c1.264-.858 2.031-2.129 2.313-3.771v-.004l5.562-34.32c.37-2.287-.04-4.164-1.306-5.557-1.261-1.434-3.046-1.965-5.269-1.662h.001l-33.613 4.328h.001c-2.416.296-4.317 1.164-5.656 2.636l-.001.002c-1.317 1.461-1.821 3.185-1.503 5.135l.001.006c.342 1.928 1.535 3.908 3.511 5.942l.006.006.007.006 7.911 7.475a2.474 2.474 0 01.114 3.483l-5.301 5.704c-1.095 1.178-2.98 1.006-3.776-.355-.143-.244-.285-.49-.426-.74-5.451-9.57-7.38-17.915-5.884-25.064h.001c1.518-7.153 6.385-13.103 14.695-17.835zm73.254-19.629c8.334-4.746 15.947-5.902 22.873-3.558 6.935 2.347 13.14 8.257 18.59 17.828 5.293 9.293 7.28 17.486 6.045 24.602l-.13.685c-1.478 7.224-6.326 13.21-14.634 17.94-8.026 4.571-15.417 5.754-22.205 3.628l-.656-.215c-2.605-.91-5.104-2.31-7.498-4.204-1.038-.821-1.105-2.37-.171-3.375l6.703-7.212a2.475 2.475 0 013.512-.114l8.013 7.57c1.144 1.09 2.486 1.743 4.016 1.949 1.44.194 2.753-.067 3.922-.789l.232-.15c1.264-.858 2.031-2.129 2.313-3.77v-.004l5.562-34.321c.37-2.286-.04-4.164-1.306-5.556-1.261-1.435-3.046-1.966-5.269-1.663h.001l-33.613 4.329h.001c-2.416.296-4.317 1.164-5.656 2.636l-.001.002c-1.317 1.46-1.821 3.184-1.503 5.135l.001.006c.342 1.927 1.535 3.908 3.511 5.941l.006.007.006.005 7.912 7.476a2.474 2.474 0 01.114 3.483l-5.301 5.703c-1.095 1.179-2.98 1.006-3.776-.354-.143-.244-.285-.49-.427-.74-5.45-9.57-7.379-17.916-5.883-25.065h.001c1.518-7.152 6.385-13.102 14.695-17.835zm73.254-19.628c8.334-4.746 15.947-5.902 22.873-3.558 6.934 2.347 13.139 8.257 18.59 17.828 5.292 9.293 7.28 17.486 6.044 24.602l-.13.685c-1.477 7.224-6.325 13.21-14.634 17.94-8.026 4.571-15.417 5.754-22.205 3.628l-.655-.215c-2.606-.91-5.105-2.31-7.499-4.204-1.038-.82-1.104-2.37-.171-3.375l6.703-7.212a2.474 2.474 0 013.512-.114l8.013 7.57c1.144 1.09 2.486 1.743 4.016 1.949 1.44.194 2.754-.067 3.923-.788l.231-.15c1.264-.859 2.032-2.13 2.313-3.772v-.003l5.562-34.321c.37-2.286-.039-4.164-1.306-5.556-1.261-1.435-3.046-1.966-5.269-1.662h.001l-33.613 4.328h.001c-2.416.296-4.317 1.164-5.656 2.636l-.001.002c-1.317 1.461-1.82 3.184-1.502 5.135l.001.006c.341 1.928 1.534 3.908 3.51 5.941l.006.007.007.005 7.912 7.476a2.475 2.475 0 01.113 3.483l-5.301 5.703c-1.095 1.18-2.979 1.006-3.775-.354-.143-.244-.285-.49-.427-.74-5.45-9.57-7.38-17.916-5.884-25.064h.002c1.517-7.153 6.385-13.103 14.695-17.836zm73.254-19.628c8.333-4.746 15.947-5.903 22.872-3.559 6.935 2.348 13.14 8.258 18.591 17.828 5.292 9.294 7.28 17.487 6.044 24.603l-.13.685c-1.477 7.224-6.326 13.209-14.634 17.94-8.026 4.57-15.417 5.754-22.205 3.628l-.655-.216c-2.606-.91-5.105-2.31-7.499-4.203-1.038-.821-1.104-2.37-.171-3.375l6.703-7.212a2.474 2.474 0 013.512-.115l8.013 7.57c1.144 1.091 2.486 1.744 4.016 1.95 1.44.193 2.754-.068 3.923-.789l.231-.15c1.264-.858 2.032-2.129 2.313-3.771v-.004l5.562-34.32c.37-2.287-.039-4.164-1.306-5.557-1.261-1.434-3.046-1.965-5.269-1.662h.001l-33.613 4.328h.001c-2.416.297-4.317 1.165-5.656 2.636l-.001.002c-1.317 1.462-1.821 3.185-1.503 5.135l.002.006c.341 1.928 1.534 3.909 3.51 5.942l.006.007.007.005 7.911 7.475a2.474 2.474 0 01.114 3.484l-5.301 5.703c-1.095 1.179-2.979 1.006-3.776-.355-.142-.243-.285-.49-.426-.739-5.45-9.57-7.38-17.916-5.884-25.065h.002c1.517-7.152 6.385-13.103 14.695-17.835zm-711.23 275.799c8.334-4.746 15.947-5.902 22.873-3.558 6.935 2.347 13.14 8.257 18.59 17.828 5.293 9.293 7.28 17.486 6.045 24.602l-.13.685c-1.478 7.224-6.326 13.209-14.634 17.941-8.026 4.57-15.417 5.753-22.206 3.627l-.655-.215c-2.605-.911-5.104-2.31-7.498-4.204-1.038-.821-1.105-2.37-.171-3.375l6.703-7.212a2.475 2.475 0 013.512-.114l8.013 7.57c1.144 1.09 2.486 1.743 4.016 1.949 1.44.194 2.753-.067 3.922-.789l.232-.149c1.264-.859 2.031-2.13 2.312-3.772v-.003l5.563-34.321c.37-2.286-.04-4.164-1.307-5.556-1.26-1.435-3.046-1.966-5.268-1.663h0l-33.612 4.329v-.001c-2.416.297-4.317 1.165-5.655 2.637l-.002.002c-1.317 1.461-1.82 3.184-1.502 5.135l.001.006c.342 1.927 1.535 3.908 3.51 5.941l.007.007.006.005 7.912 7.476a2.474 2.474 0 01.114 3.483l-5.301 5.703c-1.096 1.179-2.98 1.006-3.776-.354a70.488 70.488 0 01-.427-.74c-5.45-9.57-7.38-17.916-5.883-25.065l.001.001c1.518-7.153 6.385-13.103 14.695-17.836zm73.254-19.628c8.333-4.746 15.946-5.903 22.872-3.559 6.935 2.348 13.14 8.258 18.59 17.828 5.293 9.294 7.28 17.487 6.045 24.603l-.13.685c-1.477 7.224-6.326 13.209-14.634 17.94-8.026 4.571-15.417 5.754-22.205 3.628l-.656-.216c-2.605-.91-5.104-2.31-7.498-4.203-1.038-.821-1.104-2.371-.17-3.375l6.702-7.212a2.474 2.474 0 013.512-.115l8.013 7.571c1.144 1.09 2.486 1.743 4.016 1.949 1.44.193 2.754-.068 3.922-.789l.232-.15c1.264-.858 2.032-2.129 2.313-3.771v-.004l5.562-34.321c.37-2.286-.04-4.163-1.306-5.556-1.26-1.434-3.046-1.965-5.269-1.662h0l-33.612 4.328h.001c-2.416.297-4.317 1.164-5.656 2.636l-.001.002c-1.317 1.461-1.82 3.185-1.503 5.135l.002.006c.341 1.928 1.534 3.909 3.51 5.942l.006.007.007.005 7.911 7.475a2.476 2.476 0 01.114 3.484l-5.3 5.703c-1.096 1.179-2.98 1.006-3.777-.355a70.3 70.3 0 01-.426-.739c-5.45-9.57-7.38-17.916-5.884-25.065h.002c1.517-7.152 6.385-13.103 14.695-17.835zm73.253-19.628c8.334-4.746 15.947-5.903 22.873-3.559 6.935 2.348 13.14 8.258 18.59 17.828 5.292 9.294 7.28 17.487 6.045 24.603l-.13.685c-1.478 7.224-6.326 13.209-14.635 17.94-8.025 4.571-15.416 5.754-22.205 3.628l-.655-.216c-2.605-.91-5.105-2.31-7.498-4.203-1.038-.821-1.105-2.371-.171-3.375l6.702-7.212a2.474 2.474 0 013.512-.115l8.013 7.571c1.145 1.09 2.487 1.743 4.016 1.949 1.44.193 2.754-.068 3.923-.789l.232-.15c1.264-.858 2.031-2.129 2.312-3.771v-.004l5.563-34.321c.37-2.286-.04-4.163-1.307-5.556-1.26-1.434-3.046-1.965-5.269-1.662h.001l-33.612 4.328h.001c-2.417.297-4.318 1.164-5.657 2.636l-.001.002c-1.317 1.462-1.82 3.185-1.502 5.135l.001.006c.342 1.928 1.535 3.909 3.511 5.942l.006.007.006.005 7.912 7.475a2.476 2.476 0 01.113 3.484l-5.3 5.703c-1.096 1.179-2.98 1.006-3.776-.355a72.11 72.11 0 01-.427-.739c-5.45-9.57-7.38-17.916-5.883-25.065h.001c1.518-7.152 6.385-13.103 14.695-17.835zm73.254-19.629c8.334-4.745 15.947-5.902 22.873-3.558 6.935 2.347 13.14 8.257 18.59 17.828 5.292 9.294 7.28 17.487 6.045 24.602l-.13.686c-1.478 7.224-6.326 13.208-14.635 17.94-8.025 4.57-15.417 5.754-22.205 3.628l-.655-.216c-2.605-.91-5.105-2.31-7.498-4.204-1.038-.821-1.105-2.37-.172-3.375l6.703-7.212a2.474 2.474 0 013.512-.114l8.013 7.57c1.145 1.091 2.486 1.743 4.016 1.949 1.44.194 2.754-.067 3.923-.788l.231-.15c1.265-.859 2.032-2.129 2.313-3.772v-.003l5.563-34.321c.37-2.286-.04-4.163-1.307-5.556-1.261-1.434-3.046-1.966-5.269-1.662l.001-.001-33.612 4.329v-.001c-2.416.297-4.317 1.165-5.656 2.637l-.001.002c-1.317 1.461-1.82 3.184-1.502 5.135l.001.006c.342 1.928 1.535 3.908 3.511 5.942l.006.006.006.006 7.912 7.475a2.475 2.475 0 01.113 3.483l-5.301 5.704c-1.095 1.178-2.979 1.005-3.775-.355a84.692 84.692 0 01-.427-.739c-5.45-9.571-7.38-17.917-5.883-25.065h.001c1.518-7.153 6.385-13.103 14.695-17.836zm73.253-19.628c8.334-4.746 15.947-5.902 22.873-3.558 6.935 2.347 13.14 8.257 18.59 17.827 5.293 9.294 7.28 17.487 6.045 24.603l-.13.685c-1.478 7.224-6.326 13.209-14.634 17.94-8.026 4.571-15.417 5.754-22.205 3.628l-.656-.215c-2.605-.911-5.104-2.311-7.498-4.204-1.038-.821-1.105-2.37-.171-3.375l6.703-7.212a2.474 2.474 0 013.512-.114l8.013 7.57c1.144 1.09 2.486 1.743 4.016 1.949 1.44.193 2.753-.068 3.922-.789l.232-.15c1.264-.858 2.031-2.129 2.313-3.771v-.004l5.562-34.32c.37-2.287-.04-4.164-1.306-5.556-1.261-1.435-3.046-1.966-5.269-1.663h.001l-33.613 4.328h.001c-2.416.297-4.318 1.165-5.656 2.637l-.001.001c-1.317 1.462-1.821 3.185-1.503 5.135l.001.006c.342 1.928 1.535 3.909 3.511 5.942l.006.007.006.005 7.912 7.476a2.474 2.474 0 01.114 3.483l-5.301 5.703c-1.095 1.179-2.98 1.006-3.776-.355-.143-.243-.285-.49-.427-.739-5.45-9.57-7.379-17.916-5.883-25.065l.001.001c1.518-7.153 6.385-13.103 14.695-17.836zm73.254-19.628c8.334-4.746 15.947-5.902 22.873-3.558 6.934 2.347 13.139 8.257 18.59 17.828 5.292 9.293 7.28 17.486 6.044 24.602l-.13.685c-1.477 7.224-6.325 13.209-14.634 17.94-8.026 4.571-15.417 5.754-22.205 3.628l-.655-.215c-2.606-.911-5.105-2.311-7.499-4.204-1.038-.821-1.104-2.37-.171-3.375l6.703-7.212a2.474 2.474 0 013.512-.114l8.013 7.57c1.144 1.09 2.486 1.743 4.016 1.949 1.44.193 2.754-.067 3.923-.789l.231-.15c1.264-.858 2.032-2.129 2.313-3.771v-.004l5.562-34.32c.37-2.287-.039-4.164-1.306-5.556-1.261-1.435-3.046-1.966-5.269-1.663h.001l-33.613 4.328h.001c-2.416.297-4.317 1.165-5.656 2.637l-.001.001c-1.317 1.462-1.82 3.185-1.502 5.136l.001.006c.341 1.927 1.534 3.908 3.51 5.941l.006.007.007.005 7.912 7.476a2.475 2.475 0 01.113 3.483l-5.301 5.703c-1.095 1.179-2.979 1.006-3.775-.354a72.304 72.304 0 01-.427-.74c-5.45-9.57-7.38-17.916-5.884-25.065l.002.001c1.517-7.153 6.385-13.103 14.695-17.836zm73.254-19.628c8.333-4.746 15.947-5.903 22.872-3.559 6.935 2.348 13.14 8.258 18.591 17.828 5.292 9.294 7.28 17.487 6.044 24.602l-.13.686c-1.477 7.224-6.326 13.209-14.634 17.94-8.026 4.57-15.417 5.754-22.205 3.628l-.655-.216c-2.606-.91-5.105-2.31-7.499-4.203-1.038-.822-1.104-2.371-.171-3.375l6.703-7.213a2.474 2.474 0 013.512-.114l8.013 7.571c1.144 1.09 2.486 1.743 4.016 1.948 1.44.194 2.754-.067 3.923-.788l.231-.15c1.264-.858 2.032-2.129 2.313-3.771v-.004l5.562-34.321c.37-2.286-.039-4.163-1.306-5.556-1.261-1.434-3.046-1.965-5.269-1.662l.001-.001-33.613 4.329h.001c-2.416.297-4.317 1.164-5.656 2.636l-.001.002c-1.317 1.461-1.821 3.185-1.503 5.135l.002.006c.341 1.928 1.534 3.908 3.51 5.942l.006.006.007.006 7.911 7.475a2.474 2.474 0 01.114 3.483l-5.301 5.704c-1.095 1.178-2.979 1.006-3.776-.355-.142-.244-.285-.49-.426-.739-5.45-9.571-7.38-17.916-5.884-25.065h.002c1.517-7.152 6.385-13.103 14.695-17.835zm73.254-19.628c8.333-4.746 15.946-5.903 22.872-3.559 6.935 2.348 13.14 8.258 18.59 17.828 5.293 9.294 7.281 17.487 6.045 24.602l-.13.686c-1.477 7.224-6.326 13.209-14.634 17.94-8.026 4.57-15.417 5.754-22.205 3.628l-.656-.216c-2.605-.91-5.104-2.31-7.498-4.203-1.038-.821-1.104-2.371-.171-3.375l6.703-7.212a2.474 2.474 0 013.512-.115l8.013 7.571c1.144 1.09 2.486 1.743 4.016 1.948 1.44.194 2.753-.067 3.923-.788l.231-.15c1.264-.858 2.031-2.129 2.313-3.771v-.004l5.562-34.321c.37-2.286-.039-4.163-1.306-5.556-1.261-1.434-3.046-1.965-5.269-1.662h.001l-33.613 4.328h.001c-2.416.297-4.317 1.164-5.656 2.636l-.001.002c-1.317 1.461-1.821 3.185-1.503 5.135l.002.006c.341 1.928 1.534 3.908 3.51 5.942l.006.007.007.005 7.911 7.475a2.474 2.474 0 01.114 3.483l-5.301 5.704c-1.095 1.178-2.979 1.006-3.776-.355-.142-.244-.285-.49-.426-.739-5.45-9.57-7.38-17.916-5.884-25.065h.001c1.518-7.152 6.386-13.103 14.696-17.835zm73.253-19.629c8.334-4.746 15.947-5.902 22.873-3.558 6.935 2.347 13.14 8.257 18.59 17.828 5.292 9.293 7.28 17.486 6.045 24.602l-.13.685c-1.478 7.224-6.326 13.209-14.635 17.941-8.025 4.57-15.416 5.754-22.205 3.627l-.655-.215c-2.605-.91-5.105-2.31-7.498-4.204-1.038-.821-1.105-2.37-.171-3.375l6.702-7.212a2.474 2.474 0 013.512-.114l8.013 7.57c1.145 1.09 2.487 1.743 4.016 1.949 1.44.194 2.754-.067 3.923-.789l.231-.149c1.265-.859 2.032-2.13 2.313-3.772v-.003l5.563-34.321c.37-2.286-.04-4.164-1.307-5.556-1.26-1.435-3.046-1.966-5.269-1.662l.001-.001-33.612 4.329v-.001c-2.416.297-4.317 1.165-5.656 2.637l-.001.002c-1.317 1.461-1.82 3.184-1.502 5.135l.001.006c.342 1.928 1.535 3.908 3.511 5.941l.006.007.006.005 7.912 7.476a2.475 2.475 0 01.113 3.483l-5.3 5.704c-1.096 1.178-2.98 1.005-3.776-.355a84.692 84.692 0 01-.427-.739c-5.45-9.571-7.38-17.917-5.883-25.066l.001.001c1.518-7.153 6.385-13.103 14.695-17.836zm73.253-19.628c8.334-4.746 15.947-5.903 22.873-3.558 6.935 2.347 13.14 8.257 18.59 17.827 5.293 9.294 7.281 17.487 6.045 24.603l-.13.685c-1.477 7.224-6.326 13.209-14.634 17.94-8.026 4.571-15.417 5.754-22.205 3.628l-.656-.216c-2.605-.91-5.104-2.31-7.498-4.203-1.038-.821-1.105-2.371-.171-3.375l6.703-7.212a2.474 2.474 0 013.512-.115l8.013 7.571c1.144 1.09 2.486 1.743 4.016 1.949 1.44.193 2.753-.068 3.922-.789l.232-.15c1.264-.858 2.031-2.129 2.313-3.771v-.004l5.562-34.32c.37-2.287-.04-4.164-1.306-5.557-1.261-1.434-3.046-1.965-5.269-1.662h.001l-33.613 4.328h.001c-2.416.297-4.317 1.164-5.656 2.636l-.001.002c-1.317 1.462-1.821 3.185-1.503 5.135l.001.006c.342 1.928 1.535 3.909 3.511 5.942l.006.007.006.005 7.912 7.475a2.475 2.475 0 01.114 3.484l-5.301 5.703c-1.095 1.179-2.98 1.006-3.776-.355a57.34 57.34 0 01-.426-.739c-5.451-9.57-7.38-17.916-5.884-25.065h.001c1.518-7.152 6.385-13.103 14.695-17.835zM217.469 294.564c8.334-4.746 15.947-5.903 22.873-3.559 6.935 2.347 13.14 8.257 18.59 17.828 5.292 9.294 7.28 17.487 6.045 24.602l-.13.686c-1.478 7.224-6.326 13.208-14.635 17.94-8.025 4.57-15.416 5.754-22.205 3.628l-.655-.216c-2.605-.91-5.105-2.31-7.498-4.203-1.038-.822-1.105-2.371-.171-3.376l6.702-7.212a2.474 2.474 0 013.512-.114l8.014 7.571c1.144 1.09 2.486 1.743 4.015 1.948 1.44.194 2.754-.067 3.923-.788l.232-.15c1.264-.858 2.031-2.129 2.312-3.772l.001-.003 5.562-34.321c.37-2.286-.04-4.163-1.307-5.556-1.26-1.434-3.046-1.966-5.268-1.662v-.001l-33.612 4.329.001-.001c-2.417.297-4.318 1.165-5.657 2.637l-.001.002c-1.317 1.461-1.82 3.184-1.502 5.135l.001.006c.342 1.928 1.535 3.908 3.511 5.942l.006.006.006.006 7.912 7.475a2.475 2.475 0 01.113 3.483l-5.3 5.704c-1.096 1.178-2.98 1.005-3.776-.355a84.692 84.692 0 01-.427-.739c-5.45-9.571-7.38-17.917-5.883-25.065h.001c1.518-7.153 6.385-13.103 14.695-17.835zm73.254-19.629c8.334-4.746 15.947-5.902 22.873-3.558 6.935 2.347 13.14 8.257 18.59 17.828 5.292 9.293 7.28 17.486 6.045 24.602l-.13.685c-1.478 7.224-6.326 13.209-14.635 17.94-8.025 4.571-15.416 5.754-22.205 3.628l-.655-.215c-2.605-.911-5.105-2.311-7.498-4.204-1.038-.821-1.105-2.37-.171-3.375l6.702-7.212a2.474 2.474 0 013.512-.114l8.013 7.57c1.145 1.09 2.487 1.743 4.016 1.949 1.44.193 2.754-.067 3.923-.789l.231-.15c1.265-.858 2.032-2.129 2.313-3.771v-.004l5.563-34.32c.37-2.287-.04-4.164-1.307-5.556-1.261-1.435-3.046-1.966-5.269-1.663h.001l-33.612 4.329v-.001c-2.416.297-4.317 1.165-5.656 2.637l-.001.001c-1.317 1.462-1.82 3.185-1.502 5.136l.001.006c.342 1.927 1.535 3.908 3.511 5.941l.006.007.006.005 7.912 7.476a2.475 2.475 0 01.113 3.483l-5.3 5.703c-1.096 1.179-2.98 1.006-3.776-.354a72.304 72.304 0 01-.427-.74c-5.45-9.57-7.38-17.916-5.883-25.065l.001.001c1.518-7.153 6.385-13.103 14.695-17.836zm73.253-19.628c8.334-4.746 15.947-5.902 22.873-3.558 6.935 2.347 13.14 8.257 18.59 17.828 5.293 9.293 7.281 17.486 6.045 24.602l-.13.685c-1.477 7.224-6.326 13.209-14.634 17.941-8.026 4.57-15.417 5.753-22.205 3.627l-.656-.215c-2.605-.911-5.104-2.31-7.498-4.204-1.038-.821-1.105-2.37-.171-3.375l6.703-7.212a2.474 2.474 0 013.512-.114l8.013 7.57c1.144 1.09 2.486 1.743 4.016 1.949 1.44.194 2.753-.067 3.922-.789l.232-.15c1.264-.858 2.031-2.129 2.313-3.771v-.003l5.562-34.321c.37-2.286-.04-4.164-1.306-5.556-1.261-1.435-3.046-1.966-5.269-1.663h.001l-33.613 4.329.001-.001c-2.416.297-4.317 1.165-5.656 2.637l-.001.002c-1.317 1.461-1.821 3.184-1.503 5.135l.001.006c.342 1.927 1.535 3.908 3.511 5.941l.006.007.006.005 7.912 7.476a2.474 2.474 0 01.114 3.483l-5.301 5.703c-1.095 1.179-2.98 1.006-3.776-.354a57.482 57.482 0 01-.426-.74c-5.451-9.57-7.38-17.916-5.884-25.065l.001.001c1.518-7.153 6.385-13.103 14.695-17.836zm73.254-19.628c8.334-4.746 15.947-5.903 22.873-3.559 6.935 2.348 13.14 8.258 18.59 17.828 5.293 9.294 7.28 17.487 6.045 24.603l-.13.685c-1.478 7.224-6.326 13.209-14.634 17.94-8.026 4.571-15.417 5.754-22.205 3.628l-.656-.216c-2.605-.91-5.104-2.31-7.498-4.203-1.038-.821-1.105-2.371-.171-3.375l6.703-7.212a2.474 2.474 0 013.512-.115l8.013 7.571c1.144 1.09 2.486 1.743 4.016 1.949 1.44.193 2.753-.068 3.922-.789l.232-.15c1.264-.858 2.031-2.129 2.312-3.771l.001-.004 5.562-34.321c.37-2.286-.04-4.163-1.306-5.556-1.261-1.434-3.046-1.965-5.269-1.662h.001l-33.613 4.328h.001c-2.416.297-4.318 1.164-5.656 2.636l-.001.002c-1.317 1.461-1.821 3.185-1.503 5.135l.001.006c.342 1.928 1.535 3.909 3.511 5.942l.006.007.006.005 7.912 7.475a2.475 2.475 0 01.114 3.484l-5.301 5.703c-1.095 1.179-2.98 1.006-3.776-.355a72.11 72.11 0 01-.427-.739c-5.45-9.57-7.379-17.916-5.883-25.065h.001c1.518-7.152 6.385-13.103 14.695-17.835zm73.254-19.628c8.334-4.746 15.947-5.903 22.872-3.559 6.935 2.348 13.14 8.258 18.591 17.828 5.292 9.294 7.28 17.487 6.044 24.603l-.13.685c-1.477 7.224-6.325 13.209-14.634 17.94-8.026 4.571-15.417 5.754-22.205 3.628l-.655-.216c-2.606-.91-5.105-2.31-7.499-4.203-1.038-.821-1.104-2.371-.171-3.375l6.703-7.212a2.474 2.474 0 013.512-.115l8.013 7.571c1.144 1.09 2.486 1.743 4.016 1.949 1.44.193 2.754-.068 3.923-.789l.231-.15c1.264-.858 2.032-2.129 2.313-3.771v-.004l5.562-34.321c.37-2.286-.039-4.163-1.306-5.556-1.261-1.434-3.046-1.965-5.269-1.662h.001l-33.613 4.328h.001c-2.416.297-4.317 1.164-5.656 2.636l-.001.002c-1.317 1.462-1.82 3.185-1.502 5.135l.001.006c.341 1.928 1.534 3.909 3.51 5.942l.006.007.007.005 7.912 7.475a2.476 2.476 0 01.113 3.484l-5.301 5.703c-1.095 1.179-2.979 1.006-3.776-.355-.142-.244-.285-.49-.426-.739-5.45-9.57-7.38-17.916-5.884-25.065h.002c1.517-7.152 6.385-13.103 14.695-17.835zm73.253-19.629c8.334-4.745 15.947-5.902 22.873-3.558 6.935 2.347 13.14 8.257 18.59 17.828 5.293 9.293 7.28 17.487 6.045 24.602l-.13.686c-1.478 7.224-6.326 13.208-14.634 17.94-8.026 4.57-15.417 5.754-22.206 3.628l-.655-.216c-2.605-.91-5.104-2.31-7.498-4.204-1.038-.821-1.105-2.37-.171-3.375l6.703-7.212a2.474 2.474 0 013.512-.114l8.013 7.57c1.144 1.091 2.486 1.743 4.016 1.949 1.439.194 2.753-.067 3.922-.788l.232-.15c1.264-.859 2.031-2.13 2.312-3.772l.001-.003 5.562-34.321c.37-2.286-.04-4.163-1.307-5.556-1.26-1.434-3.046-1.966-5.268-1.662v-.001l-33.612 4.329.001-.001c-2.417.297-4.318 1.165-5.656 2.637l-.002.002c-1.317 1.461-1.82 3.184-1.502 5.135l.001.006c.342 1.928 1.535 3.908 3.511 5.942l.006.006.006.006 7.912 7.475a2.476 2.476 0 01.114 3.483l-5.301 5.704c-1.095 1.178-2.98 1.005-3.776-.355a84.692 84.692 0 01-.427-.739c-5.45-9.571-7.38-17.917-5.883-25.065h.001c1.518-7.153 6.385-13.103 14.695-17.836zm73.254-19.628c8.334-4.746 15.947-5.903 22.873-3.558 6.935 2.347 13.14 8.257 18.59 17.827 5.292 9.294 7.28 17.487 6.045 24.603l-.13.685c-1.478 7.224-6.326 13.209-14.635 17.94-8.025 4.571-15.416 5.754-22.205 3.628l-.655-.215c-2.605-.911-5.105-2.311-7.498-4.204-1.038-.821-1.105-2.37-.171-3.375l6.702-7.212a2.474 2.474 0 013.512-.114l8.014 7.57c1.144 1.09 2.486 1.743 4.015 1.949 1.44.193 2.754-.068 3.923-.789l.232-.15c1.264-.858 2.031-2.129 2.312-3.771v-.004l5.563-34.32c.37-2.287-.04-4.164-1.307-5.557-1.26-1.434-3.046-1.965-5.268-1.662h0l-33.612 4.328h.001c-2.417.297-4.318 1.165-5.657 2.637l-.001.001c-1.317 1.462-1.82 3.185-1.502 5.135l.001.006c.342 1.928 1.535 3.909 3.511 5.942l.006.007.006.005 7.912 7.476a2.475 2.475 0 01.113 3.483l-5.3 5.703c-1.096 1.179-2.98 1.006-3.776-.355-.143-.243-.285-.49-.427-.739-5.45-9.57-7.38-17.916-5.883-25.065l.001.001c1.518-7.153 6.385-13.104 14.695-17.836zM531.79 295.567c8.334-4.745 15.947-5.902 22.873-3.558 6.935 2.347 13.14 8.257 18.59 17.828 5.293 9.294 7.28 17.487 6.045 24.602l-.13.686c-1.478 7.224-6.326 13.208-14.634 17.94-8.026 4.57-15.417 5.754-22.205 3.628l-.656-.216c-2.605-.91-5.104-2.31-7.498-4.204-1.038-.821-1.105-2.37-.171-3.375l6.703-7.212a2.474 2.474 0 013.512-.114l8.013 7.57c1.144 1.091 2.486 1.743 4.016 1.949 1.44.194 2.753-.067 3.922-.788l.232-.15c1.264-.859 2.031-2.129 2.313-3.772v-.003l5.562-34.321c.37-2.286-.04-4.163-1.306-5.556-1.261-1.434-3.046-1.966-5.269-1.662l.001-.001-33.613 4.329.001-.001c-2.416.297-4.317 1.165-5.656 2.637l-.001.002c-1.317 1.461-1.821 3.184-1.503 5.135l.001.006c.342 1.928 1.535 3.908 3.511 5.942l.006.006.006.006 7.912 7.475a2.474 2.474 0 01.114 3.483l-5.301 5.704c-1.095 1.178-2.98 1.005-3.776-.355a65.016 65.016 0 01-.426-.739c-5.451-9.571-7.38-17.917-5.884-25.065h.001c1.518-7.153 6.385-13.103 14.695-17.836zm73.254-19.627c8.334-4.746 15.947-5.903 22.873-3.559 6.935 2.347 13.139 8.257 18.59 17.828 5.292 9.294 7.28 17.487 6.044 24.602l-.13.686c-1.477 7.224-6.325 13.208-14.634 17.94-8.026 4.57-15.417 5.754-22.205 3.628l-.655-.216c-2.606-.91-5.105-2.31-7.499-4.203-1.038-.822-1.104-2.371-.171-3.376l6.703-7.212a2.474 2.474 0 013.512-.114l8.013 7.571c1.144 1.09 2.486 1.742 4.016 1.948 1.44.194 2.754-.067 3.923-.788l.231-.15c1.265-.858 2.032-2.129 2.313-3.772v-.003l5.562-34.321c.37-2.286-.039-4.163-1.306-5.556-1.261-1.434-3.046-1.966-5.269-1.662l.001-.001-33.613 4.329.001-.001c-2.416.297-4.317 1.165-5.656 2.637l-.001.002c-1.317 1.461-1.82 3.184-1.502 5.135l.001.006c.341 1.928 1.534 3.908 3.51 5.942l.006.006.007.006 7.912 7.475a2.475 2.475 0 01.113 3.483l-5.301 5.704c-1.095 1.178-2.979 1.005-3.775-.355a84.692 84.692 0 01-.427-.739c-5.45-9.571-7.38-17.917-5.884-25.065h.002c1.517-7.153 6.385-13.103 14.695-17.835zm73.254-19.629c8.334-4.746 15.947-5.902 22.872-3.558 6.935 2.347 13.14 8.257 18.591 17.828 5.292 9.293 7.28 17.486 6.044 24.602l-.13.685c-1.477 7.224-6.325 13.209-14.634 17.94-8.026 4.571-15.417 5.754-22.205 3.628l-.655-.215c-2.606-.911-5.105-2.311-7.499-4.204-1.038-.821-1.104-2.37-.171-3.375l6.703-7.212a2.474 2.474 0 013.512-.114l8.013 7.57c1.144 1.09 2.486 1.743 4.016 1.949 1.44.193 2.754-.067 3.923-.789l.231-.15c1.264-.858 2.032-2.129 2.313-3.771v-.004l5.562-34.32c.37-2.287-.039-4.164-1.306-5.556-1.261-1.435-3.046-1.966-5.269-1.663h.001l-33.613 4.328h.001c-2.416.297-4.317 1.165-5.656 2.637l-.001.001c-1.317 1.462-1.821 3.185-1.503 5.135l.002.007c.341 1.927 1.534 3.908 3.51 5.941l.006.007.007.005 7.911 7.476a2.474 2.474 0 01.114 3.483l-5.301 5.703c-1.095 1.179-2.979 1.006-3.776-.354a72.303 72.303 0 01-.426-.74c-5.45-9.57-7.38-17.916-5.884-25.065l.002.001c1.517-7.153 6.385-13.103 14.695-17.836z" opacity=".4" stroke="#2161AB" stroke-width=".807"/></svg>