<svg width="32" height="32" viewBox="0 0 32 32" fill="none" xmlns="http://www.w3.org/2000/svg">
<path d="M28.8137 18.497L27.1715 16.6039C28.3551 15.1232 29 13.2925 29 11.3789C29 6.75878 25.2413 3 20.6211 3C16.0009 3 12.2422 6.75878 12.2422 11.3789C12.2422 15.999 16.001 19.7578 20.6211 19.7578H28.2383C28.3843 19.7578 28.5273 19.7158 28.6502 19.6368C28.773 19.5579 28.8706 19.4452 28.9313 19.3123C28.9919 19.1795 29.0131 19.032 28.9922 18.8874C28.9714 18.7428 28.9094 18.6073 28.8137 18.497ZM20.6211 16.5586C20.2004 16.5586 19.8594 16.2175 19.8594 15.7969C19.8594 15.3762 20.2004 15.0352 20.6211 15.0352C21.0418 15.0352 21.3828 15.3762 21.3828 15.7969C21.3828 16.2175 21.0418 16.5586 20.6211 16.5586ZM22.7403 11.0824C22.3692 11.4733 21.8964 11.7516 21.3829 11.8911V13.4907C21.3829 13.9114 21.0418 14.2524 20.6211 14.2524C20.2005 14.2524 19.8594 13.9114 19.8594 13.4907V11.2314C19.8594 10.8107 20.2005 10.4697 20.6211 10.4697C21.0083 10.4697 21.3685 10.3147 21.6356 10.0335C21.9024 9.75243 22.0382 9.38376 22.0181 8.99534C21.9804 8.2681 21.3796 7.68686 20.6504 7.67218C20.6408 7.67198 20.6313 7.67188 20.6218 7.67188C19.9253 7.67188 19.3321 8.18431 19.2358 8.87473C19.2268 8.9397 19.2222 9.00521 19.2223 9.0708C19.2223 9.49147 18.8812 9.83252 18.4606 9.83252C18.0399 9.83252 17.6988 9.49147 17.6988 9.0708C17.6988 8.9348 17.7083 8.79805 17.727 8.66419C17.9312 7.20052 19.2029 6.11873 20.6811 6.14905C22.205 6.17977 23.4605 7.39532 23.5395 8.91637C23.5815 9.72613 23.2977 10.4954 22.7403 11.0824Z" fill="#2161AB"/>
<path d="M13.918 19.8599H8.83985C8.41917 19.8599 8.07813 19.5188 8.07813 19.0981C8.07813 18.6775 8.41917 18.3364 8.83985 18.3364H13.5825C12.0085 16.7442 10.9689 14.6226 10.7589 12.2656C6.42718 12.584 3 16.21 3 20.6216C3 22.5352 3.64487 24.3658 4.82848 25.8466L3.18632 27.7396C3.09061 27.85 3.02864 27.9855 3.0078 28.1301C2.98695 28.2746 3.00811 28.4221 3.06875 28.555C3.12939 28.6879 3.22696 28.8005 3.34982 28.8795C3.47268 28.9585 3.61566 29.0005 3.76172 29.0005H11.3789C15.7905 29.0005 19.4165 25.5733 19.7349 21.2416C17.8391 21.0727 16.0958 20.3668 14.6574 19.2782C14.5764 19.6118 14.2765 19.8599 13.918 19.8599ZM13.918 22.9067H8.83985C8.41917 22.9067 8.07813 22.5657 8.07813 22.145C8.07813 21.7243 8.41917 21.3833 8.83985 21.3833H13.918C14.3386 21.3833 14.6797 21.7243 14.6797 22.145C14.6797 22.5657 14.3386 22.9067 13.918 22.9067Z" fill="#2161AB"/>
</svg>
