<svg width="32" height="32" fill="none" xmlns="http://www.w3.org/2000/svg"><path fill-rule="evenodd" clip-rule="evenodd" d="M19.125 3h-6.25a.625.625 0 00-.625.625v1.25c0 .345.28.625.625.625h6.25c.345 0 .625-.28.625-.625v-1.25A.625.625 0 0019.125 3zm-4.299 13.75h.674-1.14.466zm3.035 0h-.722.722z" fill="#2161AB"/><path d="M25.375 4.25H21v.625a1.877 1.877 0 01-1.875 1.875h-6.25A1.877 1.877 0 0111 4.875V4.25H6.625A.625.625 0 006 4.875v22.5c0 .345.28.625.625.625h18.75c.345 0 .625-.28.625-.625v-22.5a.625.625 0 00-.625-.625zm-11.32 10.302A2.474 2.474 0 0113.5 13a2.5 2.5 0 115 0 2.476 2.476 0 01-.556 1.552 3.122 3.122 0 011.806 2.823c0 .345-.28.625-.625.625h-6.25a.625.625 0 01-.625-.625 3.122 3.122 0 011.806-2.823zm7.57 9.698h-11.25a.625.625 0 110-1.25h11.25a.625.625 0 110 1.25zm0-2.5h-11.25a.625.625 0 110-1.25h11.25a.625.625 0 010 1.25z" fill="#2161AB"/></svg>