<svg width="32" height="32" fill="none" xmlns="http://www.w3.org/2000/svg"><g clip-path="url(#clip0_3_20418)"><path d="M25.438 22.625c-2.275 0-4.724.908-5.882 2.557l-6.447-1.27c.01-.114.016-.23.016-.35 0-1.07-.444-1.977-1.158-2.699l4.012-2.834c1.134.554 2.48.846 3.771.846 3.117 0 6.563-1.705 6.563-4.688 0-2.684-2.792-4.335-5.625-4.636v3.699a.937.937 0 11-1.875 0v-3.7c-2.832.302-5.625 1.952-5.625 4.637 0 1.072.444 1.978 1.158 2.7l-4.013 2.834c-1.134-.554-2.48-.846-3.77-.846C3.445 18.875 0 20.58 0 23.563c0 2.98 3.443 4.687 6.563 4.687 2.274 0 4.723-.908 5.88-2.557l6.448 1.27a3.81 3.81 0 00-.016.35c0 2.98 3.443 4.687 6.563 4.687C28.555 32 32 30.295 32 27.312c0-2.98-3.443-4.687-6.563-4.687zm-4.75-13.074V7.5h6.5a1 1 0 001-1V1a1 1 0 00-1-1h-8.375v9.55a8.711 8.711 0 011.875 0z" fill="#2161AB"/></g><defs><clipPath id="clip0_3_20418"><path fill="#fff" d="M0 0h32v32H0z"/></clipPath></defs></svg>