<svg width="32" height="32" fill="none" xmlns="http://www.w3.org/2000/svg"><path d="M26.5 16.6a.15.15 0 00.05-.1v-8a3.1 3.1 0 00-3.1-3.1H23v-.85a2.5 2.5 0 00-5 0v.85h-7.2v-.85a2.5 2.5 0 00-5 0v.85h-.4a3.05 3.05 0 00-3.05 3.1v14.3a3.05 3.05 0 003.05 3.1h10.35a7.35 7.35 0 1010.75-9.3zM19.4 4.55a1.1 1.1 0 012.2 0v.85h-2.2v-.85zm-12.2 0a1.1 1.1 0 012.2 0v.85H7.2v-.85zM6.05 11.5H20.5a.7.7 0 010 1.4H6.05a.7.7 0 110-1.4zm9.65 5.2H6.05a.7.7 0 110-1.4h9.65a.7.7 0 010 1.4zm6.6 11.85a5.9 5.9 0 01-5.75-4.65 8.558 8.558 0 01-.15-1.55 5.95 5.95 0 115.9 6.2z" fill="#2161AB"/><path d="M21 22.667L22.667 24 25 21" stroke="#2161AB" stroke-width="1.5" stroke-linecap="round" stroke-linejoin="round"/></svg>