<svg width="32" height="32" fill="none" xmlns="http://www.w3.org/2000/svg"><path d="M10.38 16c0-1.319.071-2.61.209-3.842H4.242A12.396 12.396 0 003.636 16c0 1.013.122 2.007.357 2.967h6.51A35.353 35.353 0 0110.38 16zm.278 4.415H4.445a12.33 12.33 0 002.811 4.327 12.278 12.278 0 005.9 3.295c-.481-.668-.918-1.515-1.298-2.529-.547-1.465-.953-3.202-1.2-5.093zm10.548-9.705h5.968a12.374 12.374 0 00-2.439-3.453 12.277 12.277 0 00-5.9-3.294c.482.668.92 1.515 1.298 2.529.462 1.235.823 2.665 1.073 4.218zm-10.42 0c.25-1.553.61-2.983 1.072-4.218.38-1.014.816-1.861 1.298-2.529a12.277 12.277 0 00-5.9 3.294 12.374 12.374 0 00-2.438 3.453h5.968zm10.547 9.705c-.246 1.891-.652 3.628-1.2 5.093-.379 1.014-.816 1.861-1.297 2.529a12.277 12.277 0 005.9-3.295 12.32 12.32 0 002.811-4.327h-6.214zm6.417-8.257h-6.347a35.496 35.496 0 01.086 6.809h6.51c.235-.96.356-1.954.356-2.967 0-1.325-.207-2.618-.605-3.842zm-7.877 8.257h-7.754c.233 1.707.604 3.268 1.096 4.586.787 2.105 1.827 3.362 2.78 3.362.955 0 1.995-1.257 2.782-3.362.492-1.318.862-2.88 1.096-4.586zm-7.62-9.705h7.486c-.232-1.367-.556-2.622-.962-3.711-.788-2.106-1.827-3.363-2.781-3.363-.954 0-1.994 1.257-2.78 3.363-.408 1.089-.731 2.344-.963 3.71zm7.693 1.448h-7.9A33.237 33.237 0 0011.828 16c0 1.013.044 2.007.128 2.967h8.08c.084-.96.127-1.954.127-2.967 0-1.325-.074-2.617-.217-3.842z" fill="#2161AB"/></svg>