<svg width="32" height="32" fill="none" xmlns="http://www.w3.org/2000/svg"><path d="M26.972 5H4.362A3.364 3.364 0 001 8.361V23.64A3.364 3.364 0 004.361 27h22.611a3.364 3.364 0 003.361-3.361V8.36A3.363 3.363 0 0026.973 5zM10.167 9.889a3.06 3.06 0 013.055 3.055A3.06 3.06 0 0110.167 16a3.06 3.06 0 01-3.056-3.056 3.06 3.06 0 013.056-3.055zm5.5 11.305a.917.917 0 01-.917.917H5.583a.917.917 0 01-.916-.917v-.61a3.363 3.363 0 013.36-3.362h4.279a3.364 3.364 0 013.36 3.361v.611zm10.083.917h-6.722a.917.917 0 010-1.833h6.722a.917.917 0 010 1.833zm0-4.889h-6.722a.917.917 0 010-1.833h6.722a.917.917 0 010 1.833zm0-4.889h-6.722a.916.916 0 110-1.833h6.722a.917.917 0 010 1.833z" fill="#2161AB"/></svg>