<svg width="680" height="284" fill="none" xmlns="http://www.w3.org/2000/svg"><path fill-rule="evenodd" clip-rule="evenodd" d="M529.379 191.493c12.846 8.704 28.865 10.545 48.058 5.524 19.246-5.035 32.339-14.492 39.277-28.372 6.977-13.948 7.57-31.994 1.778-54.135-5.779-22.088-15.069-37.4-27.872-45.939-12.803-8.538-28.855-10.283-48.155-5.234-19.246 5.035-32.36 14.41-39.342 28.124-6.927 13.7-7.502 31.593-1.724 53.681.151.574.303 1.144.458 1.709 1.017 3.707 5.325 5.252 8.581 3.209l13.608-8.536a5.938 5.938 0 001.901-8.144l-11.776-19.121c-2.81-5.033-4.05-9.445-3.722-13.239.383-3.807 2.17-6.747 5.362-8.817 3.246-2.085 7.283-2.789 12.114-2.11l69.3 9.324c4.396.556 7.39 2.451 8.982 5.683 1.632 3.163 1.504 6.845-.384 11.046l-29.411 65.426c-1.355 2.944-3.402 4.892-6.14 5.843-2.684.938-5.412.828-8.185-.33-2.773-1.157-4.964-3.056-6.574-5.695l-11.927-19.367a5.937 5.937 0 00-8.211-1.917l-17.208 10.795c-2.766 1.735-3.637 5.4-1.688 8.02 3.81 5.118 8.11 9.309 12.9 12.572z" fill="#E6EEFF" fill-opacity=".6"/></svg>