<svg width="100" height="108" fill="none" xmlns="http://www.w3.org/2000/svg"><path fill-rule="evenodd" clip-rule="evenodd" d="M29.089 91.982c8.235 5.58 18.503 6.76 30.806 3.541 12.338-3.227 20.73-9.29 25.178-18.186 4.473-8.942 4.853-20.51 1.14-34.703-3.704-14.159-9.66-23.974-17.867-29.448C60.14 7.713 49.85 6.595 37.478 9.831 25.14 13.06 16.734 19.068 12.258 27.86c-4.44 8.782-4.809 20.252-1.104 34.411.096.368.194.733.293 1.096.652 2.376 3.413 3.367 5.5 2.057l8.724-5.472a3.806 3.806 0 001.218-5.22l-7.549-12.26c-1.8-3.226-2.596-6.054-2.385-8.486.245-2.44 1.39-4.325 3.437-5.652 2.08-1.337 4.669-1.788 7.765-1.353L72.58 32.96c2.818.357 4.737 1.571 5.758 3.643 1.046 2.028.964 4.388-.246 7.081l-18.853 41.94c-.87 1.887-2.181 3.135-3.936 3.745-1.72.601-3.47.53-5.247-.211-1.778-.742-3.182-1.96-4.214-3.651L38.196 73.09a3.807 3.807 0 00-5.263-1.228l-11.031 6.92c-1.774 1.112-2.332 3.46-1.082 5.14 2.442 3.281 5.198 5.968 8.269 8.06z" fill="#E6EEFF" fill-opacity=".6"/></svg>