<svg width="24" height="16" fill="none" xmlns="http://www.w3.org/2000/svg"><path fill-rule="evenodd" clip-rule="evenodd" d="M6.054.214a82.563 82.563 0 0111.89 0l2.658.193c.72.052 1.4.325 1.933.775.532.45.886 1.051 1.005 1.709a28.612 28.612 0 010 10.22 2.926 2.926 0 01-1.005 1.708 3.37 3.37 0 01-1.931.775l-2.658.192a82.542 82.542 0 01-11.892 0l-2.657-.192a3.37 3.37 0 01-1.933-.775A2.926 2.926 0 01.46 13.11a28.655 28.655 0 010-10.22 2.926 2.926 0 011.005-1.708A3.37 3.37 0 013.396.407L6.053.215h.001zm3.573 10.491v-5.41a.31.31 0 01.048-.165.344.344 0 01.132-.12.38.38 0 01.358.004L15.05 7.72c.052.03.096.07.126.12a.309.309 0 010 .323.342.342 0 01-.126.12l-4.885 2.705a.378.378 0 01-.358.004.344.344 0 01-.132-.12.31.31 0 01-.048-.166z" fill="#2161AB"/></svg>