<svg width="24" height="24" viewBox="0 0 24 24" fill="none" xmlns="http://www.w3.org/2000/svg">
<g clip-path="url(#clip0_818_26786)">
<path fill-rule="evenodd" clip-rule="evenodd" d="M6.05444 3.21433C10.0118 2.92856 13.9874 2.92856 17.9448 3.21433L20.6024 3.40707C21.3222 3.45886 22.0025 3.73155 22.5349 4.18167C23.0672 4.6318 23.4211 5.23346 23.54 5.89076C24.1533 9.27463 24.1533 12.7275 23.54 16.1103C23.4211 16.7674 23.0675 17.3689 22.5353 17.819C22.0032 18.2691 21.3231 18.5419 20.6036 18.594L17.946 18.7856C13.9882 19.0715 10.0122 19.0715 6.05444 18.7856L3.39685 18.594C2.67706 18.5422 1.99676 18.2695 1.46438 17.8194C0.931994 17.3692 0.578159 16.7676 0.459263 16.1103C-0.153088 12.7272 -0.153088 9.27382 0.459263 5.89076C0.578107 5.23363 0.931769 4.6321 1.46392 4.18199C1.99606 3.73189 2.67608 3.45909 3.39566 3.40707L6.05325 3.21542L6.05444 3.21433ZM9.62677 13.7054V8.29561C9.62686 8.23755 9.64362 8.18055 9.67535 8.13042C9.70707 8.08029 9.75262 8.03881 9.80735 8.01021C9.86209 7.98161 9.92406 7.9669 9.98696 7.9676C10.0499 7.9683 10.1114 7.98436 10.1654 8.01416L15.0499 10.7191C15.1025 10.7483 15.146 10.7896 15.1762 10.8389C15.2064 10.8882 15.2222 10.9439 15.2222 11.0005C15.2222 11.0572 15.2064 11.1128 15.1762 11.1622C15.146 11.2115 15.1025 11.2527 15.0499 11.282L10.1654 13.9869C10.1114 14.0167 10.0499 14.0327 9.98696 14.0334C9.92406 14.0341 9.86209 14.0194 9.80735 13.9908C9.75262 13.9622 9.70707 13.9207 9.67535 13.8706C9.64362 13.8205 9.62686 13.7635 9.62677 13.7054Z" fill="#2161AB"/>
</g>
<defs>
<clipPath id="clip0_818_26786">
<rect width="24" height="24" fill="white"/>
</clipPath>
</defs>
</svg>
